<?xml version="1.0" encoding="UTF-8"?>
<svg id="Calque_2" data-name="Calque 2" xmlns="http://www.w3.org/2000/svg" viewBox="0 0 515.63 147.19">
  <defs>
    <style>
      .cls-1 {
        fill: #1d1d1b;
      }
    </style>
  </defs>
  <g id="Calque_1-2" data-name="Calque 1">
    <rect x="63.07" y="11.34" width="11.34" height="17.01" rx="1.89" ry="1.89"/>
    <rect x="23.39" y="11.34" width="11.34" height="17.01" rx="1.89" ry="1.89"/>
    <rect class="cls-1" x="195.86" y="16.72" width="25.96" height=".28"/>
    <rect class="cls-1" x="165.12" y="22.39" width="25.96" height=".28"/>
    <path d="M208.63,0h-.05s0,0,0,0h-7.55c-1.05,0-1.89,.85-1.89,1.89v7.55c0,1.05,.85,1.89,1.89,1.89h7.55c1.05,0,1.89-.85,1.89-1.89V1.89s0-.03,0-.05l.03-.62c0-.52,.42-.94,.94-.94h4.71v-.29h-7.51Z"/>
    <path d="M89.58,11.34h-.05s0,0,0,0h-7.55c-1.05,0-1.89,.85-1.89,1.89v7.55c0,1.05,.85,1.89,1.89,1.89h7.55c1.05,0,1.89-.85,1.89-1.89v-7.55s0-.03,0-.05l.03-.62c0-.52,.42-.94,.94-.94h4.71v-.29h-7.51Z"/>
    <path d="M10.21,22.68h-.05s0,0,0,0H2.6c-1.05,0-1.89,.85-1.89,1.89v7.55c0,1.05,.85,1.89,1.89,1.89h7.55c1.05,0,1.89-.85,1.89-1.89v-7.55s0-.03,0-.05l.03-.62c0-.52,.42-.94,.94-.94h4.71v-.29h-7.51Z"/>
    <path d="M25.22,11.34h.05s0,0,0,0h7.55c1.05,0,1.89,.85,1.89,1.89v7.55c0,1.05-.85,1.89-1.89,1.89h-7.55c-1.05,0-1.89-.85-1.89-1.89v-7.55s0-.03,0-.05l-.03-.62c0-.52-.42-.94-.94-.94h-4.71v-.29h7.51Z"/>
    <path d="M183.96,22.68h.05s0,0,0,0h7.55c1.05,0,1.89-.85,1.89-1.89v-7.55c0-1.05-.85-1.89-1.89-1.89h-7.55c-1.05,0-1.89,.85-1.89,1.89v7.55s0,.03,0,.05l-.03,.62c0,.52-.42,.94-.94,.94h-4.71v.29h7.51Z"/>
    <path d="M25.22,34.02h.05s0,0,0,0h7.55c1.05,0,1.89-.85,1.89-1.89v-7.55c0-1.05-.85-1.89-1.89-1.89h-7.55c-1.05,0-1.89,.85-1.89,1.89v7.55s0,.03,0,.05l-.03,.62c0,.52-.42,.94-.94,.94h-4.71v.29h7.51Z"/>
    <path d="M25.16,22.97h.05s0,0,0,0h7.55c1.05,0,1.89-.85,1.89-1.89v-7.55c0-1.05-.85-1.89-1.89-1.89h-7.55c-1.05,0-1.89,.85-1.89,1.89v7.55s0,.03,0,.05l-.03,.62c0,.52-.42,.94-.94,.94h-4.71v.29h7.51Z"/>
    <path d="M89.58,34.02h-.05s0,0,0,0h-7.55c-1.05,0-1.89-.85-1.89-1.89v-7.55c0-1.05,.85-1.89,1.89-1.89h7.55c1.05,0,1.89,.85,1.89,1.89v7.55s0,.03,0,.05l.03,.62c0,.52,.42,.94,.94,.94h4.71v.29h-7.51Z"/>
    <path d="M10.21,34.02h-.05s0,0,0,0H2.6c-1.05,0-1.89-.85-1.89-1.89v-7.55c0-1.05,.85-1.89,1.89-1.89h7.55c1.05,0,1.89,.85,1.89,1.89v7.55s0,.03,0,.05l.03,.62c0,.52,.42,.94,.94,.94h4.71v.29h-7.51Z"/>
    <path d="M236.98,45.35h-.05s0,0,0,0h-7.55c-1.05,0-1.89-.85-1.89-1.89v-1.88c0-1.05,.85-1.89,1.89-1.89h7.55c1.05,0,1.89,.85,1.89,1.89v1.88s0,.03,0,.05l.03,.62c0,.52,.42,.94,.94,.94h4.71v.29h-7.51Z"/>
    <path d="M251.99,45.35h.05s0,0,0,0h7.55c1.05,0,1.89-.85,1.89-1.89v-1.88c0-1.05-.85-1.89-1.89-1.89h-7.55c-1.05,0-1.89,.85-1.89,1.89v1.88s0,.03,0,.05l-.03,.62c0,.52-.42,.94-.94,.94h-4.71v.29h7.51Z"/>
    <path d="M104.59,34.02h.05s0,0,0,0h7.55c1.05,0,1.89-.85,1.89-1.89v-1.88c0-1.05-.85-1.89-1.89-1.89h-7.55c-1.05,0-1.89,.85-1.89,1.89v1.88s0,.03,0,.05l-.03,.62c0,.52-.42,.94-.94,.94h-4.71v.29h7.51Z"/>
    <path d="M217.98,0h.05s0,0,0,0h7.55c1.05,0,1.89,.85,1.89,1.89v1.88c0,1.05-.85,1.89-1.89,1.89h-7.55c-1.05,0-1.89-.85-1.89-1.89V1.89s0-.03,0-.05l-.03-.62c0-.52-.42-.94-.94-.94h-4.71v-.29h7.51Z"/>
    <path d="M104.59,11.34h.05s0,0,0,0h7.55c1.05,0,1.89,.85,1.89,1.89v1.88c0,1.05-.85,1.89-1.89,1.89h-7.55c-1.05,0-1.89-.85-1.89-1.89v-1.88s0-.03,0-.05l-.03-.62c0-.52-.42-.94-.94-.94h-4.71v-.29h7.51Z"/>
    <path d="M10.21,11.34h-.05s0,0,0,0H2.6c-1.05,0-1.89,.85-1.89,1.89v1.88c0,1.05,.85,1.89,1.89,1.89h7.55c1.05,0,1.89-.85,1.89-1.89v-1.88s0-.03,0-.05l.03-.62c0-.52,.42-.94,.94-.94h4.71v-.29h-7.51Z"/>
    <path d="M49.89,11.34h-.05s0,0,0,0h-7.55c-1.05,0-1.89,.85-1.89,1.89v7.55c0,1.05,.85,1.89,1.89,1.89h7.55c1.05,0,1.89-.85,1.89-1.89v-7.55s0-.03,0-.05l.03-.62c0-.52,.42-.94,.94-.94h4.71v-.29h-7.51Z"/>
    <path d="M64.91,11.34h.05s0,0,0,0h7.55c1.05,0,1.89,.85,1.89,1.89v7.55c0,1.05-.85,1.89-1.89,1.89h-7.55c-1.05,0-1.89-.85-1.89-1.89v-7.55s0-.03,0-.05l-.03-.62c0-.52-.42-.94-.94-.94h-4.71v-.29h7.51Z"/>
    <path d="M64.91,34.02h.05s0,0,0,0h7.55c1.05,0,1.89-.85,1.89-1.89v-7.55c0-1.05-.85-1.89-1.89-1.89h-7.55c-1.05,0-1.89,.85-1.89,1.89v7.55s0,.03,0,.05l-.03,.62c0,.52-.42,.94-.94,.94h-4.71v.29h7.51Z"/>
    <path d="M49.89,34.02h-.05s0,0,0,0h-7.55c-1.05,0-1.89-.85-1.89-1.89v-7.55c0-1.05,.85-1.89,1.89-1.89h7.55c1.05,0,1.89,.85,1.89,1.89v7.55s0,.03,0,.05l.03,.62c0,.52,.42,.94,.94,.94h4.71v.29h-7.51Z"/>
    <rect x="40.39" width="11.34" height="28.35" rx="1.89" ry="1.89"/>
    <g>
      <rect x="289.84" y="17.01" width="11.34" height="17.01" rx="1.89" ry="1.89"/>
      <path d="M276.67,11.34h-.05s0,0,0,0h-7.55c-1.05,0-1.89,.85-1.89,1.89v7.55c0,1.05,.85,1.89,1.89,1.89h7.55c1.05,0,1.89-.85,1.89-1.89v-7.55s0-.03,0-.05l.03-.62c0-.52,.42-.94,.94-.94h4.71v-.29h-7.51Z"/>
      <path d="M291.68,11.34h.05s0,0,0,0h7.55c1.05,0,1.89,.85,1.89,1.89v7.55c0,1.05-.85,1.89-1.89,1.89h-7.55c-1.05,0-1.89-.85-1.89-1.89v-7.55s0-.03,0-.05l-.03-.62c0-.52-.42-.94-.94-.94h-4.71v-.29h7.51Z"/>
      <rect x="267.17" width="11.34" height="34.02" rx="1.89" ry="1.89"/>
    </g>
    <rect x="199.13" width="11.34" height="34.02" rx="1.89" ry="1.89"/>
    <rect x="80.08" y="11.34" width="11.34" height="22.68" rx="1.89" ry="1.89"/>
    <path d="M236.98,11.34h-.05s0,0,0,0h-7.55c-1.05,0-1.89,.85-1.89,1.89v7.55c0,1.05,.85,1.89,1.89,1.89h7.55c1.05,0,1.89-.85,1.89-1.89v-7.55s0-.03,0-.05l.03-.62c0-.52,.42-.94,.94-.94h4.71v-.29h-7.51Z"/>
    <path d="M236.98,34.02h-.05s0,0,0,0h-7.55c-1.05,0-1.89-.85-1.89-1.89v-7.55c0-1.05,.85-1.89,1.89-1.89h7.55c1.05,0,1.89,.85,1.89,1.89v7.55s0,.03,0,.05l.03,.62c0,.52,.42,.94,.94,.94h4.71v.29h-7.51Z"/>
    <path d="M251.99,34.02h.05s0,0,0,0h7.55c1.05,0,1.89-.85,1.89-1.89v-1.88c0-1.05-.85-1.89-1.89-1.89h-7.55c-1.05,0-1.89,.85-1.89,1.89v1.88s0,.03,0,.05l-.03,.62c0,.52-.42,.94-.94,.94h-4.71v.29h7.51Z"/>
    <path d="M251.99,11.34h.05s0,0,0,0h7.55c1.05,0,1.89,.85,1.89,1.89v1.88c0,1.05-.85,1.89-1.89,1.89h-7.55c-1.05,0-1.89-.85-1.89-1.89v-1.88s0-.03,0-.05l-.03-.62c0-.52-.42-.94-.94-.94h-4.71v-.29h7.51Z"/>
    <rect x="227.48" y="11.34" width="11.34" height="22.68" rx="1.89" ry="1.89"/>
    <path d="M168.95,11.34h-.05s0,0,0,0h-7.55c-1.05,0-1.89,.85-1.89,1.89v7.55c0,1.05,.85,1.89,1.89,1.89h7.55c1.05,0,1.89-.85,1.89-1.89v-7.55s0-.03,0-.05l.03-.62c0-.52,.42-.94,.94-.94h4.71v-.29h-7.51Z"/>
    <path d="M168.95,34.02h-.05s0,0,0,0h-7.55c-1.05,0-1.89-.85-1.89-1.89v-7.55c0-1.05,.85-1.89,1.89-1.89h7.55c1.05,0,1.89,.85,1.89,1.89v7.55s0,.03,0,.05l.03,.62c0,.52,.42,.94,.94,.94h4.71v.29h-7.51Z"/>
    <path d="M183.96,34.02h.05s0,0,0,0h7.55c1.05,0,1.89-.85,1.89-1.89v-1.88c0-1.05-.85-1.89-1.89-1.89h-7.55c-1.05,0-1.89,.85-1.89,1.89v1.88s0,.03,0,.05l-.03,.62c0,.52-.42,.94-.94,.94h-4.71v.29h7.51Z"/>
    <path d="M183.96,11.34h.05s0,0,0,0h7.55c1.05,0,1.89,.85,1.89,1.89v1.88c0,1.05-.85,1.89-1.89,1.89h-7.55c-1.05,0-1.89-.85-1.89-1.89v-1.88s0-.03,0-.05l-.03-.62c0-.52-.42-.94-.94-.94h-4.71v-.29h7.51Z"/>
    <rect x="159.45" y="11.34" width="11.34" height="22.68" rx="1.89" ry="1.89"/>
    <rect x="250.16" y="11.34" width="11.34" height="22.68" rx="1.89" ry="1.89"/>
    <rect x="250.16" y="11.34" width="11.34" height="34.02" rx="1.89" ry="1.89"/>
    <rect x="306.85" y="11.34" width="11.34" height="22.68" rx="1.89" ry="1.89"/>
    <rect x="119.76" y="11.34" width="11.34" height="17.01" rx="1.89" ry="1.89" transform="translate(250.87 39.69) rotate(180)"/>
    <path d="M144.28,11.34h.05s0,0,0,0h7.55c1.05,0,1.89,.85,1.89,1.89v7.55c0,1.05-.85,1.89-1.89,1.89h-7.55c-1.05,0-1.89-.85-1.89-1.89v-7.55s0-.03,0-.05l-.03-.62c0-.52-.42-.94-.94-.94h-4.71v-.29h7.51Z"/>
    <path d="M129.26,11.34h-.05s0,0,0,0h-7.55c-1.05,0-1.89,.85-1.89,1.89v7.55c0,1.05,.85,1.89,1.89,1.89h7.55c1.05,0,1.89-.85,1.89-1.89v-7.55s0-.03,0-.05l.03-.62c0-.52,.42-.94,.94-.94h4.71v-.29h-7.51Z"/>
    <path d="M129.26,34.02h-.05s0,0,0,0h-7.55c-1.05,0-1.89-.85-1.89-1.89v-7.55c0-1.05,.85-1.89,1.89-1.89h7.55c1.05,0,1.89,.85,1.89,1.89v7.55s0,.03,0,.05l.03,.62c0,.52,.42,.94,.94,.94h4.71v.29h-7.51Z"/>
    <path d="M144.28,34.02h.05s0,0,0,0h7.55c1.05,0,1.89-.85,1.89-1.89v-7.55c0-1.05-.85-1.89-1.89-1.89h-7.55c-1.05,0-1.89,.85-1.89,1.89v7.55s0,.03,0,.05l-.03,.62c0,.52-.42,.94-.94,.94h-4.71v.29h7.51Z"/>
    <rect x="142.44" width="11.34" height="28.35" rx="1.89" ry="1.89" transform="translate(296.22 28.35) rotate(180)"/>
    <rect class="cls-1" x="306.85" width="11.34" height="5.67" rx="1.86" ry="1.86"/>
    <rect class="cls-1" x="323.86" width="11.34" height="5.67" rx="1.86" ry="1.86"/>
    <path d="M316.35,45.35h-.05s0,0,0,0h-7.55c-1.05,0-1.89-.85-1.89-1.89v-1.88c0-1.05,.85-1.89,1.89-1.89h7.55c1.05,0,1.89,.85,1.89,1.89v1.88s0,.03,0,.05l.03,.62c0,.52,.42,.94,.94,.94h4.71v.29h-7.51Z"/>
    <path d="M325.7,45.35h.05s0,0,0,0h7.55c1.05,0,1.89-.85,1.89-1.89v-1.88c0-1.05-.85-1.89-1.89-1.89h-7.55c-1.05,0-1.89,.85-1.89,1.89v1.88s0,.03,0,.05l-.03,.62c0,.52-.42,.94-.94,.94h-4.71v.29h7.51Z"/>
    <rect x="323.86" y="11.34" width="11.34" height="34.02" rx="1.89" ry="1.89"/>
    <rect class="cls-1" x="398.96" y="11.53" width="25.96" height=".28"/>
    <rect class="cls-1" x="149.79" y="57.56" width="25.96" height=".28"/>
    <path d="M423.08,11.53h-.05s0,0,0,0h-7.55c-1.05,0-1.89,.85-1.89,1.89v7.55c0,1.05,.85,1.89,1.89,1.89h7.55c1.05,0,1.89-.85,1.89-1.89v-7.55s0-.03,0-.05l.03-.62c0-.52,.42-.94,.94-.94h4.71v-.29h-7.51Z"/>
    <path d="M406.07,11.53h-.05s0,0,0,0h-7.55c-1.05,0-1.89,.85-1.89,1.89v7.55c0,1.05,.85,1.89,1.89,1.89h7.55c1.05,0,1.89-.85,1.89-1.89v-7.55s0-.03,0-.05l.03-.62c0-.52,.42-.94,.94-.94h4.71v-.29h-7.51Z"/>
    <path d="M137.9,69.19h.05s0,0,0,0h7.55c1.05,0,1.89,.85,1.89,1.89v7.55c0,1.05-.85,1.89-1.89,1.89h-7.55c-1.05,0-1.89-.85-1.89-1.89v-7.55s0-.03,0-.05l-.03-.62c0-.52-.42-.94-.94-.94h-4.71v-.29h7.51Z"/>
    <path d="M137.9,80.52h.05s0,0,0,0h7.55c1.05,0,1.89-.85,1.89-1.89v-7.55c0-1.05-.85-1.89-1.89-1.89h-7.55c-1.05,0-1.89,.85-1.89,1.89v7.55s0,.03,0,.05l-.03,.62c0,.52-.42,.94-.94,.94h-4.71v.29h7.51Z"/>
    <path d="M122.89,69.19h-.05s0,0,0,0h-7.55c-1.05,0-1.89-.85-1.89-1.89v-7.55c0-1.05,.85-1.89,1.89-1.89h7.55c1.05,0,1.89,.85,1.89,1.89v7.55s0,.03,0,.05l.03,.62c0,.52,.42,.94,.94,.94h4.71v.29h-7.51Z"/>
    <path d="M122.89,80.52h-.05s0,0,0,0h-7.55c-1.05,0-1.89-.85-1.89-1.89v-1.88c0-1.05,.85-1.89,1.89-1.89h7.55c1.05,0,1.89,.85,1.89,1.89v1.88s0,.03,0,.05l.03,.62c0,.52,.42,.94,.94,.94h4.71v.29h-7.51Z"/>
    <path d="M171.92,80.52h.05s0,0,0,0h7.55c1.05,0,1.89-.85,1.89-1.89v-1.88c0-1.05-.85-1.89-1.89-1.89h-7.55c-1.05,0-1.89,.85-1.89,1.89v1.88s0,.03,0,.05l-.03,.62c0,.52-.42,.94-.94,.94h-4.71v.29h7.51Z"/>
    <path d="M432.43,11.53h.05s0,0,0,0h7.55c1.05,0,1.89,.85,1.89,1.89v1.88c0,1.05-.85,1.89-1.89,1.89h-7.55c-1.05,0-1.89-.85-1.89-1.89v-1.88s0-.03,0-.05l-.03-.62c0-.52-.42-.94-.94-.94h-4.71v-.29h7.51Z"/>
    <path d="M415.42,11.53h.05s0,0,0,0h7.55c1.05,0,1.89,.85,1.89,1.89v1.88c0,1.05-.85,1.89-1.89,1.89h-7.55c-1.05,0-1.89-.85-1.89-1.89v-1.88s0-.03,0-.05l-.03-.62c0-.52-.42-.94-.94-.94h-4.71v-.29h7.51Z"/>
    <rect x="379.56" y=".19" width="11.34" height="34.02" rx="1.89" ry="1.89"/>
    <rect x="396.57" y="11.53" width="11.34" height="22.68" rx="1.89" ry="1.89"/>
    <rect x="413.58" y="11.53" width="11.34" height="22.68" rx="1.89" ry="1.89"/>
    <rect x="430.59" y="11.53" width="11.34" height="22.68" rx="1.89" ry="1.89"/>
    <g>
      <rect class="cls-1" x="453.27" y="11.53" width="20.29" height=".28"/>
      <path d="M457.1,11.53h-.05s0,0,0,0h-7.55c-1.05,0-1.89,.85-1.89,1.89v7.55c0,1.05,.85,1.89,1.89,1.89h7.55c1.05,0,1.89-.85,1.89-1.89v-7.55s0-.03,0-.05l.03-.62c0-.52,.42-.94,.94-.94h4.71v-.29h-7.51Z"/>
      <path d="M466.44,11.53h.05s0,0,0,0h7.55c1.05,0,1.89,.85,1.89,1.89v1.88c0,1.05-.85,1.89-1.89,1.89h-7.55c-1.05,0-1.89-.85-1.89-1.89v-1.88s0-.03,0-.05l-.03-.62c0-.52-.42-.94-.94-.94h-4.71v-.29h7.51Z"/>
      <rect x="447.6" y="11.53" width="11.34" height="22.68" rx="1.89" ry="1.89"/>
      <rect x="464.6" y="11.53" width="11.34" height="22.68" rx="1.89" ry="1.89"/>
    </g>
    <rect class="cls-1" x="85.04" y="57.85" width="20.29" height=".28"/>
    <path d="M88.87,57.85h-.05s0,0,0,0h-7.55c-1.05,0-1.89,.85-1.89,1.89v7.55c0,1.05,.85,1.89,1.89,1.89h7.55c1.05,0,1.89-.85,1.89-1.89v-7.55s0-.03,0-.05l.03-.62c0-.52,.42-.94,.94-.94h4.71v-.29h-7.51Z"/>
    <path d="M98.22,57.85h.05s0,0,0,0h7.55c1.05,0,1.89,.85,1.89,1.89v1.88c0,1.05-.85,1.89-1.89,1.89h-7.55c-1.05,0-1.89-.85-1.89-1.89v-1.88s0-.03,0-.05l-.03-.62c0-.52-.42-.94-.94-.94h-4.71v-.29h7.51Z"/>
    <rect x="79.37" y="57.85" width="11.34" height="22.68" rx="1.89" ry="1.89"/>
    <rect class="cls-1" x="124.72" y="57.85" width="20.29" height=".28"/>
    <path d="M122.89,57.85h-.05s0,0,0,0h-7.55c-1.05,0-1.89,.85-1.89,1.89v7.55c0,1.05,.85,1.89,1.89,1.89h7.55c1.05,0,1.89-.85,1.89-1.89v-7.55s0-.03,0-.05l.03-.62c0-.52,.42-.94,.94-.94h4.71v-.29h-7.51Z"/>
    <path d="M137.9,57.85h.05s0,0,0,0h7.55c1.05,0,1.89,.85,1.89,1.89v1.88c0,1.05-.85,1.89-1.89,1.89h-7.55c-1.05,0-1.89-.85-1.89-1.89v-1.88s0-.03,0-.05l-.03-.62c0-.52-.42-.94-.94-.94h-4.71v-.29h7.51Z"/>
    <rect x="22.68" y="63.52" width="11.34" height="17.01" rx="1.89" ry="1.89"/>
    <path d="M9.5,80.52h-.05s0,0,0,0H1.89C.85,80.52,0,79.68,0,78.63v-7.55C0,70.03,.85,69.19,1.89,69.19h7.55c1.05,0,1.89,.85,1.89,1.89v7.55s0,.03,0,.05l.03,.62c0,.52,.42,.94,.94,.94h4.71v.29h-7.51Z"/>
    <path d="M24.51,80.52h.05s0,0,0,0h7.55c1.05,0,1.89-.85,1.89-1.89v-7.55c0-1.05-.85-1.89-1.89-1.89h-7.55c-1.05,0-1.89,.85-1.89,1.89v7.55s0,.03,0,.05l-.03,.62c0,.52-.42,.94-.94,.94h-4.71v.29h7.51Z"/>
    <path d="M24.51,57.85h.05s0,0,0,0h7.55c1.05,0,1.89,.85,1.89,1.89v7.55c0,1.05-.85,1.89-1.89,1.89h-7.55c-1.05,0-1.89-.85-1.89-1.89v-7.55s0-.03,0-.05l-.03-.62c0-.52-.42-.94-.94-.94h-4.71v-.29h7.51Z"/>
    <path d="M9.5,57.85h-.05s0,0,0,0H1.89c-1.05,0-1.89,.85-1.89,1.89v7.55c0,1.05,.85,1.89,1.89,1.89h7.55c1.05,0,1.89-.85,1.89-1.89v-7.55s0-.03,0-.05l.03-.62c0-.52,.42-.94,.94-.94h4.71v-.29h-7.51Z"/>
    <rect y="63.52" width="11.34" height="28.35" rx="1.89" ry="1.89"/>
    <rect x="39.69" y="63.52" width="11.34" height="17.01" rx="1.89" ry="1.89" transform="translate(90.71 144.04) rotate(180)"/>
    <path d="M64.2,80.52h.05s0,0,0,0h7.55c1.05,0,1.89-.85,1.89-1.89v-7.55c0-1.05-.85-1.89-1.89-1.89h-7.55c-1.05,0-1.89,.85-1.89,1.89v7.55s0,.03,0,.05l-.03,.62c0,.52-.42,.94-.94,.94h-4.71v.29h7.51Z"/>
    <path d="M49.19,80.52h-.05s0,0,0,0h-7.55c-1.05,0-1.89-.85-1.89-1.89v-7.55c0-1.05,.85-1.89,1.89-1.89h7.55c1.05,0,1.89,.85,1.89,1.89v7.55s0,.03,0,.05l.03,.62c0,.52,.42,.94,.94,.94h4.71v.29h-7.51Z"/>
    <path d="M49.19,57.85h-.05s0,0,0,0h-7.55c-1.05,0-1.89,.85-1.89,1.89v7.55c0,1.05,.85,1.89,1.89,1.89h7.55c1.05,0,1.89-.85,1.89-1.89v-7.55s0-.03,0-.05l.03-.62c0-.52,.42-.94,.94-.94h4.71v-.29h-7.51Z"/>
    <path d="M64.2,57.85h.05s0,0,0,0h7.55c1.05,0,1.89,.85,1.89,1.89v7.55c0,1.05-.85,1.89-1.89,1.89h-7.55c-1.05,0-1.89-.85-1.89-1.89v-7.55s0-.03,0-.05l-.03-.62c0-.52-.42-.94-.94-.94h-4.71v-.29h7.51Z"/>
    <rect x="62.36" y="63.52" width="11.34" height="28.35" rx="1.89" ry="1.89" transform="translate(136.06 155.38) rotate(180)"/>
    <rect x="481.61" y="11.53" width="11.34" height="17.01" rx="1.89" ry="1.89" transform="translate(974.56 40.07) rotate(180)"/>
    <path d="M506.13,11.53h.05s0,0,0,0h7.55c1.05,0,1.89,.85,1.89,1.89v7.55c0,1.05-.85,1.89-1.89,1.89h-7.55c-1.05,0-1.89-.85-1.89-1.89v-7.55s0-.03,0-.05l-.03-.62c0-.52-.42-.94-.94-.94h-4.71v-.29h7.51Z"/>
    <path d="M491.11,11.53h-.05s0,0,0,0h-7.55c-1.05,0-1.89,.85-1.89,1.89v7.55c0,1.05,.85,1.89,1.89,1.89h7.55c1.05,0,1.89-.85,1.89-1.89v-7.55s0-.03,0-.05l.03-.62c0-.52,.42-.94,.94-.94h4.71v-.29h-7.51Z"/>
    <path d="M491.11,34.21h-.05s0,0,0,0h-7.55c-1.05,0-1.89-.85-1.89-1.89v-7.55c0-1.05,.85-1.89,1.89-1.89h7.55c1.05,0,1.89,.85,1.89,1.89v7.55s0,.03,0,.05l.03,.62c0,.52,.42,.94,.94,.94h4.71v.29h-7.51Z"/>
    <path d="M506.13,34.21h.05s0,0,0,0h7.55c1.05,0,1.89-.85,1.89-1.89v-7.55c0-1.05-.85-1.89-1.89-1.89h-7.55c-1.05,0-1.89,.85-1.89,1.89v7.55s0,.03,0,.05l-.03,.62c0,.52-.42,.94-.94,.94h-4.71v.29h7.51Z"/>
    <rect x="504.29" y="11.53" width="11.34" height="17.01" rx="1.89" ry="1.89" transform="translate(1019.92 40.07) rotate(180)"/>
    <rect x="187.09" y="57.85" width="11.34" height="17.01" rx="1.89" ry="1.89" transform="translate(385.51 132.7) rotate(180)"/>
    <path d="M211.6,57.85h.05s0,0,0,0h7.55c1.05,0,1.89,.85,1.89,1.89v7.55c0,1.05-.85,1.89-1.89,1.89h-7.55c-1.05,0-1.89-.85-1.89-1.89v-7.55s0-.03,0-.05l-.03-.62c0-.52-.42-.94-.94-.94h-4.71v-.29h7.51Z"/>
    <path d="M196.59,57.85h-.05s0,0,0,0h-7.55c-1.05,0-1.89,.85-1.89,1.89v7.55c0,1.05,.85,1.89,1.89,1.89h7.55c1.05,0,1.89-.85,1.89-1.89v-7.55s0-.03,0-.05l.03-.62c0-.52,.42-.94,.94-.94h4.71v-.29h-7.51Z"/>
    <path d="M196.59,80.52h-.05s0,0,0,0h-7.55c-1.05,0-1.89-.85-1.89-1.89v-7.55c0-1.05,.85-1.89,1.89-1.89h7.55c1.05,0,1.89,.85,1.89,1.89v7.55s0,.03,0,.05l.03,.62c0,.52,.42,.94,.94,.94h4.71v.29h-7.51Z"/>
    <path d="M211.6,80.52h.05s0,0,0,0h7.55c1.05,0,1.89-.85,1.89-1.89v-7.55c0-1.05-.85-1.89-1.89-1.89h-7.55c-1.05,0-1.89,.85-1.89,1.89v7.55s0,.03,0,.05l-.03,.62c0,.52-.42,.94-.94,.94h-4.71v.29h7.51Z"/>
    <rect x="209.76" y="57.85" width="11.34" height="17.01" rx="1.89" ry="1.89" transform="translate(430.87 132.7) rotate(180)"/>
    <path d="M162.57,80.52h-.05s0,0,0,0h-7.55c-1.05,0-1.89-.85-1.89-1.89v-7.55c0-1.05,.85-1.89,1.89-1.89h7.55c1.05,0,1.89,.85,1.89,1.89v7.55s0,.03,0,.05l.03,.62c0,.52,.42,.94,.94,.94h4.71v.29h-7.51Z"/>
    <rect x="153.07" y="46.51" width="11.34" height="34.02" rx="1.89" ry="1.89"/>
    <path class="cls-1" d="M363.5,22.87h3.74c1.06,0,1.93,.82,1.93,1.83v7.11c0,1.01-.86,1.83-1.93,1.83h-7.48c-1.06,0-1.93-.82-1.93-1.83v-2.8c0-.42,0-4.06-.11-5.24-.02-.22-.25-.56-.49-.6l-5.08-.08v-.24"/>
    <path class="cls-1" d="M346.49,22.87h-3.74c-1.06,0-1.93,.86-1.93,1.93v7.48c0,1.06,.86,1.93,1.93,1.93h6.8c1.44,0,2.61-1.17,2.61-2.61v-2.26c0-.44,0-4.27,.11-5.51,.02-.23,.25-.59,.49-.63l5.08-.08v-.25"/>
    <rect class="cls-1" x="340.82" y=".19" width="11.4" height="20.61" rx="1.7" ry="1.7" transform="translate(693.05 21) rotate(180)"/>
    <rect class="cls-1" x="340.76" y="5.86" width="11.4" height="20.61" rx="1.7" ry="1.7" transform="translate(692.93 32.34) rotate(180)"/>
    <rect class="cls-1" x="363.5" y=".19" width="11.4" height="17.01" rx="1.7" ry="1.7" transform="translate(738.4 17.39) rotate(180)"/>
    <path class="cls-1" d="M369.17,17.2h3.74c1.06,0,1.93-.86,1.93-1.93V7.79c0-1.06-.86-1.93-1.93-1.93h-7.48c-1.06,0-1.93,.86-1.93,1.93v2.94c0,.44,0,4.27-.11,5.51-.02,.23-.25,.59-.49,.63l-5.08,.08v.25"/>
    <rect class="cls-1" x="360.64" y="20.06" width="11.4" height="17.01" rx="1.7" ry="1.7" transform="translate(337.77 394.9) rotate(-90)"/>
    <rect class="cls-1" x="343.24" y="16.92" width="25.96" height=".28"/>
  </g>
</svg>