<?xml version="1.0" encoding="UTF-8"?>
<svg id="Calque_2" data-name="Calque 2" xmlns="http://www.w3.org/2000/svg" viewBox="0 0 266.8 45.6">
  <defs>
    <style>
      .cls-1 {
        fill: #fff;
        stroke: #000;
        stroke-miterlimit: 10;
        stroke-width: .25px;
      }
    </style>
  </defs>
  <g id="Calque_1-2" data-name="Calque 1">
    <g>
      <path class="cls-1" d="M24.64,.13h.05s0,0,0,0h7.55c1.05,0,1.89,.85,1.89,1.89v7.55c0,1.05-.85,1.89-1.89,1.89h-7.55c-1.05,0-1.89-.85-1.89-1.89V2.02s0-.03,0-.05l-.03-.62c0-.52-.42-.94-.94-.94h-4.71V.13h7.51Z"/>
      <path class="cls-1" d="M9.63,.13h-.05s0,0,0,0H2.02C.97,.13,.13,.97,.13,2.02v1.88c0,1.05,.85,1.89,1.89,1.89h7.55c1.05,0,1.89-.85,1.89-1.89v-1.88s0-.03,0-.05l.03-.62c0-.52,.42-.94,.94-.94h4.71V.13h-7.51Z"/>
    </g>
    <g>
      <rect x="255.46" y=".13" width="11.34" height="17.01" rx="1.89" ry="1.89"/>
      <path d="M242.29,11.46h-.05s0,0,0,0h-7.55c-1.05,0-1.89,.85-1.89,1.89v7.55c0,1.05,.85,1.89,1.89,1.89h7.55c1.05,0,1.89-.85,1.89-1.89v-7.55s0-.03,0-.05l.03-.62c0-.52,.42-.94,.94-.94h4.71v-.29h-7.51Z"/>
      <path d="M257.3,.13h.05s0,0,0,0h7.55c1.05,0,1.89,.85,1.89,1.89v7.55c0,1.05-.85,1.89-1.89,1.89h-7.55c-1.05,0-1.89-.85-1.89-1.89V2.02s0-.03,0-.05l-.03-.62c0-.52-.42-.94-.94-.94h-4.71V.13h7.51Z"/>
      <path d="M257.3,22.8h.05s0,0,0,0h7.55c1.05,0,1.89-.85,1.89-1.89v-7.55c0-1.05-.85-1.89-1.89-1.89h-7.55c-1.05,0-1.89,.85-1.89,1.89v7.55s0,.03,0,.05l-.03,.62c0,.52-.42,.94-.94,.94h-4.71v.29h7.51Z"/>
      <path d="M257.23,11.75h.05s0,0,0,0h7.55c1.05,0,1.89-.85,1.89-1.89V2.31c0-1.05-.85-1.89-1.89-1.89h-7.55c-1.05,0-1.89,.85-1.89,1.89v7.55s0,.03,0,.05l-.03,.62c0,.52-.42,.94-.94,.94h-4.71v.29h7.51Z"/>
      <path d="M242.29,22.8h-.05s0,0,0,0h-7.55c-1.05,0-1.89-.85-1.89-1.89v-7.55c0-1.05,.85-1.89,1.89-1.89h7.55c1.05,0,1.89,.85,1.89,1.89v7.55s0,.03,0,.05l.03,.62c0,.52,.42,.94,.94,.94h4.71v.29h-7.51Z"/>
      <path d="M242.29,.13h-.05s0,0,0,0h-7.55c-1.05,0-1.89,.85-1.89,1.89v1.88c0,1.05,.85,1.89,1.89,1.89h7.55c1.05,0,1.89-.85,1.89-1.89v-1.88s0-.03,0-.05l.03-.62c0-.52,.42-.94,.94-.94h4.71V.13h-7.51Z"/>
    </g>
    <g>
      <path class="cls-1" d="M15.08,22.8h-.05s0,0,0,0H7.47c-1.05,0-1.89,.85-1.89,1.89v7.55c0,1.05,.85,1.89,1.89,1.89h7.55c1.05,0,1.89-.85,1.89-1.89v-7.55s0-.03,0-.05l.03-.62c0-.52,.42-.94,.94-.94h4.71v-.29h-7.51Z"/>
      <path class="cls-1" d="M30.31,23.11h.05s0,0,0,0h7.55c1.05,0,1.89-.85,1.89-1.89v-7.55c0-1.05-.85-1.89-1.89-1.89h-7.55c-1.05,0-1.89,.85-1.89,1.89v7.55s0,.03,0,.05l-.03,.62c0,.52-.42,.94-.94,.94h-4.71v.29h7.51Z"/>
    </g>
    <rect class="cls-1" x="34.14" y="22.8" width="11.34" height="17.01" rx="1.89" ry="1.89"/>
    <g>
      <path class="cls-1" d="M41.65,45.48h.05s0,0,0,0h7.55c1.05,0,1.89-.85,1.89-1.89v-7.55c0-1.05-.85-1.89-1.89-1.89h-7.55c-1.05,0-1.89,.85-1.89,1.89v7.55s0,.03,0,.05l-.03,.62c0,.52-.42,.94-.94,.94h-4.71v.29h7.51Z"/>
      <path class="cls-1" d="M26.63,45.48h-.05s0,0,0,0h-7.55c-1.05,0-1.89-.85-1.89-1.89v-7.55c0-1.05,.85-1.89,1.89-1.89h7.55c1.05,0,1.89,.85,1.89,1.89v7.55s0,.03,0,.05l.03,.62c0,.52,.42,.94,.94,.94h4.71v.29h-7.51Z"/>
    </g>
    <g>
      <path class="cls-1" d="M81.33,.13h.05s0,0,0,0h7.55c1.05,0,1.89,.85,1.89,1.89v7.55c0,1.05-.85,1.89-1.89,1.89h-7.55c-1.05,0-1.89-.85-1.89-1.89V2.02s0-.03,0-.05l-.03-.62c0-.52-.42-.94-.94-.94h-4.71V.13h7.51Z"/>
      <path class="cls-1" d="M66.32,.13h-.05s0,0,0,0h-7.55c-1.05,0-1.89,.85-1.89,1.89v1.88c0,1.05,.85,1.89,1.89,1.89h7.55c1.05,0,1.89-.85,1.89-1.89v-1.88s0-.03,0-.05l.03-.62c0-.52,.42-.94,.94-.94h4.71V.13h-7.51Z"/>
    </g>
    <g>
      <path class="cls-1" d="M71.77,17.13h-.05s0,0,0,0h-7.55c-1.05,0-1.89,.85-1.89,1.89v7.55c0,1.05,.85,1.89,1.89,1.89h7.55c1.05,0,1.89-.85,1.89-1.89v-7.55s0-.03,0-.05l.03-.62c0-.52,.42-.94,.94-.94h4.71v-.29h-7.51Z"/>
      <path class="cls-1" d="M87,17.44h.05s0,0,0,0h7.55c1.05,0,1.89-.85,1.89-1.89V7.99c0-1.05-.85-1.89-1.89-1.89h-7.55c-1.05,0-1.89,.85-1.89,1.89v7.55s0,.03,0,.05l-.03,.62c0,.52-.42,.94-.94,.94h-4.71v.29h7.51Z"/>
    </g>
    <rect class="cls-1" x="90.83" y="17.13" width="11.34" height="17.01" rx="1.89" ry="1.89"/>
    <g>
      <path class="cls-1" d="M98.34,39.81h.05s0,0,0,0h7.55c1.05,0,1.89-.85,1.89-1.89v-7.55c0-1.05-.85-1.89-1.89-1.89h-7.55c-1.05,0-1.89,.85-1.89,1.89v7.55s0,.03,0,.05l-.03,.62c0,.52-.42,.94-.94,.94h-4.71v.29h7.51Z"/>
      <path class="cls-1" d="M83.33,39.81h-.05s0,0,0,0h-7.55c-1.05,0-1.89-.85-1.89-1.89v-7.55c0-1.05,.85-1.89,1.89-1.89h7.55c1.05,0,1.89,.85,1.89,1.89v7.55s0,.03,0,.05l.03,.62c0,.52,.42,.94,.94,.94h4.71v.29h-7.51Z"/>
    </g>
    <g>
      <path class="cls-1" d="M138.03,.13h.05s0,0,0,0h7.55c1.05,0,1.89,.85,1.89,1.89v7.55c0,1.05-.85,1.89-1.89,1.89h-7.55c-1.05,0-1.89-.85-1.89-1.89V2.02s0-.03,0-.05l-.03-.62c0-.52-.42-.94-.94-.94h-4.71V.13h7.51Z"/>
      <path class="cls-1" d="M123.01,.13h-.05s0,0,0,0h-7.55c-1.05,0-1.89,.85-1.89,1.89v1.88c0,1.05,.85,1.89,1.89,1.89h7.55c1.05,0,1.89-.85,1.89-1.89v-1.88s0-.03,0-.05l.03-.62c0-.52,.42-.94,.94-.94h4.71V.13h-7.51Z"/>
    </g>
    <g>
      <path class="cls-1" d="M123.01,16.83h-.05s0,0,0,0h-7.55c-1.05,0-1.89,.85-1.89,1.89v7.55c0,1.05,.85,1.89,1.89,1.89h7.55c1.05,0,1.89-.85,1.89-1.89v-7.55s0-.03,0-.05l.03-.62c0-.52,.42-.94,.94-.94h4.71v-.29h-7.51Z"/>
      <path class="cls-1" d="M138.25,17.13h.05s0,0,0,0h7.55c1.05,0,1.89-.85,1.89-1.89V7.69c0-1.05-.85-1.89-1.89-1.89h-7.55c-1.05,0-1.89,.85-1.89,1.89v7.55s0,.03,0,.05l-.03,.62c0,.52-.42,.94-.94,.94h-4.71v.29h7.51Z"/>
    </g>
    <rect class="cls-1" x="136.19" y="17.13" width="11.34" height="17.01" rx="1.89" ry="1.89"/>
    <g>
      <path class="cls-1" d="M138.03,39.81h.05s0,0,0,0h7.55c1.05,0,1.89-.85,1.89-1.89v-7.55c0-1.05-.85-1.89-1.89-1.89h-7.55c-1.05,0-1.89,.85-1.89,1.89v7.55s0,.03,0,.05l-.03,.62c0,.52-.42,.94-.94,.94h-4.71v.29h7.51Z"/>
      <path class="cls-1" d="M123.01,39.81h-.05s0,0,0,0h-7.55c-1.05,0-1.89-.85-1.89-1.89v-7.55c0-1.05,.85-1.89,1.89-1.89h7.55c1.05,0,1.89,.85,1.89,1.89v7.55s0,.03,0,.05l.03,.62c0,.52,.42,.94,.94,.94h4.71v.29h-7.51Z"/>
    </g>
    <g>
      <path class="cls-1" d="M177.71,.13h.05s0,0,0,0h7.55c1.05,0,1.89,.85,1.89,1.89v7.55c0,1.05-.85,1.89-1.89,1.89h-7.55c-1.05,0-1.89-.85-1.89-1.89V2.02s0-.03,0-.05l-.03-.62c0-.52-.42-.94-.94-.94h-4.71V.13h7.51Z"/>
      <path class="cls-1" d="M162.7,.13h-.05s0,0,0,0h-7.55c-1.05,0-1.89,.85-1.89,1.89v1.88c0,1.05,.85,1.89,1.89,1.89h7.55c1.05,0,1.89-.85,1.89-1.89v-1.88s0-.03,0-.05l.03-.62c0-.52,.42-.94,.94-.94h4.71V.13h-7.51Z"/>
    </g>
    <g>
      <path class="cls-1" d="M162.7,17.13h-.05s0,0,0,0h-7.55c-1.05,0-1.89,.85-1.89,1.89v7.55c0,1.05,.85,1.89,1.89,1.89h7.55c1.05,0,1.89-.85,1.89-1.89v-7.55s0-.03,0-.05l.03-.62c0-.52,.42-.94,.94-.94h4.71v-.29h-7.51Z"/>
      <path class="cls-1" d="M177.93,17.44h.05s0,0,0,0h7.55c1.05,0,1.89-.85,1.89-1.89V7.99c0-1.05-.85-1.89-1.89-1.89h-7.55c-1.05,0-1.89,.85-1.89,1.89v7.55s0,.03,0,.05l-.03,.62c0,.52-.42,.94-.94,.94h-4.71v.29h7.51Z"/>
    </g>
    <rect class="cls-1" x="175.87" y="5.79" width="11.34" height="17.01" rx="1.89" ry="1.89"/>
    <g>
      <path class="cls-1" d="M177.71,28.47h.05s0,0,0,0h7.55c1.05,0,1.89-.85,1.89-1.89v-7.55c0-1.05-.85-1.89-1.89-1.89h-7.55c-1.05,0-1.89,.85-1.89,1.89v7.55s0,.03,0,.05l-.03,.62c0,.52-.42,.94-.94,.94h-4.71v.29h7.51Z"/>
      <path class="cls-1" d="M162.7,28.47h-.05s0,0,0,0h-7.55c-1.05,0-1.89-.85-1.89-1.89v-7.55c0-1.05,.85-1.89,1.89-1.89h7.55c1.05,0,1.89,.85,1.89,1.89v7.55s0,.03,0,.05l.03,.62c0,.52,.42,.94,.94,.94h4.71v.29h-7.51Z"/>
    </g>
    <g>
      <path class="cls-1" d="M217.62,.13h.05s0,0,0,0h7.55c1.05,0,1.89,.85,1.89,1.89v7.55c0,1.05-.85,1.89-1.89,1.89h-7.55c-1.05,0-1.89-.85-1.89-1.89V2.02s0-.03,0-.05l-.03-.62c0-.52-.42-.94-.94-.94h-4.71V.13h7.51Z"/>
      <path class="cls-1" d="M202.6,.13h-.05s0,0,0,0h-7.55c-1.05,0-1.89,.85-1.89,1.89v1.88c0,1.05,.85,1.89,1.89,1.89h7.55c1.05,0,1.89-.85,1.89-1.89v-1.88s0-.03,0-.05l.03-.62c0-.52,.42-.94,.94-.94h4.71V.13h-7.51Z"/>
    </g>
    <g>
      <path class="cls-1" d="M202.6,11.16h-.05s0,0,0,0h-7.55c-1.05,0-1.89,.85-1.89,1.89v7.55c0,1.05,.85,1.89,1.89,1.89h7.55c1.05,0,1.89-.85,1.89-1.89v-7.55s0-.03,0-.05l.03-.62c0-.52,.42-.94,.94-.94h4.71v-.29h-7.51Z"/>
      <path class="cls-1" d="M217.84,11.46h.05s0,0,0,0h7.55c1.05,0,1.89-.85,1.89-1.89V2.02c0-1.05-.85-1.89-1.89-1.89h-7.55c-1.05,0-1.89,.85-1.89,1.89v7.55s0,.03,0,.05l-.03,.62c0,.52-.42,.94-.94,.94h-4.71v.29h7.51Z"/>
    </g>
    <rect class="cls-1" x="215.78" y=".12" width="11.34" height="17.01" rx="1.89" ry="1.89"/>
    <g>
      <path class="cls-1" d="M217.62,22.8h.05s0,0,0,0h7.55c1.05,0,1.89-.85,1.89-1.89v-7.55c0-1.05-.85-1.89-1.89-1.89h-7.55c-1.05,0-1.89,.85-1.89,1.89v7.55s0,.03,0,.05l-.03,.62c0,.52-.42,.94-.94,.94h-4.71v.29h7.51Z"/>
      <path class="cls-1" d="M202.6,22.8h-.05s0,0,0,0h-7.55c-1.05,0-1.89-.85-1.89-1.89v-7.55c0-1.05,.85-1.89,1.89-1.89h7.55c1.05,0,1.89,.85,1.89,1.89v7.55s0,.03,0,.05l.03,.62c0,.52,.42,.94,.94,.94h4.71v.29h-7.51Z"/>
    </g>
  </g>
</svg>