<?xml version="1.0" encoding="UTF-8"?>
<svg id="Calque_2" data-name="Calque 2" xmlns="http://www.w3.org/2000/svg" viewBox="0 0 563.1 223.67">
  <defs>
    <style>
      .cls-1 {
        fill: #1d1d1b;
      }

      .cls-2 {
        fill: none;
        stroke: #1d1d1b;
        stroke-miterlimit: 10;
      }
    </style>
  </defs>
  <g id="Calque_1-2" data-name="Calque 1">
    <rect class="cls-1" x="84.67" y="11.34" width="20.29" height=".28"/>
    <path d="M88.5,11.34h-.05s0,0,0,0h-7.55c-1.05,0-1.89,.85-1.89,1.89v7.55c0,1.05,.85,1.89,1.89,1.89h7.55c1.05,0,1.89-.85,1.89-1.89v-7.55s0-.03,0-.05l.03-.62c0-.52,.42-.94,.94-.94h4.71v-.29h-7.51Z"/>
    <path d="M97.84,11.34h.05s0,0,0,0h7.55c1.05,0,1.89,.85,1.89,1.89v1.88c0,1.05-.85,1.89-1.89,1.89h-7.55c-1.05,0-1.89-.85-1.89-1.89v-1.88s0-.03,0-.05l-.03-.62c0-.52-.42-.94-.94-.94h-4.71v-.29h7.51Z"/>
    <rect x="79" y="11.34" width="11.34" height="22.68" rx="1.89" ry="1.89"/>
    <path d="M121.1,11.26h-.05s0,0,0,0h-7.55c-1.05,0-1.89,.85-1.89,1.89v7.55c0,1.05,.85,1.89,1.89,1.89h7.55c1.05,0,1.89-.85,1.89-1.89v-7.55s0-.03,0-.05l.03-.62c0-.52,.42-.94,.94-.94h4.71v-.29h-7.51Z"/>
    <path d="M121.1,33.93h-.05s0,0,0,0h-7.55c-1.05,0-1.89-.85-1.89-1.89v-7.55c0-1.05,.85-1.89,1.89-1.89h7.55c1.05,0,1.89,.85,1.89,1.89v7.55s0,.03,0,.05l.03,.62c0,.52,.42,.94,.94,.94h4.71v.29h-7.51Z"/>
    <path d="M136.11,33.93h.05s0,0,0,0h7.55c1.05,0,1.89-.85,1.89-1.89v-1.88c0-1.05-.85-1.89-1.89-1.89h-7.55c-1.05,0-1.89,.85-1.89,1.89v1.88s0,.03,0,.05l-.03,.62c0,.52-.42,.94-.94,.94h-4.71v.29h7.51Z"/>
    <path d="M136.11,11.26h.05s0,0,0,0h7.55c1.05,0,1.89,.85,1.89,1.89v1.88c0,1.05-.85,1.89-1.89,1.89h-7.55c-1.05,0-1.89-.85-1.89-1.89v-1.88s0-.03,0-.05l-.03-.62c0-.52-.42-.94-.94-.94h-4.71v-.29h7.51Z"/>
    <g>
      <rect x="62.36" y="11.05" width="11.34" height="17.01" rx="1.89" ry="1.89"/>
      <path d="M49.19,22.39h-.05s0,0,0,0h-7.55c-1.05,0-1.89,.85-1.89,1.89v7.55c0,1.05,.85,1.89,1.89,1.89h7.55c1.05,0,1.89-.85,1.89-1.89v-7.55s0-.03,0-.05l.03-.62c0-.52,.42-.94,.94-.94h4.71v-.29h-7.51Z"/>
      <path d="M64.2,11.05h.05s0,0,0,0h7.55c1.05,0,1.89,.85,1.89,1.89v7.55c0,1.05-.85,1.89-1.89,1.89h-7.55c-1.05,0-1.89-.85-1.89-1.89v-7.55s0-.03,0-.05l-.03-.62c0-.52-.42-.94-.94-.94h-4.71v-.29h7.51Z"/>
      <path d="M64.2,33.73h.05s0,0,0,0h7.55c1.05,0,1.89-.85,1.89-1.89v-7.55c0-1.05-.85-1.89-1.89-1.89h-7.55c-1.05,0-1.89,.85-1.89,1.89v7.55s0,.03,0,.05l-.03,.62c0,.52-.42,.94-.94,.94h-4.71v.29h7.51Z"/>
      <path d="M64.13,22.68h.05s0,0,0,0h7.55c1.05,0,1.89-.85,1.89-1.89v-7.55c0-1.05-.85-1.89-1.89-1.89h-7.55c-1.05,0-1.89,.85-1.89,1.89v7.55s0,.03,0,.05l-.03,.62c0,.52-.42,.94-.94,.94h-4.71v.29h7.51Z"/>
      <path d="M49.19,33.73h-.05s0,0,0,0h-7.55c-1.05,0-1.89-.85-1.89-1.89v-7.55c0-1.05,.85-1.89,1.89-1.89h7.55c1.05,0,1.89,.85,1.89,1.89v7.55s0,.03,0,.05l.03,.62c0,.52,.42,.94,.94,.94h4.71v.29h-7.51Z"/>
      <path d="M49.19,11.05h-.05s0,0,0,0h-7.55c-1.05,0-1.89,.85-1.89,1.89v1.88c0,1.05,.85,1.89,1.89,1.89h7.55c1.05,0,1.89-.85,1.89-1.89v-1.88s0-.03,0-.05l.03-.62c0-.52,.42-.94,.94-.94h4.71v-.29h-7.51Z"/>
    </g>
    <rect x="22.68" y="11.34" width="11.34" height="17.01" rx="1.89" ry="1.89"/>
    <path d="M9.5,11.34h-.05s0,0,0,0H1.89C.85,11.34,0,12.19,0,13.23v7.55C0,21.83,.85,22.68,1.89,22.68h7.55c1.05,0,1.89-.85,1.89-1.89v-7.55s0-.03,0-.05l.03-.62c0-.52,.42-.94,.94-.94h4.71v-.29h-7.51Z"/>
    <path d="M24.51,11.34h.05s0,0,0,0h7.55c1.05,0,1.89,.85,1.89,1.89v7.55c0,1.05-.85,1.89-1.89,1.89h-7.55c-1.05,0-1.89-.85-1.89-1.89v-7.55s0-.03,0-.05l-.03-.62c0-.52-.42-.94-.94-.94h-4.71v-.29h7.51Z"/>
    <path d="M24.51,34.02h.05s0,0,0,0h7.55c1.05,0,1.89-.85,1.89-1.89v-7.55c0-1.05-.85-1.89-1.89-1.89h-7.55c-1.05,0-1.89,.85-1.89,1.89v7.55s0,.03,0,.05l-.03,.62c0,.52-.42,.94-.94,.94h-4.71v.29h7.51Z"/>
    <path d="M9.5,34.02h-.05s0,0,0,0H1.89c-1.05,0-1.89-.85-1.89-1.89v-7.55c0-1.05,.85-1.89,1.89-1.89h7.55c1.05,0,1.89,.85,1.89,1.89v7.55s0,.03,0,.05l.03,.62c0,.52,.42,.94,.94,.94h4.71v.29h-7.51Z"/>
    <rect width="11.34" height="28.35" rx="1.89" ry="1.89"/>
    <rect x="111.59" y="11.26" width="11.34" height="22.68" rx="1.89" ry="1.89"/>
    <g>
      <rect class="cls-1" x="157.17" y="22.39" width="25.96" height=".28"/>
      <path d="M176.02,22.68h.05s0,0,0,0h7.55c1.05,0,1.89-.85,1.89-1.89v-7.55c0-1.05-.85-1.89-1.89-1.89h-7.55c-1.05,0-1.89,.85-1.89,1.89v7.55s0,.03,0,.05l-.03,.62c0,.52-.42,.94-.94,.94h-4.71v.29h7.51Z"/>
      <path d="M161,11.34h-.05s0,0,0,0h-7.55c-1.05,0-1.89,.85-1.89,1.89v7.55c0,1.05,.85,1.89,1.89,1.89h7.55c1.05,0,1.89-.85,1.89-1.89v-7.55s0-.03,0-.05l.03-.62c0-.52,.42-.94,.94-.94h4.71v-.29h-7.51Z"/>
      <path d="M161,34.02h-.05s0,0,0,0h-7.55c-1.05,0-1.89-.85-1.89-1.89v-7.55c0-1.05,.85-1.89,1.89-1.89h7.55c1.05,0,1.89,.85,1.89,1.89v7.55s0,.03,0,.05l.03,.62c0,.52,.42,.94,.94,.94h4.71v.29h-7.51Z"/>
      <path d="M176.02,34.02h.05s0,0,0,0h7.55c1.05,0,1.89-.85,1.89-1.89v-1.88c0-1.05-.85-1.89-1.89-1.89h-7.55c-1.05,0-1.89,.85-1.89,1.89v1.88s0,.03,0,.05l-.03,.62c0,.52-.42,.94-.94,.94h-4.71v.29h7.51Z"/>
      <path d="M176.02,11.34h.05s0,0,0,0h7.55c1.05,0,1.89,.85,1.89,1.89v1.88c0,1.05-.85,1.89-1.89,1.89h-7.55c-1.05,0-1.89-.85-1.89-1.89v-1.88s0-.03,0-.05l-.03-.62c0-.52-.42-.94-.94-.94h-4.71v-.29h7.51Z"/>
      <rect x="151.5" y="11.34" width="11.34" height="22.68" rx="1.89" ry="1.89"/>
    </g>
    <rect x="190.26" y="0" width="11.34" height="34.02" rx="1.89" ry="1.89"/>
    <g>
      <rect x="207.97" y="11.34" width="11.34" height="17.01" rx="1.89" ry="1.89" transform="translate(427.28 39.69) rotate(180)"/>
      <path d="M232.49,11.34h.05s0,0,0,0h7.55c1.05,0,1.89,.85,1.89,1.89v7.55c0,1.05-.85,1.89-1.89,1.89h-7.55c-1.05,0-1.89-.85-1.89-1.89v-7.55s0-.03,0-.05l-.03-.62c0-.52-.42-.94-.94-.94h-4.71v-.29h7.51Z"/>
      <path d="M217.47,11.34h-.05s0,0,0,0h-7.55c-1.05,0-1.89,.85-1.89,1.89v7.55c0,1.05,.85,1.89,1.89,1.89h7.55c1.05,0,1.89-.85,1.89-1.89v-7.55s0-.03,0-.05l.03-.62c0-.52,.42-.94,.94-.94h4.71v-.29h-7.51Z"/>
      <path d="M217.47,34.02h-.05s0,0,0,0h-7.55c-1.05,0-1.89-.85-1.89-1.89v-7.55c0-1.05,.85-1.89,1.89-1.89h7.55c1.05,0,1.89,.85,1.89,1.89v7.55s0,.03,0,.05l.03,.62c0,.52,.42,.94,.94,.94h4.71v.29h-7.51Z"/>
      <path d="M232.49,34.02h.05s0,0,0,0h7.55c1.05,0,1.89-.85,1.89-1.89v-7.55c0-1.05-.85-1.89-1.89-1.89h-7.55c-1.05,0-1.89,.85-1.89,1.89v7.55s0,.03,0,.05l-.03,.62c0,.52-.42,.94-.94,.94h-4.71v.29h7.51Z"/>
      <rect x="230.65" y="11.34" width="11.34" height="17.01" rx="1.89" ry="1.89" transform="translate(472.64 39.69) rotate(180)"/>
    </g>
    <g>
      <rect class="cls-1" x="254.04" y="11.34" width="20.29" height=".28"/>
      <path d="M257.87,11.34h-.05s0,0,0,0h-7.55c-1.05,0-1.89,.85-1.89,1.89v7.55c0,1.05,.85,1.89,1.89,1.89h7.55c1.05,0,1.89-.85,1.89-1.89v-7.55s0-.03,0-.05l.03-.62c0-.52,.42-.94,.94-.94h4.71v-.29h-7.51Z"/>
      <path d="M267.21,11.34h.05s0,0,0,0h7.55c1.05,0,1.89,.85,1.89,1.89v1.88c0,1.05-.85,1.89-1.89,1.89h-7.55c-1.05,0-1.89-.85-1.89-1.89v-1.88s0-.03,0-.05l-.03-.62c0-.52-.42-.94-.94-.94h-4.71v-.29h7.51Z"/>
      <rect x="248.37" y="11.34" width="11.34" height="22.68" rx="1.89" ry="1.89"/>
      <rect x="265.37" y="11.34" width="11.34" height="22.68" rx="1.89" ry="1.89"/>
    </g>
    <g>
      <rect x="305.77" y="11.05" width="11.34" height="17.01" rx="1.89" ry="1.89"/>
      <path d="M292.59,22.39h-.05s0,0,0,0h-7.55c-1.05,0-1.89,.85-1.89,1.89v7.55c0,1.05,.85,1.89,1.89,1.89h7.55c1.05,0,1.89-.85,1.89-1.89v-7.55s0-.03,0-.05l.03-.62c0-.52,.42-.94,.94-.94h4.71v-.29h-7.51Z"/>
      <path d="M307.6,11.05h.05s0,0,0,0h7.55c1.05,0,1.89,.85,1.89,1.89v7.55c0,1.05-.85,1.89-1.89,1.89h-7.55c-1.05,0-1.89-.85-1.89-1.89v-7.55s0-.03,0-.05l-.03-.62c0-.52-.42-.94-.94-.94h-4.71v-.29h7.51Z"/>
      <path d="M307.6,33.73h.05s0,0,0,0h7.55c1.05,0,1.89-.85,1.89-1.89v-7.55c0-1.05-.85-1.89-1.89-1.89h-7.55c-1.05,0-1.89,.85-1.89,1.89v7.55s0,.03,0,.05l-.03,.62c0,.52-.42,.94-.94,.94h-4.71v.29h7.51Z"/>
      <path d="M307.54,22.68h.05s0,0,0,0h7.55c1.05,0,1.89-.85,1.89-1.89v-7.55c0-1.05-.85-1.89-1.89-1.89h-7.55c-1.05,0-1.89,.85-1.89,1.89v7.55s0,.03,0,.05l-.03,.62c0,.52-.42,.94-.94,.94h-4.71v.29h7.51Z"/>
      <path d="M292.59,33.73h-.05s0,0,0,0h-7.55c-1.05,0-1.89-.85-1.89-1.89v-7.55c0-1.05,.85-1.89,1.89-1.89h7.55c1.05,0,1.89,.85,1.89,1.89v7.55s0,.03,0,.05l.03,.62c0,.52,.42,.94,.94,.94h4.71v.29h-7.51Z"/>
      <path d="M292.59,11.05h-.05s0,0,0,0h-7.55c-1.05,0-1.89,.85-1.89,1.89v1.88c0,1.05,.85,1.89,1.89,1.89h7.55c1.05,0,1.89-.85,1.89-1.89v-1.88s0-.03,0-.05l.03-.62c0-.52,.42-.94,.94-.94h4.71v-.29h-7.51Z"/>
    </g>
    <line class="cls-2" x1=".3" y1="58.84" x2="563.1" y2="58.84"/>
    <rect x="64.23" y="87.82" width="11.34" height="17.01" rx="1.89" ry="1.89"/>
    <rect x="24.55" y="87.82" width="11.34" height="17.01" rx="1.89" ry="1.89"/>
    <rect class="cls-1" x="197.02" y="93.2" width="25.96" height=".28"/>
    <rect class="cls-1" x="166.28" y="98.87" width="25.96" height=".28"/>
    <path d="M209.8,76.48h-.05s0,0,0,0h-7.55c-1.05,0-1.89,.85-1.89,1.89v7.55c0,1.05,.85,1.89,1.89,1.89h7.55c1.05,0,1.89-.85,1.89-1.89v-7.55s0-.03,0-.05l.03-.62c0-.52,.42-.94,.94-.94h4.71v-.29h-7.51Z"/>
    <path d="M90.74,87.82h-.05s0,0,0,0h-7.55c-1.05,0-1.89,.85-1.89,1.89v7.55c0,1.05,.85,1.89,1.89,1.89h7.55c1.05,0,1.89-.85,1.89-1.89v-7.55s0-.03,0-.05l.03-.62c0-.52,.42-.94,.94-.94h4.71v-.29h-7.51Z"/>
    <path d="M11.37,99.16h-.05s0,0,0,0H3.76c-1.05,0-1.89,.85-1.89,1.89v7.55c0,1.05,.85,1.89,1.89,1.89h7.55c1.05,0,1.89-.85,1.89-1.89v-7.55s0-.03,0-.05l.03-.62c0-.52,.42-.94,.94-.94h4.71v-.29h-7.51Z"/>
    <path d="M26.38,87.82h.05s0,0,0,0h7.55c1.05,0,1.89,.85,1.89,1.89v7.55c0,1.05-.85,1.89-1.89,1.89h-7.55c-1.05,0-1.89-.85-1.89-1.89v-7.55s0-.03,0-.05l-.03-.62c0-.52-.42-.94-.94-.94h-4.71v-.29h7.51Z"/>
    <path d="M185.12,99.16h.05s0,0,0,0h7.55c1.05,0,1.89-.85,1.89-1.89v-7.55c0-1.05-.85-1.89-1.89-1.89h-7.55c-1.05,0-1.89,.85-1.89,1.89v7.55s0,.03,0,.05l-.03,.62c0,.52-.42,.94-.94,.94h-4.71v.29h7.51Z"/>
    <path d="M26.38,110.5h.05s0,0,0,0h7.55c1.05,0,1.89-.85,1.89-1.89v-7.55c0-1.05-.85-1.89-1.89-1.89h-7.55c-1.05,0-1.89,.85-1.89,1.89v7.55s0,.03,0,.05l-.03,.62c0,.52-.42,.94-.94,.94h-4.71v.29h7.51Z"/>
    <path d="M26.32,99.45h.05s0,0,0,0h7.55c1.05,0,1.89-.85,1.89-1.89v-7.55c0-1.05-.85-1.89-1.89-1.89h-7.55c-1.05,0-1.89,.85-1.89,1.89v7.55s0,.03,0,.05l-.03,.62c0,.52-.42,.94-.94,.94h-4.71v.29h7.51Z"/>
    <path d="M90.74,110.5h-.05s0,0,0,0h-7.55c-1.05,0-1.89-.85-1.89-1.89v-7.55c0-1.05,.85-1.89,1.89-1.89h7.55c1.05,0,1.89,.85,1.89,1.89v7.55s0,.03,0,.05l.03,.62c0,.52,.42,.94,.94,.94h4.71v.29h-7.51Z"/>
    <path d="M11.37,110.5h-.05s0,0,0,0H3.76c-1.05,0-1.89-.85-1.89-1.89v-7.55c0-1.05,.85-1.89,1.89-1.89h7.55c1.05,0,1.89,.85,1.89,1.89v7.55s0,.03,0,.05l.03,.62c0,.52,.42,.94,.94,.94h4.71v.29h-7.51Z"/>
    <path d="M238.14,121.83h-.05s0,0,0,0h-7.55c-1.05,0-1.89-.85-1.89-1.89v-1.88c0-1.05,.85-1.89,1.89-1.89h7.55c1.05,0,1.89,.85,1.89,1.89v1.88s0,.03,0,.05l.03,.62c0,.52,.42,.94,.94,.94h4.71v.29h-7.51Z"/>
    <path d="M253.16,121.83h.05s0,0,0,0h7.55c1.05,0,1.89-.85,1.89-1.89v-1.88c0-1.05-.85-1.89-1.89-1.89h-7.55c-1.05,0-1.89,.85-1.89,1.89v1.88s0,.03,0,.05l-.03,.62c0,.52-.42,.94-.94,.94h-4.71v.29h7.51Z"/>
    <path d="M105.75,110.5h.05s0,0,0,0h7.55c1.05,0,1.89-.85,1.89-1.89v-1.88c0-1.05-.85-1.89-1.89-1.89h-7.55c-1.05,0-1.89,.85-1.89,1.89v1.88s0,.03,0,.05l-.03,.62c0,.52-.42,.94-.94,.94h-4.71v.29h7.51Z"/>
    <path d="M219.14,76.48h.05s0,0,0,0h7.55c1.05,0,1.89,.85,1.89,1.89v1.88c0,1.05-.85,1.89-1.89,1.89h-7.55c-1.05,0-1.89-.85-1.89-1.89v-1.88s0-.03,0-.05l-.03-.62c0-.52-.42-.94-.94-.94h-4.71v-.29h7.51Z"/>
    <path d="M105.75,87.82h.05s0,0,0,0h7.55c1.05,0,1.89,.85,1.89,1.89v1.88c0,1.05-.85,1.89-1.89,1.89h-7.55c-1.05,0-1.89-.85-1.89-1.89v-1.88s0-.03,0-.05l-.03-.62c0-.52-.42-.94-.94-.94h-4.71v-.29h7.51Z"/>
    <path d="M11.37,87.82h-.05s0,0,0,0H3.76c-1.05,0-1.89,.85-1.89,1.89v1.88c0,1.05,.85,1.89,1.89,1.89h7.55c1.05,0,1.89-.85,1.89-1.89v-1.88s0-.03,0-.05l.03-.62c0-.52,.42-.94,.94-.94h4.71v-.29h-7.51Z"/>
    <path d="M51.05,87.82h-.05s0,0,0,0h-7.55c-1.05,0-1.89,.85-1.89,1.89v7.55c0,1.05,.85,1.89,1.89,1.89h7.55c1.05,0,1.89-.85,1.89-1.89v-7.55s0-.03,0-.05l.03-.62c0-.52,.42-.94,.94-.94h4.71v-.29h-7.51Z"/>
    <path d="M66.07,87.82h.05s0,0,0,0h7.55c1.05,0,1.89,.85,1.89,1.89v7.55c0,1.05-.85,1.89-1.89,1.89h-7.55c-1.05,0-1.89-.85-1.89-1.89v-7.55s0-.03,0-.05l-.03-.62c0-.52-.42-.94-.94-.94h-4.71v-.29h7.51Z"/>
    <path d="M66.07,110.5h.05s0,0,0,0h7.55c1.05,0,1.89-.85,1.89-1.89v-7.55c0-1.05-.85-1.89-1.89-1.89h-7.55c-1.05,0-1.89,.85-1.89,1.89v7.55s0,.03,0,.05l-.03,.62c0,.52-.42,.94-.94,.94h-4.71v.29h7.51Z"/>
    <path d="M51.05,110.5h-.05s0,0,0,0h-7.55c-1.05,0-1.89-.85-1.89-1.89v-7.55c0-1.05,.85-1.89,1.89-1.89h7.55c1.05,0,1.89,.85,1.89,1.89v7.55s0,.03,0,.05l.03,.62c0,.52,.42,.94,.94,.94h4.71v.29h-7.51Z"/>
    <rect x="41.55" y="76.48" width="11.34" height="28.35" rx="1.89" ry="1.89"/>
    <g>
      <rect x="291" y="93.49" width="11.34" height="17.01" rx="1.89" ry="1.89"/>
      <path d="M277.83,87.82h-.05s0,0,0,0h-7.55c-1.05,0-1.89,.85-1.89,1.89v7.55c0,1.05,.85,1.89,1.89,1.89h7.55c1.05,0,1.89-.85,1.89-1.89v-7.55s0-.03,0-.05l.03-.62c0-.52,.42-.94,.94-.94h4.71v-.29h-7.51Z"/>
      <path d="M292.84,87.82h.05s0,0,0,0h7.55c1.05,0,1.89,.85,1.89,1.89v7.55c0,1.05-.85,1.89-1.89,1.89h-7.55c-1.05,0-1.89-.85-1.89-1.89v-7.55s0-.03,0-.05l-.03-.62c0-.52-.42-.94-.94-.94h-4.71v-.29h7.51Z"/>
      <rect x="268.33" y="76.48" width="11.34" height="34.02" rx="1.89" ry="1.89"/>
    </g>
    <rect x="200.29" y="76.48" width="11.34" height="34.02" rx="1.89" ry="1.89"/>
    <rect x="81.24" y="87.82" width="11.34" height="22.68" rx="1.89" ry="1.89"/>
    <path d="M238.14,87.82h-.05s0,0,0,0h-7.55c-1.05,0-1.89,.85-1.89,1.89v7.55c0,1.05,.85,1.89,1.89,1.89h7.55c1.05,0,1.89-.85,1.89-1.89v-7.55s0-.03,0-.05l.03-.62c0-.52,.42-.94,.94-.94h4.71v-.29h-7.51Z"/>
    <path d="M238.14,110.5h-.05s0,0,0,0h-7.55c-1.05,0-1.89-.85-1.89-1.89v-7.55c0-1.05,.85-1.89,1.89-1.89h7.55c1.05,0,1.89,.85,1.89,1.89v7.55s0,.03,0,.05l.03,.62c0,.52,.42,.94,.94,.94h4.71v.29h-7.51Z"/>
    <path d="M253.16,110.5h.05s0,0,0,0h7.55c1.05,0,1.89-.85,1.89-1.89v-1.88c0-1.05-.85-1.89-1.89-1.89h-7.55c-1.05,0-1.89,.85-1.89,1.89v1.88s0,.03,0,.05l-.03,.62c0,.52-.42,.94-.94,.94h-4.71v.29h7.51Z"/>
    <path d="M253.16,87.82h.05s0,0,0,0h7.55c1.05,0,1.89,.85,1.89,1.89v1.88c0,1.05-.85,1.89-1.89,1.89h-7.55c-1.05,0-1.89-.85-1.89-1.89v-1.88s0-.03,0-.05l-.03-.62c0-.52-.42-.94-.94-.94h-4.71v-.29h7.51Z"/>
    <rect x="228.64" y="87.82" width="11.34" height="22.68" rx="1.89" ry="1.89"/>
    <path d="M170.11,87.82h-.05s0,0,0,0h-7.55c-1.05,0-1.89,.85-1.89,1.89v7.55c0,1.05,.85,1.89,1.89,1.89h7.55c1.05,0,1.89-.85,1.89-1.89v-7.55s0-.03,0-.05l.03-.62c0-.52,.42-.94,.94-.94h4.71v-.29h-7.51Z"/>
    <path d="M170.11,110.5h-.05s0,0,0,0h-7.55c-1.05,0-1.89-.85-1.89-1.89v-7.55c0-1.05,.85-1.89,1.89-1.89h7.55c1.05,0,1.89,.85,1.89,1.89v7.55s0,.03,0,.05l.03,.62c0,.52,.42,.94,.94,.94h4.71v.29h-7.51Z"/>
    <path d="M185.12,110.5h.05s0,0,0,0h7.55c1.05,0,1.89-.85,1.89-1.89v-1.88c0-1.05-.85-1.89-1.89-1.89h-7.55c-1.05,0-1.89,.85-1.89,1.89v1.88s0,.03,0,.05l-.03,.62c0,.52-.42,.94-.94,.94h-4.71v.29h7.51Z"/>
    <path d="M185.12,87.82h.05s0,0,0,0h7.55c1.05,0,1.89,.85,1.89,1.89v1.88c0,1.05-.85,1.89-1.89,1.89h-7.55c-1.05,0-1.89-.85-1.89-1.89v-1.88s0-.03,0-.05l-.03-.62c0-.52-.42-.94-.94-.94h-4.71v-.29h7.51Z"/>
    <rect x="160.61" y="87.82" width="11.34" height="22.68" rx="1.89" ry="1.89"/>
    <rect x="251.32" y="87.82" width="11.34" height="22.68" rx="1.89" ry="1.89"/>
    <rect x="251.32" y="87.82" width="11.34" height="34.02" rx="1.89" ry="1.89"/>
    <rect x="308.01" y="87.82" width="11.34" height="22.68" rx="1.89" ry="1.89"/>
    <rect x="120.92" y="87.82" width="11.34" height="17.01" rx="1.89" ry="1.89" transform="translate(253.19 192.65) rotate(180)"/>
    <path d="M145.44,87.82h.05s0,0,0,0h7.55c1.05,0,1.89,.85,1.89,1.89v7.55c0,1.05-.85,1.89-1.89,1.89h-7.55c-1.05,0-1.89-.85-1.89-1.89v-7.55s0-.03,0-.05l-.03-.62c0-.52-.42-.94-.94-.94h-4.71v-.29h7.51Z"/>
    <path d="M130.43,87.82h-.05s0,0,0,0h-7.55c-1.05,0-1.89,.85-1.89,1.89v7.55c0,1.05,.85,1.89,1.89,1.89h7.55c1.05,0,1.89-.85,1.89-1.89v-7.55s0-.03,0-.05l.03-.62c0-.52,.42-.94,.94-.94h4.71v-.29h-7.51Z"/>
    <path d="M130.43,110.5h-.05s0,0,0,0h-7.55c-1.05,0-1.89-.85-1.89-1.89v-7.55c0-1.05,.85-1.89,1.89-1.89h7.55c1.05,0,1.89,.85,1.89,1.89v7.55s0,.03,0,.05l.03,.62c0,.52,.42,.94,.94,.94h4.71v.29h-7.51Z"/>
    <path d="M145.44,110.5h.05s0,0,0,0h7.55c1.05,0,1.89-.85,1.89-1.89v-7.55c0-1.05-.85-1.89-1.89-1.89h-7.55c-1.05,0-1.89,.85-1.89,1.89v7.55s0,.03,0,.05l-.03,.62c0,.52-.42,.94-.94,.94h-4.71v.29h7.51Z"/>
    <rect x="143.6" y="76.48" width="11.34" height="28.35" rx="1.89" ry="1.89" transform="translate(298.54 181.31) rotate(180)"/>
    <rect class="cls-1" x="308.01" y="76.48" width="11.34" height="5.67" rx="1.86" ry="1.86"/>
    <rect class="cls-1" x="325.02" y="76.48" width="11.34" height="5.67" rx="1.86" ry="1.86"/>
    <path d="M317.51,121.83h-.05s0,0,0,0h-7.55c-1.05,0-1.89-.85-1.89-1.89v-1.88c0-1.05,.85-1.89,1.89-1.89h7.55c1.05,0,1.89,.85,1.89,1.89v1.88s0,.03,0,.05l.03,.62c0,.52,.42,.94,.94,.94h4.71v.29h-7.51Z"/>
    <path d="M326.86,121.83h.05s0,0,0,0h7.55c1.05,0,1.89-.85,1.89-1.89v-1.88c0-1.05-.85-1.89-1.89-1.89h-7.55c-1.05,0-1.89,.85-1.89,1.89v1.88s0,.03,0,.05l-.03,.62c0,.52-.42,.94-.94,.94h-4.71v.29h7.51Z"/>
    <rect x="325.02" y="87.82" width="11.34" height="34.02" rx="1.89" ry="1.89"/>
    <rect class="cls-1" x="400.12" y="88.01" width="25.96" height=".28"/>
    <rect class="cls-1" x="150.95" y="134.04" width="25.96" height=".28"/>
    <path d="M424.24,88.01h-.05s0,0,0,0h-7.55c-1.05,0-1.89,.85-1.89,1.89v7.55c0,1.05,.85,1.89,1.89,1.89h7.55c1.05,0,1.89-.85,1.89-1.89v-7.55s0-.03,0-.05l.03-.62c0-.52,.42-.94,.94-.94h4.71v-.29h-7.51Z"/>
    <path d="M407.23,88.01h-.05s0,0,0,0h-7.55c-1.05,0-1.89,.85-1.89,1.89v7.55c0,1.05,.85,1.89,1.89,1.89h7.55c1.05,0,1.89-.85,1.89-1.89v-7.55s0-.03,0-.05l.03-.62c0-.52,.42-.94,.94-.94h4.71v-.29h-7.51Z"/>
    <path d="M139.06,145.67h.05s0,0,0,0h7.55c1.05,0,1.89,.85,1.89,1.89v7.55c0,1.05-.85,1.89-1.89,1.89h-7.55c-1.05,0-1.89-.85-1.89-1.89v-7.55s0-.03,0-.05l-.03-.62c0-.52-.42-.94-.94-.94h-4.71v-.29h7.51Z"/>
    <path d="M139.06,157h.05s0,0,0,0h7.55c1.05,0,1.89-.85,1.89-1.89v-7.55c0-1.05-.85-1.89-1.89-1.89h-7.55c-1.05,0-1.89,.85-1.89,1.89v7.55s0,.03,0,.05l-.03,.62c0,.52-.42,.94-.94,.94h-4.71v.29h7.51Z"/>
    <path d="M124.05,145.67h-.05s0,0,0,0h-7.55c-1.05,0-1.89-.85-1.89-1.89v-7.55c0-1.05,.85-1.89,1.89-1.89h7.55c1.05,0,1.89,.85,1.89,1.89v7.55s0,.03,0,.05l.03,.62c0,.52,.42,.94,.94,.94h4.71v.29h-7.51Z"/>
    <path d="M124.05,157h-.05s0,0,0,0h-7.55c-1.05,0-1.89-.85-1.89-1.89v-1.88c0-1.05,.85-1.89,1.89-1.89h7.55c1.05,0,1.89,.85,1.89,1.89v1.88s0,.03,0,.05l.03,.62c0,.52,.42,.94,.94,.94h4.71v.29h-7.51Z"/>
    <path d="M173.08,157h.05s0,0,0,0h7.55c1.05,0,1.89-.85,1.89-1.89v-1.88c0-1.05-.85-1.89-1.89-1.89h-7.55c-1.05,0-1.89,.85-1.89,1.89v1.88s0,.03,0,.05l-.03,.62c0,.52-.42,.94-.94,.94h-4.71v.29h7.51Z"/>
    <path d="M433.59,88.01h.05s0,0,0,0h7.55c1.05,0,1.89,.85,1.89,1.89v1.88c0,1.05-.85,1.89-1.89,1.89h-7.55c-1.05,0-1.89-.85-1.89-1.89v-1.88s0-.03,0-.05l-.03-.62c0-.52-.42-.94-.94-.94h-4.71v-.29h7.51Z"/>
    <path d="M416.58,88.01h.05s0,0,0,0h7.55c1.05,0,1.89,.85,1.89,1.89v1.88c0,1.05-.85,1.89-1.89,1.89h-7.55c-1.05,0-1.89-.85-1.89-1.89v-1.88s0-.03,0-.05l-.03-.62c0-.52-.42-.94-.94-.94h-4.71v-.29h7.51Z"/>
    <rect x="380.72" y="76.67" width="11.34" height="34.02" rx="1.89" ry="1.89"/>
    <rect x="397.73" y="88.01" width="11.34" height="22.68" rx="1.89" ry="1.89"/>
    <rect x="414.74" y="88.01" width="11.34" height="22.68" rx="1.89" ry="1.89"/>
    <rect x="431.75" y="88.01" width="11.34" height="22.68" rx="1.89" ry="1.89"/>
    <g>
      <rect class="cls-1" x="454.43" y="88.01" width="20.29" height=".28"/>
      <path d="M458.26,88.01h-.05s0,0,0,0h-7.55c-1.05,0-1.89,.85-1.89,1.89v7.55c0,1.05,.85,1.89,1.89,1.89h7.55c1.05,0,1.89-.85,1.89-1.89v-7.55s0-.03,0-.05l.03-.62c0-.52,.42-.94,.94-.94h4.71v-.29h-7.51Z"/>
      <path d="M467.6,88.01h.05s0,0,0,0h7.55c1.05,0,1.89,.85,1.89,1.89v1.88c0,1.05-.85,1.89-1.89,1.89h-7.55c-1.05,0-1.89-.85-1.89-1.89v-1.88s0-.03,0-.05l-.03-.62c0-.52-.42-.94-.94-.94h-4.71v-.29h7.51Z"/>
      <rect x="448.76" y="88.01" width="11.34" height="22.68" rx="1.89" ry="1.89"/>
      <rect x="465.76" y="88.01" width="11.34" height="22.68" rx="1.89" ry="1.89"/>
    </g>
    <rect class="cls-1" x="86.2" y="134.33" width="20.29" height=".28"/>
    <path d="M90.03,134.33h-.05s0,0,0,0h-7.55c-1.05,0-1.89,.85-1.89,1.89v7.55c0,1.05,.85,1.89,1.89,1.89h7.55c1.05,0,1.89-.85,1.89-1.89v-7.55s0-.03,0-.05l.03-.62c0-.52,.42-.94,.94-.94h4.71v-.29h-7.51Z"/>
    <path d="M99.38,134.33h.05s0,0,0,0h7.55c1.05,0,1.89,.85,1.89,1.89v1.88c0,1.05-.85,1.89-1.89,1.89h-7.55c-1.05,0-1.89-.85-1.89-1.89v-1.88s0-.03,0-.05l-.03-.62c0-.52-.42-.94-.94-.94h-4.71v-.29h7.51Z"/>
    <rect x="80.53" y="134.33" width="11.34" height="22.68" rx="1.89" ry="1.89"/>
    <rect class="cls-1" x="125.88" y="134.33" width="20.29" height=".28"/>
    <path d="M124.05,134.33h-.05s0,0,0,0h-7.55c-1.05,0-1.89,.85-1.89,1.89v7.55c0,1.05,.85,1.89,1.89,1.89h7.55c1.05,0,1.89-.85,1.89-1.89v-7.55s0-.03,0-.05l.03-.62c0-.52,.42-.94,.94-.94h4.71v-.29h-7.51Z"/>
    <path d="M139.06,134.33h.05s0,0,0,0h7.55c1.05,0,1.89,.85,1.89,1.89v1.88c0,1.05-.85,1.89-1.89,1.89h-7.55c-1.05,0-1.89-.85-1.89-1.89v-1.88s0-.03,0-.05l-.03-.62c0-.52-.42-.94-.94-.94h-4.71v-.29h7.51Z"/>
    <rect x="23.84" y="140" width="11.34" height="17.01" rx="1.89" ry="1.89"/>
    <path d="M10.66,157h-.05s0,0,0,0H3.06c-1.05,0-1.89-.85-1.89-1.89v-7.55c0-1.05,.85-1.89,1.89-1.89h7.55c1.05,0,1.89,.85,1.89,1.89v7.55s0,.03,0,.05l.03,.62c0,.52,.42,.94,.94,.94h4.71v.29h-7.51Z"/>
    <path d="M25.67,157h.05s0,0,0,0h7.55c1.05,0,1.89-.85,1.89-1.89v-7.55c0-1.05-.85-1.89-1.89-1.89h-7.55c-1.05,0-1.89,.85-1.89,1.89v7.55s0,.03,0,.05l-.03,.62c0,.52-.42,.94-.94,.94h-4.71v.29h7.51Z"/>
    <path d="M25.67,134.33h.05s0,0,0,0h7.55c1.05,0,1.89,.85,1.89,1.89v7.55c0,1.05-.85,1.89-1.89,1.89h-7.55c-1.05,0-1.89-.85-1.89-1.89v-7.55s0-.03,0-.05l-.03-.62c0-.52-.42-.94-.94-.94h-4.71v-.29h7.51Z"/>
    <path d="M10.66,134.33h-.05s0,0,0,0H3.06c-1.05,0-1.89,.85-1.89,1.89v7.55c0,1.05,.85,1.89,1.89,1.89h7.55c1.05,0,1.89-.85,1.89-1.89v-7.55s0-.03,0-.05l.03-.62c0-.52,.42-.94,.94-.94h4.71v-.29h-7.51Z"/>
    <rect x="1.16" y="140" width="11.34" height="28.35" rx="1.89" ry="1.89"/>
    <rect x="40.85" y="140" width="11.34" height="17.01" rx="1.89" ry="1.89" transform="translate(93.03 297) rotate(180)"/>
    <path d="M65.36,157h.05s0,0,0,0h7.55c1.05,0,1.89-.85,1.89-1.89v-7.55c0-1.05-.85-1.89-1.89-1.89h-7.55c-1.05,0-1.89,.85-1.89,1.89v7.55s0,.03,0,.05l-.03,.62c0,.52-.42,.94-.94,.94h-4.71v.29h7.51Z"/>
    <path d="M50.35,157h-.05s0,0,0,0h-7.55c-1.05,0-1.89-.85-1.89-1.89v-7.55c0-1.05,.85-1.89,1.89-1.89h7.55c1.05,0,1.89,.85,1.89,1.89v7.55s0,.03,0,.05l.03,.62c0,.52,.42,.94,.94,.94h4.71v.29h-7.51Z"/>
    <path d="M50.35,134.33h-.05s0,0,0,0h-7.55c-1.05,0-1.89,.85-1.89,1.89v7.55c0,1.05,.85,1.89,1.89,1.89h7.55c1.05,0,1.89-.85,1.89-1.89v-7.55s0-.03,0-.05l.03-.62c0-.52,.42-.94,.94-.94h4.71v-.29h-7.51Z"/>
    <path d="M65.36,134.33h.05s0,0,0,0h7.55c1.05,0,1.89,.85,1.89,1.89v7.55c0,1.05-.85,1.89-1.89,1.89h-7.55c-1.05,0-1.89-.85-1.89-1.89v-7.55s0-.03,0-.05l-.03-.62c0-.52-.42-.94-.94-.94h-4.71v-.29h7.51Z"/>
    <rect x="63.52" y="140" width="11.34" height="28.35" rx="1.89" ry="1.89" transform="translate(138.38 308.34) rotate(180)"/>
    <rect x="482.77" y="88.01" width="11.34" height="17.01" rx="1.89" ry="1.89" transform="translate(976.88 193.03) rotate(180)"/>
    <path d="M507.29,88.01h.05s0,0,0,0h7.55c1.05,0,1.89,.85,1.89,1.89v7.55c0,1.05-.85,1.89-1.89,1.89h-7.55c-1.05,0-1.89-.85-1.89-1.89v-7.55s0-.03,0-.05l-.03-.62c0-.52-.42-.94-.94-.94h-4.71v-.29h7.51Z"/>
    <path d="M492.27,88.01h-.05s0,0,0,0h-7.55c-1.05,0-1.89,.85-1.89,1.89v7.55c0,1.05,.85,1.89,1.89,1.89h7.55c1.05,0,1.89-.85,1.89-1.89v-7.55s0-.03,0-.05l.03-.62c0-.52,.42-.94,.94-.94h4.71v-.29h-7.51Z"/>
    <path d="M492.27,110.69h-.05s0,0,0,0h-7.55c-1.05,0-1.89-.85-1.89-1.89v-7.55c0-1.05,.85-1.89,1.89-1.89h7.55c1.05,0,1.89,.85,1.89,1.89v7.55s0,.03,0,.05l.03,.62c0,.52,.42,.94,.94,.94h4.71v.29h-7.51Z"/>
    <path d="M507.29,110.69h.05s0,0,0,0h7.55c1.05,0,1.89-.85,1.89-1.89v-7.55c0-1.05-.85-1.89-1.89-1.89h-7.55c-1.05,0-1.89,.85-1.89,1.89v7.55s0,.03,0,.05l-.03,.62c0,.52-.42,.94-.94,.94h-4.71v.29h7.51Z"/>
    <rect x="505.45" y="88.01" width="11.34" height="17.01" rx="1.89" ry="1.89" transform="translate(1022.24 193.03) rotate(180)"/>
    <rect x="188.25" y="134.33" width="11.34" height="17.01" rx="1.89" ry="1.89" transform="translate(387.83 285.66) rotate(180)"/>
    <path d="M212.76,134.33h.05s0,0,0,0h7.55c1.05,0,1.89,.85,1.89,1.89v7.55c0,1.05-.85,1.89-1.89,1.89h-7.55c-1.05,0-1.89-.85-1.89-1.89v-7.55s0-.03,0-.05l-.03-.62c0-.52-.42-.94-.94-.94h-4.71v-.29h7.51Z"/>
    <path d="M197.75,134.33h-.05s0,0,0,0h-7.55c-1.05,0-1.89,.85-1.89,1.89v7.55c0,1.05,.85,1.89,1.89,1.89h7.55c1.05,0,1.89-.85,1.89-1.89v-7.55s0-.03,0-.05l.03-.62c0-.52,.42-.94,.94-.94h4.71v-.29h-7.51Z"/>
    <path d="M197.75,157h-.05s0,0,0,0h-7.55c-1.05,0-1.89-.85-1.89-1.89v-7.55c0-1.05,.85-1.89,1.89-1.89h7.55c1.05,0,1.89,.85,1.89,1.89v7.55s0,.03,0,.05l.03,.62c0,.52,.42,.94,.94,.94h4.71v.29h-7.51Z"/>
    <path d="M212.76,157h.05s0,0,0,0h7.55c1.05,0,1.89-.85,1.89-1.89v-7.55c0-1.05-.85-1.89-1.89-1.89h-7.55c-1.05,0-1.89,.85-1.89,1.89v7.55s0,.03,0,.05l-.03,.62c0,.52-.42,.94-.94,.94h-4.71v.29h7.51Z"/>
    <rect x="210.92" y="134.33" width="11.34" height="17.01" rx="1.89" ry="1.89" transform="translate(433.19 285.66) rotate(180)"/>
    <path d="M163.73,157h-.05s0,0,0,0h-7.55c-1.05,0-1.89-.85-1.89-1.89v-7.55c0-1.05,.85-1.89,1.89-1.89h7.55c1.05,0,1.89,.85,1.89,1.89v7.55s0,.03,0,.05l.03,.62c0,.52,.42,.94,.94,.94h4.71v.29h-7.51Z"/>
    <rect x="154.23" y="122.99" width="11.34" height="34.02" rx="1.89" ry="1.89"/>
    <path class="cls-1" d="M364.66,99.35h3.74c1.06,0,1.93,.82,1.93,1.83v7.11c0,1.01-.86,1.83-1.93,1.83h-7.48c-1.06,0-1.93-.82-1.93-1.83v-2.8c0-.42,0-4.06-.11-5.24-.02-.22-.25-.56-.49-.6l-5.08-.08v-.24"/>
    <path class="cls-1" d="M347.65,99.35h-3.74c-1.06,0-1.93,.86-1.93,1.93v7.48c0,1.06,.86,1.93,1.93,1.93h6.8c1.44,0,2.61-1.17,2.61-2.61v-2.26c0-.44,0-4.27,.11-5.51,.02-.23,.25-.59,.49-.63l5.08-.08v-.25"/>
    <rect class="cls-1" x="341.98" y="76.67" width="11.4" height="20.61" rx="1.7" ry="1.7" transform="translate(695.37 173.96) rotate(180)"/>
    <rect class="cls-1" x="341.92" y="82.34" width="11.4" height="20.61" rx="1.7" ry="1.7" transform="translate(695.25 185.3) rotate(180)"/>
    <rect class="cls-1" x="364.66" y="76.67" width="11.4" height="17.01" rx="1.7" ry="1.7" transform="translate(740.72 170.35) rotate(180)"/>
    <path class="cls-1" d="M370.33,93.68h3.74c1.06,0,1.93-.86,1.93-1.93v-7.48c0-1.06-.86-1.93-1.93-1.93h-7.48c-1.06,0-1.93,.86-1.93,1.93v2.94c0,.44,0,4.27-.11,5.51-.02,.23-.25,.59-.49,.63l-5.08,.08v.25"/>
    <rect class="cls-1" x="361.8" y="96.54" width="11.4" height="17.01" rx="1.7" ry="1.7" transform="translate(262.45 472.54) rotate(-90)"/>
    <rect class="cls-1" x="344.41" y="93.4" width="25.96" height=".28"/>
  </g>
</svg>