<?xml version="1.0" encoding="UTF-8"?>
<svg id="Calque_2" data-name="Calque 2" xmlns="http://www.w3.org/2000/svg" viewBox="0 0 442.2 425.2">
  <defs>
    <style>
      .cls-1 {
        fill: #1d1d1b;
      }
    </style>
  </defs>
  <g id="Calque_1-2" data-name="Calque 1">
    <g>
      <g>
        <rect x="226.77" y="391.18" width="11.34" height="17.01" rx="1.89" ry="1.89"/>
        <path d="M213.6,402.52h-.05s0,0,0,0h-7.55c-1.05,0-1.89,.85-1.89,1.89v7.55c0,1.05,.85,1.89,1.89,1.89h7.55c1.05,0,1.89-.85,1.89-1.89v-7.55s0-.03,0-.05l.03-.62c0-.52,.42-.94,.94-.94h4.71v-.29h-7.51Z"/>
        <path d="M228.61,391.18h.05s0,0,0,0h7.55c1.05,0,1.89,.85,1.89,1.89v7.55c0,1.05-.85,1.89-1.89,1.89h-7.55c-1.05,0-1.89-.85-1.89-1.89v-7.55s0-.03,0-.05l-.03-.62c0-.52-.42-.94-.94-.94h-4.71v-.29h7.51Z"/>
        <path d="M228.61,413.86h.05s0,0,0,0h7.55c1.05,0,1.89-.85,1.89-1.89v-7.55c0-1.05-.85-1.89-1.89-1.89h-7.55c-1.05,0-1.89,.85-1.89,1.89v7.55s0,.03,0,.05l-.03,.62c0,.52-.42,.94-.94,.94h-4.71v.29h7.51Z"/>
        <path d="M228.54,402.81h.05s0,0,0,0h7.55c1.05,0,1.89-.85,1.89-1.89v-7.55c0-1.05-.85-1.89-1.89-1.89h-7.55c-1.05,0-1.89,.85-1.89,1.89v7.55s0,.03,0,.05l-.03,.62c0,.52-.42,.94-.94,.94h-4.71v.29h7.51Z"/>
        <path d="M213.6,413.86h-.05s0,0,0,0h-7.55c-1.05,0-1.89-.85-1.89-1.89v-7.55c0-1.05,.85-1.89,1.89-1.89h7.55c1.05,0,1.89,.85,1.89,1.89v7.55s0,.03,0,.05l.03,.62c0,.52,.42,.94,.94,.94h4.71v.29h-7.51Z"/>
        <path d="M213.6,391.18h-.05s0,0,0,0h-7.55c-1.05,0-1.89,.85-1.89,1.89v1.88c0,1.05,.85,1.89,1.89,1.89h7.55c1.05,0,1.89-.85,1.89-1.89v-1.88s0-.03,0-.05l.03-.62c0-.52,.42-.94,.94-.94h4.71v-.29h-7.51Z"/>
      </g>
      <g>
        <rect x="28.35" y="391.18" width="11.34" height="17.01" rx="1.89" ry="1.89"/>
        <path d="M15.17,391.18h-.05s0,0,0,0H7.56c-1.05,0-1.89,.85-1.89,1.89v7.55c0,1.05,.85,1.89,1.89,1.89h7.55c1.05,0,1.89-.85,1.89-1.89v-7.55s0-.03,0-.05l.03-.62c0-.52,.42-.94,.94-.94h4.71v-.29h-7.51Z"/>
        <path d="M30.18,391.18h.05s0,0,0,0h7.55c1.05,0,1.89,.85,1.89,1.89v7.55c0,1.05-.85,1.89-1.89,1.89h-7.55c-1.05,0-1.89-.85-1.89-1.89v-7.55s0-.03,0-.05l-.03-.62c0-.52-.42-.94-.94-.94h-4.71v-.29h7.51Z"/>
        <path d="M30.18,413.86h.05s0,0,0,0h7.55c1.05,0,1.89-.85,1.89-1.89v-7.55c0-1.05-.85-1.89-1.89-1.89h-7.55c-1.05,0-1.89,.85-1.89,1.89v7.55s0,.03,0,.05l-.03,.62c0,.52-.42,.94-.94,.94h-4.71v.29h7.51Z"/>
        <path d="M15.17,413.86h-.05s0,0,0,0H7.56c-1.05,0-1.89-.85-1.89-1.89v-7.55c0-1.05,.85-1.89,1.89-1.89h7.55c1.05,0,1.89,.85,1.89,1.89v7.55s0,.03,0,.05l.03,.62c0,.52,.42,.94,.94,.94h4.71v.29h-7.51Z"/>
        <rect x="5.67" y="379.84" width="11.34" height="28.35" rx="1.89" ry="1.89"/>
      </g>
      <g>
        <rect class="cls-1" x="130.39" y="402.24" width="25.96" height=".28"/>
        <path d="M149.24,402.52h.05s0,0,0,0h7.55c1.05,0,1.89-.85,1.89-1.89v-7.55c0-1.05-.85-1.89-1.89-1.89h-7.55c-1.05,0-1.89,.85-1.89,1.89v7.55s0,.03,0,.05l-.03,.62c0,.52-.42,.94-.94,.94h-4.71v.29h7.51Z"/>
        <path d="M134.23,391.18h-.05s0,0,0,0h-7.55c-1.05,0-1.89,.85-1.89,1.89v7.55c0,1.05,.85,1.89,1.89,1.89h7.55c1.05,0,1.89-.85,1.89-1.89v-7.55s0-.03,0-.05l.03-.62c0-.52,.42-.94,.94-.94h4.71v-.29h-7.51Z"/>
        <path d="M134.23,413.86h-.05s0,0,0,0h-7.55c-1.05,0-1.89-.85-1.89-1.89v-7.55c0-1.05,.85-1.89,1.89-1.89h7.55c1.05,0,1.89,.85,1.89,1.89v7.55s0,.03,0,.05l.03,.62c0,.52,.42,.94,.94,.94h4.71v.29h-7.51Z"/>
        <path d="M149.24,413.86h.05s0,0,0,0h7.55c1.05,0,1.89-.85,1.89-1.89v-1.88c0-1.05-.85-1.89-1.89-1.89h-7.55c-1.05,0-1.89,.85-1.89,1.89v1.88s0,.03,0,.05l-.03,.62c0,.52-.42,.94-.94,.94h-4.71v.29h7.51Z"/>
        <path d="M149.24,391.18h.05s0,0,0,0h7.55c1.05,0,1.89,.85,1.89,1.89v1.88c0,1.05-.85,1.89-1.89,1.89h-7.55c-1.05,0-1.89-.85-1.89-1.89v-1.88s0-.03,0-.05l-.03-.62c0-.52-.42-.94-.94-.94h-4.71v-.29h7.51Z"/>
        <rect x="124.72" y="391.18" width="11.34" height="22.68" rx="1.89" ry="1.89"/>
      </g>
      <g>
        <path d="M173.91,425.2h-.05s0,0,0,0h-7.55c-1.05,0-1.89-.85-1.89-1.89v-1.88c0-1.05,.85-1.89,1.89-1.89h7.55c1.05,0,1.89,.85,1.89,1.89v1.88s0,.03,0,.05l.03,.62c0,.52,.42,.94,.94,.94h4.71v.29h-7.51Z"/>
        <path d="M188.92,425.2h.05s0,0,0,0h7.55c1.05,0,1.89-.85,1.89-1.89v-1.88c0-1.05-.85-1.89-1.89-1.89h-7.55c-1.05,0-1.89,.85-1.89,1.89v1.88s0,.03,0,.05l-.03,.62c0,.52-.42,.94-.94,.94h-4.71v.29h7.51Z"/>
        <path d="M173.91,391.18h-.05s0,0,0,0h-7.55c-1.05,0-1.89,.85-1.89,1.89v7.55c0,1.05,.85,1.89,1.89,1.89h7.55c1.05,0,1.89-.85,1.89-1.89v-7.55s0-.03,0-.05l.03-.62c0-.52,.42-.94,.94-.94h4.71v-.29h-7.51Z"/>
        <path d="M173.91,413.86h-.05s0,0,0,0h-7.55c-1.05,0-1.89-.85-1.89-1.89v-7.55c0-1.05,.85-1.89,1.89-1.89h7.55c1.05,0,1.89,.85,1.89,1.89v7.55s0,.03,0,.05l.03,.62c0,.52,.42,.94,.94,.94h4.71v.29h-7.51Z"/>
        <path d="M188.92,413.86h.05s0,0,0,0h7.55c1.05,0,1.89-.85,1.89-1.89v-1.88c0-1.05-.85-1.89-1.89-1.89h-7.55c-1.05,0-1.89,.85-1.89,1.89v1.88s0,.03,0,.05l-.03,.62c0,.52-.42,.94-.94,.94h-4.71v.29h7.51Z"/>
        <path d="M188.92,391.18h.05s0,0,0,0h7.55c1.05,0,1.89,.85,1.89,1.89v1.88c0,1.05-.85,1.89-1.89,1.89h-7.55c-1.05,0-1.89-.85-1.89-1.89v-1.88s0-.03,0-.05l-.03-.62c0-.52-.42-.94-.94-.94h-4.71v-.29h7.51Z"/>
        <rect x="164.41" y="391.18" width="11.34" height="22.68" rx="1.89" ry="1.89"/>
        <rect x="187.09" y="391.18" width="11.34" height="22.68" rx="1.89" ry="1.89"/>
        <rect x="187.09" y="391.18" width="11.34" height="34.02" rx="1.89" ry="1.89"/>
      </g>
      <g>
        <rect x="85.04" y="391.18" width="11.34" height="17.01" rx="1.89" ry="1.89" transform="translate(181.42 799.37) rotate(180)"/>
        <path d="M109.55,391.18h.05s0,0,0,0h7.55c1.05,0,1.89,.85,1.89,1.89v7.55c0,1.05-.85,1.89-1.89,1.89h-7.55c-1.05,0-1.89-.85-1.89-1.89v-7.55s0-.03,0-.05l-.03-.62c0-.52-.42-.94-.94-.94h-4.71v-.29h7.51Z"/>
        <path d="M94.54,391.18h-.05s0,0,0,0h-7.55c-1.05,0-1.89,.85-1.89,1.89v7.55c0,1.05,.85,1.89,1.89,1.89h7.55c1.05,0,1.89-.85,1.89-1.89v-7.55s0-.03,0-.05l.03-.62c0-.52,.42-.94,.94-.94h4.71v-.29h-7.51Z"/>
        <path d="M94.54,413.86h-.05s0,0,0,0h-7.55c-1.05,0-1.89-.85-1.89-1.89v-7.55c0-1.05,.85-1.89,1.89-1.89h7.55c1.05,0,1.89,.85,1.89,1.89v7.55s0,.03,0,.05l.03,.62c0,.52,.42,.94,.94,.94h4.71v.29h-7.51Z"/>
        <path d="M109.55,413.86h.05s0,0,0,0h7.55c1.05,0,1.89-.85,1.89-1.89v-7.55c0-1.05-.85-1.89-1.89-1.89h-7.55c-1.05,0-1.89,.85-1.89,1.89v7.55s0,.03,0,.05l-.03,.62c0,.52-.42,.94-.94,.94h-4.71v.29h7.51Z"/>
        <rect x="107.72" y="379.84" width="11.34" height="28.35" rx="1.89" ry="1.89" transform="translate(226.77 788.03) rotate(180)"/>
      </g>
      <g>
        <rect x="45.35" y="391.18" width="11.34" height="17.01" rx="1.89" ry="1.89" transform="translate(102.05 799.37) rotate(180)"/>
        <path d="M69.87,391.18h.05s0,0,0,0h7.55c1.05,0,1.89,.85,1.89,1.89v7.55c0,1.05-.85,1.89-1.89,1.89h-7.55c-1.05,0-1.89-.85-1.89-1.89v-7.55s0-.03,0-.05l-.03-.62c0-.52-.42-.94-.94-.94h-4.71v-.29h7.51Z"/>
        <path d="M54.86,391.18h-.05s0,0,0,0h-7.55c-1.05,0-1.89,.85-1.89,1.89v7.55c0,1.05,.85,1.89,1.89,1.89h7.55c1.05,0,1.89-.85,1.89-1.89v-7.55s0-.03,0-.05l.03-.62c0-.52,.42-.94,.94-.94h4.71v-.29h-7.51Z"/>
        <path d="M54.86,413.86h-.05s0,0,0,0h-7.55c-1.05,0-1.89-.85-1.89-1.89v-7.55c0-1.05,.85-1.89,1.89-1.89h7.55c1.05,0,1.89,.85,1.89,1.89v7.55s0,.03,0,.05l.03,.62c0,.52,.42,.94,.94,.94h4.71v.29h-7.51Z"/>
        <path d="M69.87,413.86h.05s0,0,0,0h7.55c1.05,0,1.89-.85,1.89-1.89v-7.55c0-1.05-.85-1.89-1.89-1.89h-7.55c-1.05,0-1.89,.85-1.89,1.89v7.55s0,.03,0,.05l-.03,.62c0,.52-.42,.94-.94,.94h-4.71v.29h7.51Z"/>
        <rect x="68.03" y="391.18" width="11.34" height="17.01" rx="1.89" ry="1.89" transform="translate(147.4 799.37) rotate(180)"/>
      </g>
    </g>
    <g>
      <g>
        <rect x="430.87" y="147.4" width="11.34" height="17.01" rx="1.89" ry="1.89"/>
        <path d="M417.69,158.74h-.05s0,0,0,0h-7.55c-1.05,0-1.89,.85-1.89,1.89v7.55c0,1.05,.85,1.89,1.89,1.89h7.55c1.05,0,1.89-.85,1.89-1.89v-7.55s0-.03,0-.05l.03-.62c0-.52,.42-.94,.94-.94h4.71v-.29h-7.51Z"/>
        <path d="M432.7,147.4h.05s0,0,0,0h7.55c1.05,0,1.89,.85,1.89,1.89v7.55c0,1.05-.85,1.89-1.89,1.89h-7.55c-1.05,0-1.89-.85-1.89-1.89v-7.55s0-.03,0-.05l-.03-.62c0-.52-.42-.94-.94-.94h-4.71v-.29h7.51Z"/>
        <path d="M432.7,170.08h.05s0,0,0,0h7.55c1.05,0,1.89-.85,1.89-1.89v-7.55c0-1.05-.85-1.89-1.89-1.89h-7.55c-1.05,0-1.89,.85-1.89,1.89v7.55s0,.03,0,.05l-.03,.62c0,.52-.42,.94-.94,.94h-4.71v.29h7.51Z"/>
        <path d="M432.64,159.03h.05s0,0,0,0h7.55c1.05,0,1.89-.85,1.89-1.89v-7.55c0-1.05-.85-1.89-1.89-1.89h-7.55c-1.05,0-1.89,.85-1.89,1.89v7.55s0,.03,0,.05l-.03,.62c0,.52-.42,.94-.94,.94h-4.71v.29h7.51Z"/>
        <path d="M417.69,170.08h-.05s0,0,0,0h-7.55c-1.05,0-1.89-.85-1.89-1.89v-7.55c0-1.05,.85-1.89,1.89-1.89h7.55c1.05,0,1.89,.85,1.89,1.89v7.55s0,.03,0,.05l.03,.62c0,.52,.42,.94,.94,.94h4.71v.29h-7.51Z"/>
        <path d="M417.69,147.4h-.05s0,0,0,0h-7.55c-1.05,0-1.89,.85-1.89,1.89v1.88c0,1.05,.85,1.89,1.89,1.89h7.55c1.05,0,1.89-.85,1.89-1.89v-1.88s0-.03,0-.05l.03-.62c0-.52,.42-.94,.94-.94h4.71v-.29h-7.51Z"/>
      </g>
      <g>
        <rect x="357.17" y="147.4" width="11.34" height="17.01" rx="1.89" ry="1.89"/>
        <path d="M343.99,158.74h-.05s0,0,0,0h-7.55c-1.05,0-1.89,.85-1.89,1.89v7.55c0,1.05,.85,1.89,1.89,1.89h7.55c1.05,0,1.89-.85,1.89-1.89v-7.55s0-.03,0-.05l.03-.62c0-.52,.42-.94,.94-.94h4.71v-.29h-7.51Z"/>
        <path d="M359,147.4h.05s0,0,0,0h7.55c1.05,0,1.89,.85,1.89,1.89v7.55c0,1.05-.85,1.89-1.89,1.89h-7.55c-1.05,0-1.89-.85-1.89-1.89v-7.55s0-.03,0-.05l-.03-.62c0-.52-.42-.94-.94-.94h-4.71v-.29h7.51Z"/>
        <path d="M359,170.08h.05s0,0,0,0h7.55c1.05,0,1.89-.85,1.89-1.89v-7.55c0-1.05-.85-1.89-1.89-1.89h-7.55c-1.05,0-1.89,.85-1.89,1.89v7.55s0,.03,0,.05l-.03,.62c0,.52-.42,.94-.94,.94h-4.71v.29h7.51Z"/>
        <path d="M358.94,159.03h.05s0,0,0,0h7.55c1.05,0,1.89-.85,1.89-1.89v-7.55c0-1.05-.85-1.89-1.89-1.89h-7.55c-1.05,0-1.89,.85-1.89,1.89v7.55s0,.03,0,.05l-.03,.62c0,.52-.42,.94-.94,.94h-4.71v.29h7.51Z"/>
        <path d="M343.99,170.08h-.05s0,0,0,0h-7.55c-1.05,0-1.89-.85-1.89-1.89v-7.55c0-1.05,.85-1.89,1.89-1.89h7.55c1.05,0,1.89,.85,1.89,1.89v7.55s0,.03,0,.05l.03,.62c0,.52,.42,.94,.94,.94h4.71v.29h-7.51Z"/>
        <path d="M343.99,147.4h-.05s0,0,0,0h-7.55c-1.05,0-1.89,.85-1.89,1.89v1.88c0,1.05,.85,1.89,1.89,1.89h7.55c1.05,0,1.89-.85,1.89-1.89v-1.88s0-.03,0-.05l.03-.62c0-.52,.42-.94,.94-.94h4.71v-.29h-7.51Z"/>
      </g>
      <g>
        <rect x="238.11" y="147.4" width="11.34" height="17.01" rx="1.89" ry="1.89"/>
        <path d="M224.93,158.74h-.05s0,0,0,0h-7.55c-1.05,0-1.89,.85-1.89,1.89v7.55c0,1.05,.85,1.89,1.89,1.89h7.55c1.05,0,1.89-.85,1.89-1.89v-7.55s0-.03,0-.05l.03-.62c0-.52,.42-.94,.94-.94h4.71v-.29h-7.51Z"/>
        <path d="M239.95,147.4h.05s0,0,0,0h7.55c1.05,0,1.89,.85,1.89,1.89v7.55c0,1.05-.85,1.89-1.89,1.89h-7.55c-1.05,0-1.89-.85-1.89-1.89v-7.55s0-.03,0-.05l-.03-.62c0-.52-.42-.94-.94-.94h-4.71v-.29h7.51Z"/>
        <path d="M239.95,170.08h.05s0,0,0,0h7.55c1.05,0,1.89-.85,1.89-1.89v-7.55c0-1.05-.85-1.89-1.89-1.89h-7.55c-1.05,0-1.89,.85-1.89,1.89v7.55s0,.03,0,.05l-.03,.62c0,.52-.42,.94-.94,.94h-4.71v.29h7.51Z"/>
        <path d="M239.88,159.03h.05s0,0,0,0h7.55c1.05,0,1.89-.85,1.89-1.89v-7.55c0-1.05-.85-1.89-1.89-1.89h-7.55c-1.05,0-1.89,.85-1.89,1.89v7.55s0,.03,0,.05l-.03,.62c0,.52-.42,.94-.94,.94h-4.71v.29h7.51Z"/>
        <path d="M224.93,170.08h-.05s0,0,0,0h-7.55c-1.05,0-1.89-.85-1.89-1.89v-7.55c0-1.05,.85-1.89,1.89-1.89h7.55c1.05,0,1.89,.85,1.89,1.89v7.55s0,.03,0,.05l.03,.62c0,.52,.42,.94,.94,.94h4.71v.29h-7.51Z"/>
        <path d="M224.93,147.4h-.05s0,0,0,0h-7.55c-1.05,0-1.89,.85-1.89,1.89v1.88c0,1.05,.85,1.89,1.89,1.89h7.55c1.05,0,1.89-.85,1.89-1.89v-1.88s0-.03,0-.05l.03-.62c0-.52,.42-.94,.94-.94h4.71v-.29h-7.51Z"/>
      </g>
      <g>
        <rect x="73.7" y="147.4" width="11.34" height="17.01" rx="1.89" ry="1.89"/>
        <path d="M60.52,158.74h-.05s0,0,0,0h-7.55c-1.05,0-1.89,.85-1.89,1.89v7.55c0,1.05,.85,1.89,1.89,1.89h7.55c1.05,0,1.89-.85,1.89-1.89v-7.55s0-.03,0-.05l.03-.62c0-.52,.42-.94,.94-.94h4.71v-.29h-7.51Z"/>
        <path d="M75.54,147.4h.05s0,0,0,0h7.55c1.05,0,1.89,.85,1.89,1.89v7.55c0,1.05-.85,1.89-1.89,1.89h-7.55c-1.05,0-1.89-.85-1.89-1.89v-7.55s0-.03,0-.05l-.03-.62c0-.52-.42-.94-.94-.94h-4.71v-.29h7.51Z"/>
        <path d="M75.54,170.08h.05s0,0,0,0h7.55c1.05,0,1.89-.85,1.89-1.89v-7.55c0-1.05-.85-1.89-1.89-1.89h-7.55c-1.05,0-1.89,.85-1.89,1.89v7.55s0,.03,0,.05l-.03,.62c0,.52-.42,.94-.94,.94h-4.71v.29h7.51Z"/>
        <path d="M75.47,159.03h.05s0,0,0,0h7.55c1.05,0,1.89-.85,1.89-1.89v-7.55c0-1.05-.85-1.89-1.89-1.89h-7.55c-1.05,0-1.89,.85-1.89,1.89v7.55s0,.03,0,.05l-.03,.62c0,.52-.42,.94-.94,.94h-4.71v.29h7.51Z"/>
        <path d="M60.52,170.08h-.05s0,0,0,0h-7.55c-1.05,0-1.89-.85-1.89-1.89v-7.55c0-1.05,.85-1.89,1.89-1.89h7.55c1.05,0,1.89,.85,1.89,1.89v7.55s0,.03,0,.05l.03,.62c0,.52,.42,.94,.94,.94h4.71v.29h-7.51Z"/>
        <path d="M60.52,147.4h-.05s0,0,0,0h-7.55c-1.05,0-1.89,.85-1.89,1.89v1.88c0,1.05,.85,1.89,1.89,1.89h7.55c1.05,0,1.89-.85,1.89-1.89v-1.88s0-.03,0-.05l.03-.62c0-.52,.42-.94,.94-.94h4.71v-.29h-7.51Z"/>
      </g>
      <g>
        <rect class="cls-1" x="130.39" y="158.46" width="25.96" height=".28"/>
        <path d="M149.24,158.74h.05s0,0,0,0h7.55c1.05,0,1.89-.85,1.89-1.89v-7.55c0-1.05-.85-1.89-1.89-1.89h-7.55c-1.05,0-1.89,.85-1.89,1.89v7.55s0,.03,0,.05l-.03,.62c0,.52-.42,.94-.94,.94h-4.71v.29h7.51Z"/>
        <path d="M134.23,147.4h-.05s0,0,0,0h-7.55c-1.05,0-1.89,.85-1.89,1.89v7.55c0,1.05,.85,1.89,1.89,1.89h7.55c1.05,0,1.89-.85,1.89-1.89v-7.55s0-.03,0-.05l.03-.62c0-.52,.42-.94,.94-.94h4.71v-.29h-7.51Z"/>
        <path d="M134.23,170.08h-.05s0,0,0,0h-7.55c-1.05,0-1.89-.85-1.89-1.89v-7.55c0-1.05,.85-1.89,1.89-1.89h7.55c1.05,0,1.89,.85,1.89,1.89v7.55s0,.03,0,.05l.03,.62c0,.52,.42,.94,.94,.94h4.71v.29h-7.51Z"/>
        <path d="M149.24,170.08h.05s0,0,0,0h7.55c1.05,0,1.89-.85,1.89-1.89v-1.88c0-1.05-.85-1.89-1.89-1.89h-7.55c-1.05,0-1.89,.85-1.89,1.89v1.88s0,.03,0,.05l-.03,.62c0,.52-.42,.94-.94,.94h-4.71v.29h7.51Z"/>
        <path d="M149.24,147.4h.05s0,0,0,0h7.55c1.05,0,1.89,.85,1.89,1.89v1.88c0,1.05-.85,1.89-1.89,1.89h-7.55c-1.05,0-1.89-.85-1.89-1.89v-1.88s0-.03,0-.05l-.03-.62c0-.52-.42-.94-.94-.94h-4.71v-.29h7.51Z"/>
        <rect x="124.72" y="147.4" width="11.34" height="22.68" rx="1.89" ry="1.89"/>
      </g>
      <g>
        <rect x="198.43" y="147.4" width="11.34" height="22.68" rx="1.89" ry="1.89"/>
        <rect class="cls-1" x="198.43" y="136.06" width="11.34" height="5.67" rx="1.86" ry="1.86"/>
      </g>
      <rect x="255.12" y="136.06" width="11.34" height="34.02" rx="1.89" ry="1.89"/>
      <g>
        <rect class="cls-1" x="2.39" y="147.4" width="25.96" height=".28"/>
        <path d="M26.51,147.4h-.05s0,0,0,0h-7.55c-1.05,0-1.89,.85-1.89,1.89v7.55c0,1.05,.85,1.89,1.89,1.89h7.55c1.05,0,1.89-.85,1.89-1.89v-7.55s0-.03,0-.05l.03-.62c0-.52,.42-.94,.94-.94h4.71v-.29h-7.51Z"/>
        <path d="M9.5,147.4h-.05s0,0,0,0H1.89C.85,147.4,0,148.25,0,149.3v7.55C0,157.89,.85,158.74,1.89,158.74h7.55c1.05,0,1.89-.85,1.89-1.89v-7.55s0-.03,0-.05l.03-.62c0-.52,.42-.94,.94-.94h4.71v-.29h-7.51Z"/>
        <path d="M35.85,147.4h.05s0,0,0,0h7.55c1.05,0,1.89,.85,1.89,1.89v1.88c0,1.05-.85,1.89-1.89,1.89h-7.55c-1.05,0-1.89-.85-1.89-1.89v-1.88s0-.03,0-.05l-.03-.62c0-.52-.42-.94-.94-.94h-4.71v-.29h7.51Z"/>
        <path d="M18.85,147.4h.05s0,0,0,0h7.55c1.05,0,1.89,.85,1.89,1.89v1.88c0,1.05-.85,1.89-1.89,1.89h-7.55c-1.05,0-1.89-.85-1.89-1.89v-1.88s0-.03,0-.05l-.03-.62c0-.52-.42-.94-.94-.94h-4.71v-.29h7.51Z"/>
        <rect x="0" y="147.4" width="11.34" height="22.68" rx="1.89" ry="1.89"/>
        <rect x="17.01" y="147.4" width="11.34" height="22.68" rx="1.89" ry="1.89"/>
        <rect x="34.02" y="147.4" width="11.34" height="22.68" rx="1.89" ry="1.89"/>
      </g>
      <g>
        <rect class="cls-1" x="379.84" y="147.4" width="20.29" height=".28"/>
        <path d="M383.67,147.4h-.05s0,0,0,0h-7.55c-1.05,0-1.89,.85-1.89,1.89v7.55c0,1.05,.85,1.89,1.89,1.89h7.55c1.05,0,1.89-.85,1.89-1.89v-7.55s0-.03,0-.05l.03-.62c0-.52,.42-.94,.94-.94h4.71v-.29h-7.51Z"/>
        <path d="M393.02,147.4h.05s0,0,0,0h7.55c1.05,0,1.89,.85,1.89,1.89v1.88c0,1.05-.85,1.89-1.89,1.89h-7.55c-1.05,0-1.89-.85-1.89-1.89v-1.88s0-.03,0-.05l-.03-.62c0-.52-.42-.94-.94-.94h-4.71v-.29h7.51Z"/>
        <rect x="374.17" y="147.4" width="11.34" height="22.68" rx="1.89" ry="1.89"/>
      </g>
      <g>
        <rect class="cls-1" x="170.08" y="147.4" width="20.29" height=".28"/>
        <path d="M173.91,147.4h-.05s0,0,0,0h-7.55c-1.05,0-1.89,.85-1.89,1.89v7.55c0,1.05,.85,1.89,1.89,1.89h7.55c1.05,0,1.89-.85,1.89-1.89v-7.55s0-.03,0-.05l.03-.62c0-.52,.42-.94,.94-.94h4.71v-.29h-7.51Z"/>
        <path d="M183.25,147.4h.05s0,0,0,0h7.55c1.05,0,1.89,.85,1.89,1.89v1.88c0,1.05-.85,1.89-1.89,1.89h-7.55c-1.05,0-1.89-.85-1.89-1.89v-1.88s0-.03,0-.05l-.03-.62c0-.52-.42-.94-.94-.94h-4.71v-.29h7.51Z"/>
        <rect x="164.41" y="147.4" width="11.34" height="22.68" rx="1.89" ry="1.89"/>
      </g>
      <g>
        <rect x="317.48" y="153.07" width="11.34" height="17.01" rx="1.89" ry="1.89"/>
        <path d="M304.3,170.08h-.05s0,0,0,0h-7.55c-1.05,0-1.89-.85-1.89-1.89v-7.55c0-1.05,.85-1.89,1.89-1.89h7.55c1.05,0,1.89,.85,1.89,1.89v7.55s0,.03,0,.05l.03,.62c0,.52,.42,.94,.94,.94h4.71v.29h-7.51Z"/>
        <path d="M319.32,170.08h.05s0,0,0,0h7.55c1.05,0,1.89-.85,1.89-1.89v-7.55c0-1.05-.85-1.89-1.89-1.89h-7.55c-1.05,0-1.89,.85-1.89,1.89v7.55s0,.03,0,.05l-.03,.62c0,.52-.42,.94-.94,.94h-4.71v.29h7.51Z"/>
        <path d="M319.32,147.4h.05s0,0,0,0h7.55c1.05,0,1.89,.85,1.89,1.89v7.55c0,1.05-.85,1.89-1.89,1.89h-7.55c-1.05,0-1.89-.85-1.89-1.89v-7.55s0-.03,0-.05l-.03-.62c0-.52-.42-.94-.94-.94h-4.71v-.29h7.51Z"/>
        <path d="M304.3,147.4h-.05s0,0,0,0h-7.55c-1.05,0-1.89,.85-1.89,1.89v7.55c0,1.05,.85,1.89,1.89,1.89h7.55c1.05,0,1.89-.85,1.89-1.89v-7.55s0-.03,0-.05l.03-.62c0-.52,.42-.94,.94-.94h4.71v-.29h-7.51Z"/>
        <rect x="294.8" y="153.07" width="11.34" height="28.35" rx="1.89" ry="1.89"/>
      </g>
      <g>
        <rect class="cls-1" x="87.43" y="147.12" width="25.96" height=".28"/>
        <path d="M109.55,170.08h.05s0,0,0,0h7.55c1.05,0,1.89-.85,1.89-1.89v-1.88c0-1.05-.85-1.89-1.89-1.89h-7.55c-1.05,0-1.89,.85-1.89,1.89v1.88s0,.03,0,.05l-.03,.62c0,.52-.42,.94-.94,.94h-4.71v.29h7.51Z"/>
        <path d="M100.21,170.08h-.05s0,0,0,0h-7.55c-1.05,0-1.89-.85-1.89-1.89v-7.55c0-1.05,.85-1.89,1.89-1.89h7.55c1.05,0,1.89,.85,1.89,1.89v7.55s0,.03,0,.05l.03,.62c0,.52,.42,.94,.94,.94h4.71v.29h-7.51Z"/>
        <rect x="90.71" y="136.06" width="11.34" height="34.02" rx="1.89" ry="1.89"/>
      </g>
    </g>
    <g>
      <g>
        <rect x="309.42" y="11.34" width="11.34" height="17.01" rx="1.89" ry="1.89"/>
        <path d="M296.24,22.68h-.05s0,0,0,0h-7.55c-1.05,0-1.89,.85-1.89,1.89v7.55c0,1.05,.85,1.89,1.89,1.89h7.55c1.05,0,1.89-.85,1.89-1.89v-7.55s0-.03,0-.05l.03-.62c0-.52,.42-.94,.94-.94h4.71v-.29h-7.51Z"/>
        <path d="M311.26,11.34h.05s0,0,0,0h7.55c1.05,0,1.89,.85,1.89,1.89v7.55c0,1.05-.85,1.89-1.89,1.89h-7.55c-1.05,0-1.89-.85-1.89-1.89v-7.55s0-.03,0-.05l-.03-.62c0-.52-.42-.94-.94-.94h-4.71v-.29h7.51Z"/>
        <path d="M311.26,34.02h.05s0,0,0,0h7.55c1.05,0,1.89-.85,1.89-1.89v-7.55c0-1.05-.85-1.89-1.89-1.89h-7.55c-1.05,0-1.89,.85-1.89,1.89v7.55s0,.03,0,.05l-.03,.62c0,.52-.42,.94-.94,.94h-4.71v.29h7.51Z"/>
        <path d="M311.19,22.97h.05s0,0,0,0h7.55c1.05,0,1.89-.85,1.89-1.89v-7.55c0-1.05-.85-1.89-1.89-1.89h-7.55c-1.05,0-1.89,.85-1.89,1.89v7.55s0,.03,0,.05l-.03,.62c0,.52-.42,.94-.94,.94h-4.71v.29h7.51Z"/>
        <path d="M296.24,34.02h-.05s0,0,0,0h-7.55c-1.05,0-1.89-.85-1.89-1.89v-7.55c0-1.05,.85-1.89,1.89-1.89h7.55c1.05,0,1.89,.85,1.89,1.89v7.55s0,.03,0,.05l.03,.62c0,.52,.42,.94,.94,.94h4.71v.29h-7.51Z"/>
        <path d="M296.24,11.34h-.05s0,0,0,0h-7.55c-1.05,0-1.89,.85-1.89,1.89v1.88c0,1.05,.85,1.89,1.89,1.89h7.55c1.05,0,1.89-.85,1.89-1.89v-1.88s0-.03,0-.05l.03-.62c0-.52,.42-.94,.94-.94h4.71v-.29h-7.51Z"/>
      </g>
      <g>
        <rect class="cls-1" y="16.72" width="25.96" height=".28"/>
        <path d="M12.78,0h-.05s0,0,0,0H5.17c-1.05,0-1.89,.85-1.89,1.89v7.55c0,1.05,.85,1.89,1.89,1.89h7.55c1.05,0,1.89-.85,1.89-1.89V1.89s0-.03,0-.05l.03-.62c0-.52,.42-.94,.94-.94h4.71v-.29h-7.51Z"/>
        <path d="M22.12,0h.05s0,0,0,0h7.55c1.05,0,1.89,.85,1.89,1.89v1.88c0,1.05-.85,1.89-1.89,1.89h-7.55c-1.05,0-1.89-.85-1.89-1.89V1.89s0-.03,0-.05l-.03-.62c0-.52-.42-.94-.94-.94h-4.71v-.29h7.51Z"/>
        <rect x="3.28" width="11.34" height="34.02" rx="1.89" ry="1.89"/>
      </g>
      <g>
        <path d="M160.18,11.34h-.05s0,0,0,0h-7.55c-1.05,0-1.89,.85-1.89,1.89v7.55c0,1.05,.85,1.89,1.89,1.89h7.55c1.05,0,1.89-.85,1.89-1.89v-7.55s0-.03,0-.05l.03-.62c0-.52,.42-.94,.94-.94h4.71v-.29h-7.51Z"/>
        <path d="M160.18,34.02h-.05s0,0,0,0h-7.55c-1.05,0-1.89-.85-1.89-1.89v-7.55c0-1.05,.85-1.89,1.89-1.89h7.55c1.05,0,1.89,.85,1.89,1.89v7.55s0,.03,0,.05l.03,.62c0,.52,.42,.94,.94,.94h4.71v.29h-7.51Z"/>
        <path d="M175.2,34.02h.05s0,0,0,0h7.55c1.05,0,1.89-.85,1.89-1.89v-1.88c0-1.05-.85-1.89-1.89-1.89h-7.55c-1.05,0-1.89,.85-1.89,1.89v1.88s0,.03,0,.05l-.03,.62c0,.52-.42,.94-.94,.94h-4.71v.29h7.51Z"/>
        <path d="M175.2,11.34h.05s0,0,0,0h7.55c1.05,0,1.89,.85,1.89,1.89v1.88c0,1.05-.85,1.89-1.89,1.89h-7.55c-1.05,0-1.89-.85-1.89-1.89v-1.88s0-.03,0-.05l-.03-.62c0-.52-.42-.94-.94-.94h-4.71v-.29h7.51Z"/>
        <rect x="150.68" y="11.34" width="11.34" height="22.68" rx="1.89" ry="1.89"/>
      </g>
      <g>
        <rect x="269.74" y="11.34" width="11.34" height="22.68" rx="1.89" ry="1.89"/>
        <rect class="cls-1" x="269.74" y="0" width="11.34" height="5.67" rx="1.86" ry="1.86"/>
      </g>
      <g>
        <rect x="252.73" y="17.01" width="11.34" height="17.01" rx="1.89" ry="1.89"/>
        <path d="M239.55,34.02h-.05s0,0,0,0h-7.55c-1.05,0-1.89-.85-1.89-1.89v-7.55c0-1.05,.85-1.89,1.89-1.89h7.55c1.05,0,1.89,.85,1.89,1.89v7.55s0,.03,0,.05l.03,.62c0,.52,.42,.94,.94,.94h4.71v.29h-7.51Z"/>
        <path d="M254.57,34.02h.05s0,0,0,0h7.55c1.05,0,1.89-.85,1.89-1.89v-7.55c0-1.05-.85-1.89-1.89-1.89h-7.55c-1.05,0-1.89,.85-1.89,1.89v7.55s0,.03,0,.05l-.03,.62c0,.52-.42,.94-.94,.94h-4.71v.29h7.51Z"/>
        <path d="M254.57,11.34h.05s0,0,0,0h7.55c1.05,0,1.89,.85,1.89,1.89v7.55c0,1.05-.85,1.89-1.89,1.89h-7.55c-1.05,0-1.89-.85-1.89-1.89v-7.55s0-.03,0-.05l-.03-.62c0-.52-.42-.94-.94-.94h-4.71v-.29h7.51Z"/>
        <path d="M239.55,11.34h-.05s0,0,0,0h-7.55c-1.05,0-1.89,.85-1.89,1.89v7.55c0,1.05,.85,1.89,1.89,1.89h7.55c1.05,0,1.89-.85,1.89-1.89v-7.55s0-.03,0-.05l.03-.62c0-.52,.42-.94,.94-.94h4.71v-.29h-7.51Z"/>
        <rect x="230.05" y="17.01" width="11.34" height="28.35" rx="1.89" ry="1.89"/>
      </g>
      <g>
        <rect x="111" y="11.34" width="11.34" height="17.01" rx="1.89" ry="1.89" transform="translate(233.33 39.69) rotate(-180)"/>
        <path d="M135.51,11.34h.05s0,0,0,0h7.55c1.05,0,1.89,.85,1.89,1.89v7.55c0,1.05-.85,1.89-1.89,1.89h-7.55c-1.05,0-1.89-.85-1.89-1.89v-7.55s0-.03,0-.05l-.03-.62c0-.52-.42-.94-.94-.94h-4.71v-.29h7.51Z"/>
        <path d="M120.5,11.34h-.05s0,0,0,0h-7.55c-1.05,0-1.89,.85-1.89,1.89v7.55c0,1.05,.85,1.89,1.89,1.89h7.55c1.05,0,1.89-.85,1.89-1.89v-7.55s0-.03,0-.05l.03-.62c0-.52,.42-.94,.94-.94h4.71v-.29h-7.51Z"/>
        <path d="M120.5,34.02h-.05s0,0,0,0h-7.55c-1.05,0-1.89-.85-1.89-1.89v-7.55c0-1.05,.85-1.89,1.89-1.89h7.55c1.05,0,1.89,.85,1.89,1.89v7.55s0,.03,0,.05l.03,.62c0,.52,.42,.94,.94,.94h4.71v.29h-7.51Z"/>
        <path d="M135.51,34.02h.05s0,0,0,0h7.55c1.05,0,1.89-.85,1.89-1.89v-7.55c0-1.05-.85-1.89-1.89-1.89h-7.55c-1.05,0-1.89,.85-1.89,1.89v7.55s0,.03,0,.05l-.03,.62c0,.52-.42,.94-.94,.94h-4.71v.29h7.51Z"/>
        <rect x="133.67" y="11.34" width="11.34" height="17.01" rx="1.89" ry="1.89" transform="translate(278.68 39.69) rotate(-180)"/>
      </g>
      <g>
        <rect x="190.37" y="11.34" width="11.34" height="17.01" rx="1.89" ry="1.89" transform="translate(392.07 39.69) rotate(-180)"/>
        <path d="M214.88,11.34h.05s0,0,0,0h7.55c1.05,0,1.89,.85,1.89,1.89v7.55c0,1.05-.85,1.89-1.89,1.89h-7.55c-1.05,0-1.89-.85-1.89-1.89v-7.55s0-.03,0-.05l-.03-.62c0-.52-.42-.94-.94-.94h-4.71v-.29h7.51Z"/>
        <path d="M199.87,11.34h-.05s0,0,0,0h-7.55c-1.05,0-1.89,.85-1.89,1.89v7.55c0,1.05,.85,1.89,1.89,1.89h7.55c1.05,0,1.89-.85,1.89-1.89v-7.55s0-.03,0-.05l.03-.62c0-.52,.42-.94,.94-.94h4.71v-.29h-7.51Z"/>
        <path d="M199.87,34.02h-.05s0,0,0,0h-7.55c-1.05,0-1.89-.85-1.89-1.89v-7.55c0-1.05,.85-1.89,1.89-1.89h7.55c1.05,0,1.89,.85,1.89,1.89v7.55s0,.03,0,.05l.03,.62c0,.52,.42,.94,.94,.94h4.71v.29h-7.51Z"/>
        <path d="M214.88,34.02h.05s0,0,0,0h7.55c1.05,0,1.89-.85,1.89-1.89v-7.55c0-1.05-.85-1.89-1.89-1.89h-7.55c-1.05,0-1.89,.85-1.89,1.89v7.55s0,.03,0,.05l-.03,.62c0,.52-.42,.94-.94,.94h-4.71v.29h7.51Z"/>
        <rect x="213.04" y="11.34" width="11.34" height="17.01" rx="1.89" ry="1.89" transform="translate(437.42 39.69) rotate(-180)"/>
      </g>
      <g>
        <rect x="31.63" y="11.34" width="11.34" height="17.01" rx="1.89" ry="1.89" transform="translate(74.59 39.69) rotate(-180)"/>
        <path d="M56.14,11.34h.05s0,0,0,0h7.55c1.05,0,1.89,.85,1.89,1.89v7.55c0,1.05-.85,1.89-1.89,1.89h-7.55c-1.05,0-1.89-.85-1.89-1.89v-7.55s0-.03,0-.05l-.03-.62c0-.52-.42-.94-.94-.94h-4.71v-.29h7.51Z"/>
        <path d="M41.13,11.34h-.05s0,0,0,0h-7.55c-1.05,0-1.89,.85-1.89,1.89v7.55c0,1.05,.85,1.89,1.89,1.89h7.55c1.05,0,1.89-.85,1.89-1.89v-7.55s0-.03,0-.05l.03-.62c0-.52,.42-.94,.94-.94h4.71v-.29h-7.51Z"/>
        <path d="M41.13,34.02h-.05s0,0,0,0h-7.55c-1.05,0-1.89-.85-1.89-1.89v-7.55c0-1.05,.85-1.89,1.89-1.89h7.55c1.05,0,1.89,.85,1.89,1.89v7.55s0,.03,0,.05l.03,.62c0,.52,.42,.94,.94,.94h4.71v.29h-7.51Z"/>
        <path d="M56.14,34.02h.05s0,0,0,0h7.55c1.05,0,1.89-.85,1.89-1.89v-7.55c0-1.05-.85-1.89-1.89-1.89h-7.55c-1.05,0-1.89,.85-1.89,1.89v7.55s0,.03,0,.05l-.03,.62c0,.52-.42,.94-.94,.94h-4.71v.29h7.51Z"/>
        <rect x="54.3" y="11.34" width="11.34" height="17.01" rx="1.89" ry="1.89" transform="translate(119.94 39.69) rotate(-180)"/>
      </g>
      <g>
        <rect class="cls-1" x="71.31" y="11.06" width="25.96" height=".28"/>
        <path d="M93.43,34.02h.05s0,0,0,0h7.55c1.05,0,1.89-.85,1.89-1.89v-1.88c0-1.05-.85-1.89-1.89-1.89h-7.55c-1.05,0-1.89,.85-1.89,1.89v1.88s0,.03,0,.05l-.03,.62c0,.52-.42,.94-.94,.94h-4.71v.29h7.51Z"/>
        <path d="M84.09,34.02h-.05s0,0,0,0h-7.55c-1.05,0-1.89-.85-1.89-1.89v-7.55c0-1.05,.85-1.89,1.89-1.89h7.55c1.05,0,1.89,.85,1.89,1.89v7.55s0,.03,0,.05l.03,.62c0,.52,.42,.94,.94,.94h4.71v.29h-7.51Z"/>
        <rect x="74.59" width="11.34" height="34.02" rx="1.89" ry="1.89"/>
      </g>
    </g>
    <g>
      <g>
        <path d="M281.63,187.09h-.05s0,0,0,0h-7.55c-1.05,0-1.89,.85-1.89,1.89v7.55c0,1.05,.85,1.89,1.89,1.89h7.55c1.05,0,1.89-.85,1.89-1.89v-7.55s0-.03,0-.05l.03-.62c0-.52,.42-.94,.94-.94h4.71v-.29h-7.51Z"/>
        <path d="M281.63,209.76h-.05s0,0,0,0h-7.55c-1.05,0-1.89-.85-1.89-1.89v-7.55c0-1.05,.85-1.89,1.89-1.89h7.55c1.05,0,1.89,.85,1.89,1.89v7.55s0,.03,0,.05l.03,.62c0,.52,.42,.94,.94,.94h4.71v.29h-7.51Z"/>
        <path d="M296.64,209.76h.05s0,0,0,0h7.55c1.05,0,1.89-.85,1.89-1.89v-1.88c0-1.05-.85-1.89-1.89-1.89h-7.55c-1.05,0-1.89,.85-1.89,1.89v1.88s0,.03,0,.05l-.03,.62c0,.52-.42,.94-.94,.94h-4.71v.29h7.51Z"/>
        <path d="M296.64,187.09h.05s0,0,0,0h7.55c1.05,0,1.89,.85,1.89,1.89v1.88c0,1.05-.85,1.89-1.89,1.89h-7.55c-1.05,0-1.89-.85-1.89-1.89v-1.88s0-.03,0-.05l-.03-.62c0-.52-.42-.94-.94-.94h-4.71v-.29h7.51Z"/>
        <rect x="272.13" y="187.09" width="11.34" height="22.68" rx="1.89" ry="1.89"/>
      </g>
      <g>
        <path d="M321.31,187.09h-.05s0,0,0,0h-7.55c-1.05,0-1.89,.85-1.89,1.89v7.55c0,1.05,.85,1.89,1.89,1.89h7.55c1.05,0,1.89-.85,1.89-1.89v-7.55s0-.03,0-.05l.03-.62c0-.52,.42-.94,.94-.94h4.71v-.29h-7.51Z"/>
        <path d="M321.31,209.76h-.05s0,0,0,0h-7.55c-1.05,0-1.89-.85-1.89-1.89v-7.55c0-1.05,.85-1.89,1.89-1.89h7.55c1.05,0,1.89,.85,1.89,1.89v7.55s0,.03,0,.05l.03,.62c0,.52,.42,.94,.94,.94h4.71v.29h-7.51Z"/>
        <path d="M336.33,209.76h.05s0,0,0,0h7.55c1.05,0,1.89-.85,1.89-1.89v-1.88c0-1.05-.85-1.89-1.89-1.89h-7.55c-1.05,0-1.89,.85-1.89,1.89v1.88s0,.03,0,.05l-.03,.62c0,.52-.42,.94-.94,.94h-4.71v.29h7.51Z"/>
        <path d="M336.33,187.09h.05s0,0,0,0h7.55c1.05,0,1.89,.85,1.89,1.89v1.88c0,1.05-.85,1.89-1.89,1.89h-7.55c-1.05,0-1.89-.85-1.89-1.89v-1.88s0-.03,0-.05l-.03-.62c0-.52-.42-.94-.94-.94h-4.71v-.29h7.51Z"/>
        <rect x="311.81" y="187.09" width="11.34" height="22.68" rx="1.89" ry="1.89"/>
      </g>
      <g>
        <path d="M9.5,187.09h-.05s0,0,0,0H1.89c-1.05,0-1.89,.85-1.89,1.89v7.55c0,1.05,.85,1.89,1.89,1.89h7.55c1.05,0,1.89-.85,1.89-1.89v-7.55s0-.03,0-.05l.03-.62c0-.52,.42-.94,.94-.94h4.71v-.29h-7.51Z"/>
        <path d="M9.5,209.76h-.05s0,0,0,0H1.89c-1.05,0-1.89-.85-1.89-1.89v-7.55c0-1.05,.85-1.89,1.89-1.89h7.55c1.05,0,1.89,.85,1.89,1.89v7.55s0,.03,0,.05l.03,.62c0,.52,.42,.94,.94,.94h4.71v.29h-7.51Z"/>
        <path d="M24.51,209.76h.05s0,0,0,0h7.55c1.05,0,1.89-.85,1.89-1.89v-1.88c0-1.05-.85-1.89-1.89-1.89h-7.55c-1.05,0-1.89,.85-1.89,1.89v1.88s0,.03,0,.05l-.03,.62c0,.52-.42,.94-.94,.94h-4.71v.29h7.51Z"/>
        <path d="M24.51,187.09h.05s0,0,0,0h7.55c1.05,0,1.89,.85,1.89,1.89v1.88c0,1.05-.85,1.89-1.89,1.89h-7.55c-1.05,0-1.89-.85-1.89-1.89v-1.88s0-.03,0-.05l-.03-.62c0-.52-.42-.94-.94-.94h-4.71v-.29h7.51Z"/>
        <rect y="187.09" width="11.34" height="22.68" rx="1.89" ry="1.89"/>
      </g>
      <g>
        <rect x="351.5" y="187.09" width="11.34" height="22.68" rx="1.89" ry="1.89"/>
        <rect class="cls-1" x="351.5" y="175.75" width="11.34" height="5.67" rx="1.86" ry="1.86"/>
      </g>
      <g>
        <rect class="cls-1" x="198.43" y="187.09" width="20.29" height=".28"/>
        <path d="M202.26,187.09h-.05s0,0,0,0h-7.55c-1.05,0-1.89,.85-1.89,1.89v7.55c0,1.05,.85,1.89,1.89,1.89h7.55c1.05,0,1.89-.85,1.89-1.89v-7.55s0-.03,0-.05l.03-.62c0-.52,.42-.94,.94-.94h4.71v-.29h-7.51Z"/>
        <path d="M211.6,187.09h.05s0,0,0,0h7.55c1.05,0,1.89,.85,1.89,1.89v1.88c0,1.05-.85,1.89-1.89,1.89h-7.55c-1.05,0-1.89-.85-1.89-1.89v-1.88s0-.03,0-.05l-.03-.62c0-.52-.42-.94-.94-.94h-4.71v-.29h7.51Z"/>
        <rect x="192.76" y="187.09" width="11.34" height="22.68" rx="1.89" ry="1.89"/>
      </g>
      <g>
        <rect x="368.5" y="187.09" width="11.34" height="17.01" rx="1.89" ry="1.89" transform="translate(748.35 391.18) rotate(180)"/>
        <path d="M393.02,187.09h.05s0,0,0,0h7.55c1.05,0,1.89,.85,1.89,1.89v7.55c0,1.05-.85,1.89-1.89,1.89h-7.55c-1.05,0-1.89-.85-1.89-1.89v-7.55s0-.03,0-.05l-.03-.62c0-.52-.42-.94-.94-.94h-4.71v-.29h7.51Z"/>
        <path d="M378.01,187.09h-.05s0,0,0,0h-7.55c-1.05,0-1.89,.85-1.89,1.89v7.55c0,1.05,.85,1.89,1.89,1.89h7.55c1.05,0,1.89-.85,1.89-1.89v-7.55s0-.03,0-.05l.03-.62c0-.52,.42-.94,.94-.94h4.71v-.29h-7.51Z"/>
        <path d="M378.01,209.76h-.05s0,0,0,0h-7.55c-1.05,0-1.89-.85-1.89-1.89v-7.55c0-1.05,.85-1.89,1.89-1.89h7.55c1.05,0,1.89,.85,1.89,1.89v7.55s0,.03,0,.05l.03,.62c0,.52,.42,.94,.94,.94h4.71v.29h-7.51Z"/>
        <path d="M393.02,209.76h.05s0,0,0,0h7.55c1.05,0,1.89-.85,1.89-1.89v-7.55c0-1.05-.85-1.89-1.89-1.89h-7.55c-1.05,0-1.89,.85-1.89,1.89v7.55s0,.03,0,.05l-.03,.62c0,.52-.42,.94-.94,.94h-4.71v.29h7.51Z"/>
        <rect x="391.18" y="187.09" width="11.34" height="17.01" rx="1.89" ry="1.89" transform="translate(793.7 391.18) rotate(180)"/>
      </g>
      <g>
        <rect x="39.69" y="187.09" width="11.34" height="17.01" rx="1.89" ry="1.89" transform="translate(90.71 391.18) rotate(180)"/>
        <path d="M64.2,187.09h.05s0,0,0,0h7.55c1.05,0,1.89,.85,1.89,1.89v7.55c0,1.05-.85,1.89-1.89,1.89h-7.55c-1.05,0-1.89-.85-1.89-1.89v-7.55s0-.03,0-.05l-.03-.62c0-.52-.42-.94-.94-.94h-4.71v-.29h7.51Z"/>
        <path d="M49.19,187.09h-.05s0,0,0,0h-7.55c-1.05,0-1.89,.85-1.89,1.89v7.55c0,1.05,.85,1.89,1.89,1.89h7.55c1.05,0,1.89-.85,1.89-1.89v-7.55s0-.03,0-.05l.03-.62c0-.52,.42-.94,.94-.94h4.71v-.29h-7.51Z"/>
        <path d="M49.19,209.76h-.05s0,0,0,0h-7.55c-1.05,0-1.89-.85-1.89-1.89v-7.55c0-1.05,.85-1.89,1.89-1.89h7.55c1.05,0,1.89,.85,1.89,1.89v7.55s0,.03,0,.05l.03,.62c0,.52,.42,.94,.94,.94h4.71v.29h-7.51Z"/>
        <path d="M64.2,209.76h.05s0,0,0,0h7.55c1.05,0,1.89-.85,1.89-1.89v-7.55c0-1.05-.85-1.89-1.89-1.89h-7.55c-1.05,0-1.89,.85-1.89,1.89v7.55s0,.03,0,.05l-.03,.62c0,.52-.42,.94-.94,.94h-4.71v.29h7.51Z"/>
        <rect x="62.36" y="187.09" width="11.34" height="17.01" rx="1.89" ry="1.89" transform="translate(136.06 391.18) rotate(180)"/>
      </g>
      <g>
        <path d="M143.57,198.43h.05s0,0,0,0h7.55c1.05,0,1.89,.85,1.89,1.89v7.55c0,1.05-.85,1.89-1.89,1.89h-7.55c-1.05,0-1.89-.85-1.89-1.89v-7.55s0-.03,0-.05l-.03-.62c0-.52-.42-.94-.94-.94h-4.71v-.29h7.51Z"/>
        <path d="M143.57,209.76h.05s0,0,0,0h7.55c1.05,0,1.89-.85,1.89-1.89v-7.55c0-1.05-.85-1.89-1.89-1.89h-7.55c-1.05,0-1.89,.85-1.89,1.89v7.55s0,.03,0,.05l-.03,.62c0,.52-.42,.94-.94,.94h-4.71v.29h7.51Z"/>
        <path d="M128.56,198.71h-.05s0,0,0,0h-7.55c-1.05,0-1.89-.85-1.89-1.89v-7.55c0-1.05,.85-1.89,1.89-1.89h7.55c1.05,0,1.89,.85,1.89,1.89v7.55s0,.03,0,.05l.03,.62c0,.52,.42,.94,.94,.94h4.71v.29h-7.51Z"/>
        <path d="M128.56,209.76h-.05s0,0,0,0h-7.55c-1.05,0-1.89-.85-1.89-1.89v-1.88c0-1.05,.85-1.89,1.89-1.89h7.55c1.05,0,1.89,.85,1.89,1.89v1.88s0,.03,0,.05l.03,.62c0,.52,.42,.94,.94,.94h4.71v.29h-7.51Z"/>
        <rect class="cls-1" x="130.39" y="187.09" width="20.29" height=".28"/>
        <path d="M128.56,187.09h-.05s0,0,0,0h-7.55c-1.05,0-1.89,.85-1.89,1.89v7.55c0,1.05,.85,1.89,1.89,1.89h7.55c1.05,0,1.89-.85,1.89-1.89v-7.55s0-.03,0-.05l.03-.62c0-.52,.42-.94,.94-.94h4.71v-.29h-7.51Z"/>
        <path d="M143.57,187.09h.05s0,0,0,0h7.55c1.05,0,1.89,.85,1.89,1.89v1.88c0,1.05-.85,1.89-1.89,1.89h-7.55c-1.05,0-1.89-.85-1.89-1.89v-1.88s0-.03,0-.05l-.03-.62c0-.52-.42-.94-.94-.94h-4.71v-.29h7.51Z"/>
      </g>
      <g>
        <rect class="cls-1" x="155.46" y="186.8" width="25.96" height=".28"/>
        <path d="M177.59,209.76h.05s0,0,0,0h7.55c1.05,0,1.89-.85,1.89-1.89v-1.88c0-1.05-.85-1.89-1.89-1.89h-7.55c-1.05,0-1.89,.85-1.89,1.89v1.88s0,.03,0,.05l-.03,.62c0,.52-.42,.94-.94,.94h-4.71v.29h7.51Z"/>
        <path d="M168.24,209.76h-.05s0,0,0,0h-7.55c-1.05,0-1.89-.85-1.89-1.89v-7.55c0-1.05,.85-1.89,1.89-1.89h7.55c1.05,0,1.89,.85,1.89,1.89v7.55s0,.03,0,.05l.03,.62c0,.52,.42,.94,.94,.94h4.71v.29h-7.51Z"/>
        <rect x="158.74" y="175.75" width="11.34" height="34.02" rx="1.89" ry="1.89"/>
      </g>
      <g>
        <rect x="226.77" y="187.09" width="11.34" height="17.01" rx="1.89" ry="1.89" transform="translate(464.88 391.18) rotate(180)"/>
        <path d="M236.27,209.76h-.05s0,0,0,0h-7.55c-1.05,0-1.89-.85-1.89-1.89v-7.55c0-1.05,.85-1.89,1.89-1.89h7.55c1.05,0,1.89,.85,1.89,1.89v7.55s0,.03,0,.05l.03,.62c0,.52,.42,.94,.94,.94h4.71v.29h-7.51Z"/>
        <path d="M251.29,209.76h.05s0,0,0,0h7.55c1.05,0,1.89-.85,1.89-1.89v-7.55c0-1.05-.85-1.89-1.89-1.89h-7.55c-1.05,0-1.89,.85-1.89,1.89v7.55s0,.03,0,.05l-.03,.62c0,.52-.42,.94-.94,.94h-4.71v.29h7.51Z"/>
        <rect x="249.45" y="187.09" width="11.34" height="17.01" rx="1.89" ry="1.89" transform="translate(510.24 391.18) rotate(180)"/>
      </g>
      <g>
        <rect x="102.05" y="192.76" width="11.34" height="17.01" rx="1.89" ry="1.89"/>
        <path d="M103.88,187.09h.05s0,0,0,0h7.55c1.05,0,1.89,.85,1.89,1.89v7.55c0,1.05-.85,1.89-1.89,1.89h-7.55c-1.05,0-1.89-.85-1.89-1.89v-7.55s0-.03,0-.05l-.03-.62c0-.52-.42-.94-.94-.94h-4.71v-.29h7.51Z"/>
        <path d="M88.87,187.09h-.05s0,0,0,0h-7.55c-1.05,0-1.89,.85-1.89,1.89v7.55c0,1.05,.85,1.89,1.89,1.89h7.55c1.05,0,1.89-.85,1.89-1.89v-7.55s0-.03,0-.05l.03-.62c0-.52,.42-.94,.94-.94h4.71v-.29h-7.51Z"/>
        <rect x="79.37" y="192.76" width="11.34" height="17.01" rx="1.89" ry="1.89"/>
      </g>
      <g>
        <rect x="430.87" y="192.76" width="11.34" height="17.01" rx="1.89" ry="1.89"/>
        <path d="M432.7,187.09h.05s0,0,0,0h7.55c1.05,0,1.89,.85,1.89,1.89v7.55c0,1.05-.85,1.89-1.89,1.89h-7.55c-1.05,0-1.89-.85-1.89-1.89v-7.55s0-.03,0-.05l-.03-.62c0-.52-.42-.94-.94-.94h-4.71v-.29h7.51Z"/>
        <path d="M417.69,187.09h-.05s0,0,0,0h-7.55c-1.05,0-1.89,.85-1.89,1.89v7.55c0,1.05,.85,1.89,1.89,1.89h7.55c1.05,0,1.89-.85,1.89-1.89v-7.55s0-.03,0-.05l.03-.62c0-.52,.42-.94,.94-.94h4.71v-.29h-7.51Z"/>
        <rect x="408.19" y="192.76" width="11.34" height="17.01" rx="1.89" ry="1.89"/>
      </g>
    </g>
    <g>
      <g>
        <rect x="28.35" y="323.15" width="11.34" height="17.01" rx="1.89" ry="1.89"/>
        <path d="M15.17,334.49h-.05s0,0,0,0H7.56c-1.05,0-1.89,.85-1.89,1.89v7.55c0,1.05,.85,1.89,1.89,1.89h7.55c1.05,0,1.89-.85,1.89-1.89v-7.55s0-.03,0-.05l.03-.62c0-.52,.42-.94,.94-.94h4.71v-.29h-7.51Z"/>
        <path d="M30.18,323.15h.05s0,0,0,0h7.55c1.05,0,1.89,.85,1.89,1.89v7.55c0,1.05-.85,1.89-1.89,1.89h-7.55c-1.05,0-1.89-.85-1.89-1.89v-7.55s0-.03,0-.05l-.03-.62c0-.52-.42-.94-.94-.94h-4.71v-.29h7.51Z"/>
        <path d="M30.18,345.83h.05s0,0,0,0h7.55c1.05,0,1.89-.85,1.89-1.89v-7.55c0-1.05-.85-1.89-1.89-1.89h-7.55c-1.05,0-1.89,.85-1.89,1.89v7.55s0,.03,0,.05l-.03,.62c0,.52-.42,.94-.94,.94h-4.71v.29h7.51Z"/>
        <path d="M30.12,334.78h.05s0,0,0,0h7.55c1.05,0,1.89-.85,1.89-1.89v-7.55c0-1.05-.85-1.89-1.89-1.89h-7.55c-1.05,0-1.89,.85-1.89,1.89v7.55s0,.03,0,.05l-.03,.62c0,.52-.42,.94-.94,.94h-4.71v.29h7.51Z"/>
        <path d="M15.17,345.83h-.05s0,0,0,0H7.56c-1.05,0-1.89-.85-1.89-1.89v-7.55c0-1.05,.85-1.89,1.89-1.89h7.55c1.05,0,1.89,.85,1.89,1.89v7.55s0,.03,0,.05l.03,.62c0,.52,.42,.94,.94,.94h4.71v.29h-7.51Z"/>
        <path d="M15.17,323.15h-.05s0,0,0,0H7.56c-1.05,0-1.89,.85-1.89,1.89v1.88c0,1.05,.85,1.89,1.89,1.89h7.55c1.05,0,1.89-.85,1.89-1.89v-1.88s0-.03,0-.05l.03-.62c0-.52,.42-.94,.94-.94h4.71v-.29h-7.51Z"/>
      </g>
      <g>
        <rect class="cls-1" x="147.4" y="334.2" width="25.96" height=".28"/>
        <path d="M166.25,334.49h.05s0,0,0,0h7.55c1.05,0,1.89-.85,1.89-1.89v-7.55c0-1.05-.85-1.89-1.89-1.89h-7.55c-1.05,0-1.89,.85-1.89,1.89v7.55s0,.03,0,.05l-.03,.62c0,.52-.42,.94-.94,.94h-4.71v.29h7.51Z"/>
        <path d="M151.23,323.15h-.05s0,0,0,0h-7.55c-1.05,0-1.89,.85-1.89,1.89v7.55c0,1.05,.85,1.89,1.89,1.89h7.55c1.05,0,1.89-.85,1.89-1.89v-7.55s0-.03,0-.05l.03-.62c0-.52,.42-.94,.94-.94h4.71v-.29h-7.51Z"/>
        <path d="M151.23,345.83h-.05s0,0,0,0h-7.55c-1.05,0-1.89-.85-1.89-1.89v-7.55c0-1.05,.85-1.89,1.89-1.89h7.55c1.05,0,1.89,.85,1.89,1.89v7.55s0,.03,0,.05l.03,.62c0,.52,.42,.94,.94,.94h4.71v.29h-7.51Z"/>
        <path d="M166.25,345.83h.05s0,0,0,0h7.55c1.05,0,1.89-.85,1.89-1.89v-1.88c0-1.05-.85-1.89-1.89-1.89h-7.55c-1.05,0-1.89,.85-1.89,1.89v1.88s0,.03,0,.05l-.03,.62c0,.52-.42,.94-.94,.94h-4.71v.29h7.51Z"/>
        <path d="M166.25,323.15h.05s0,0,0,0h7.55c1.05,0,1.89,.85,1.89,1.89v1.88c0,1.05-.85,1.89-1.89,1.89h-7.55c-1.05,0-1.89-.85-1.89-1.89v-1.88s0-.03,0-.05l-.03-.62c0-.52-.42-.94-.94-.94h-4.71v-.29h7.51Z"/>
        <rect x="141.73" y="323.15" width="11.34" height="22.68" rx="1.89" ry="1.89"/>
      </g>
      <g>
        <path d="M94.54,357.17h-.05s0,0,0,0h-7.55c-1.05,0-1.89-.85-1.89-1.89v-1.88c0-1.05,.85-1.89,1.89-1.89h7.55c1.05,0,1.89,.85,1.89,1.89v1.88s0,.03,0,.05l.03,.62c0,.52,.42,.94,.94,.94h4.71v.29h-7.51Z"/>
        <path d="M109.55,357.17h.05s0,0,0,0h7.55c1.05,0,1.89-.85,1.89-1.89v-1.88c0-1.05-.85-1.89-1.89-1.89h-7.55c-1.05,0-1.89,.85-1.89,1.89v1.88s0,.03,0,.05l-.03,.62c0,.52-.42,.94-.94,.94h-4.71v.29h7.51Z"/>
        <path d="M94.54,323.15h-.05s0,0,0,0h-7.55c-1.05,0-1.89,.85-1.89,1.89v7.55c0,1.05,.85,1.89,1.89,1.89h7.55c1.05,0,1.89-.85,1.89-1.89v-7.55s0-.03,0-.05l.03-.62c0-.52,.42-.94,.94-.94h4.71v-.29h-7.51Z"/>
        <path d="M94.54,345.83h-.05s0,0,0,0h-7.55c-1.05,0-1.89-.85-1.89-1.89v-7.55c0-1.05,.85-1.89,1.89-1.89h7.55c1.05,0,1.89,.85,1.89,1.89v7.55s0,.03,0,.05l.03,.62c0,.52,.42,.94,.94,.94h4.71v.29h-7.51Z"/>
        <path d="M109.55,345.83h.05s0,0,0,0h7.55c1.05,0,1.89-.85,1.89-1.89v-1.88c0-1.05-.85-1.89-1.89-1.89h-7.55c-1.05,0-1.89,.85-1.89,1.89v1.88s0,.03,0,.05l-.03,.62c0,.52-.42,.94-.94,.94h-4.71v.29h7.51Z"/>
        <path d="M109.55,323.15h.05s0,0,0,0h7.55c1.05,0,1.89,.85,1.89,1.89v1.88c0,1.05-.85,1.89-1.89,1.89h-7.55c-1.05,0-1.89-.85-1.89-1.89v-1.88s0-.03,0-.05l-.03-.62c0-.52-.42-.94-.94-.94h-4.71v-.29h7.51Z"/>
        <rect x="85.04" y="323.15" width="11.34" height="22.68" rx="1.89" ry="1.89"/>
        <rect x="107.72" y="323.15" width="11.34" height="22.68" rx="1.89" ry="1.89"/>
        <rect x="107.72" y="323.15" width="11.34" height="34.02" rx="1.89" ry="1.89"/>
      </g>
      <rect x="124.72" y="311.81" width="11.34" height="34.02" rx="1.89" ry="1.89"/>
      <g>
        <path d="M205.93,334.49h.05s0,0,0,0h7.55c1.05,0,1.89,.85,1.89,1.89v7.55c0,1.05-.85,1.89-1.89,1.89h-7.55c-1.05,0-1.89-.85-1.89-1.89v-7.55s0-.03,0-.05l-.03-.62c0-.52-.42-.94-.94-.94h-4.71v-.29h7.51Z"/>
        <path d="M205.93,345.83h.05s0,0,0,0h7.55c1.05,0,1.89-.85,1.89-1.89v-7.55c0-1.05-.85-1.89-1.89-1.89h-7.55c-1.05,0-1.89,.85-1.89,1.89v7.55s0,.03,0,.05l-.03,.62c0,.52-.42,.94-.94,.94h-4.71v.29h7.51Z"/>
        <path d="M190.92,334.77h-.05s0,0,0,0h-7.55c-1.05,0-1.89-.85-1.89-1.89v-7.55c0-1.05,.85-1.89,1.89-1.89h7.55c1.05,0,1.89,.85,1.89,1.89v7.55s0,.03,0,.05l.03,.62c0,.52,.42,.94,.94,.94h4.71v.29h-7.51Z"/>
        <path d="M190.92,345.83h-.05s0,0,0,0h-7.55c-1.05,0-1.89-.85-1.89-1.89v-1.88c0-1.05,.85-1.89,1.89-1.89h7.55c1.05,0,1.89,.85,1.89,1.89v1.88s0,.03,0,.05l.03,.62c0,.52,.42,.94,.94,.94h4.71v.29h-7.51Z"/>
        <rect class="cls-1" x="192.76" y="323.15" width="20.29" height=".28"/>
        <path d="M190.92,323.15h-.05s0,0,0,0h-7.55c-1.05,0-1.89,.85-1.89,1.89v7.55c0,1.05,.85,1.89,1.89,1.89h7.55c1.05,0,1.89-.85,1.89-1.89v-7.55s0-.03,0-.05l.03-.62c0-.52,.42-.94,.94-.94h4.71v-.29h-7.51Z"/>
        <path d="M205.93,323.15h.05s0,0,0,0h7.55c1.05,0,1.89,.85,1.89,1.89v1.88c0,1.05-.85,1.89-1.89,1.89h-7.55c-1.05,0-1.89-.85-1.89-1.89v-1.88s0-.03,0-.05l-.03-.62c0-.52-.42-.94-.94-.94h-4.71v-.29h7.51Z"/>
      </g>
      <g>
        <rect x="68.03" y="328.82" width="11.34" height="17.01" rx="1.89" ry="1.89"/>
        <path d="M69.87,323.15h.05s0,0,0,0h7.55c1.05,0,1.89,.85,1.89,1.89v7.55c0,1.05-.85,1.89-1.89,1.89h-7.55c-1.05,0-1.89-.85-1.89-1.89v-7.55s0-.03,0-.05l-.03-.62c0-.52-.42-.94-.94-.94h-4.71v-.29h7.51Z"/>
        <path d="M54.86,323.15h-.05s0,0,0,0h-7.55c-1.05,0-1.89,.85-1.89,1.89v7.55c0,1.05,.85,1.89,1.89,1.89h7.55c1.05,0,1.89-.85,1.89-1.89v-7.55s0-.03,0-.05l.03-.62c0-.52,.42-.94,.94-.94h4.71v-.29h-7.51Z"/>
        <rect x="45.35" y="328.82" width="11.34" height="17.01" rx="1.89" ry="1.89"/>
      </g>
    </g>
    <g>
      <g>
        <rect x="289.13" y="79.37" width="11.34" height="17.01" rx="1.89" ry="1.89"/>
        <path d="M275.96,90.71h-.05s0,0,0,0h-7.55c-1.05,0-1.89,.85-1.89,1.89v7.55c0,1.05,.85,1.89,1.89,1.89h7.55c1.05,0,1.89-.85,1.89-1.89v-7.55s0-.03,0-.05l.03-.62c0-.52,.42-.94,.94-.94h4.71v-.29h-7.51Z"/>
        <path d="M290.97,79.37h.05s0,0,0,0h7.55c1.05,0,1.89,.85,1.89,1.89v7.55c0,1.05-.85,1.89-1.89,1.89h-7.55c-1.05,0-1.89-.85-1.89-1.89v-7.55s0-.03,0-.05l-.03-.62c0-.52-.42-.94-.94-.94h-4.71v-.29h7.51Z"/>
        <path d="M290.97,102.05h.05s0,0,0,0h7.55c1.05,0,1.89-.85,1.89-1.89v-7.55c0-1.05-.85-1.89-1.89-1.89h-7.55c-1.05,0-1.89,.85-1.89,1.89v7.55s0,.03,0,.05l-.03,.62c0,.52-.42,.94-.94,.94h-4.71v.29h7.51Z"/>
        <path d="M290.9,91h.05s0,0,0,0h7.55c1.05,0,1.89-.85,1.89-1.89v-7.55c0-1.05-.85-1.89-1.89-1.89h-7.55c-1.05,0-1.89,.85-1.89,1.89v7.55s0,.03,0,.05l-.03,.62c0,.52-.42,.94-.94,.94h-4.71v.29h7.51Z"/>
        <path d="M275.96,102.05h-.05s0,0,0,0h-7.55c-1.05,0-1.89-.85-1.89-1.89v-7.55c0-1.05,.85-1.89,1.89-1.89h7.55c1.05,0,1.89,.85,1.89,1.89v7.55s0,.03,0,.05l.03,.62c0,.52,.42,.94,.94,.94h4.71v.29h-7.51Z"/>
        <path d="M275.96,79.37h-.05s0,0,0,0h-7.55c-1.05,0-1.89,.85-1.89,1.89v1.88c0,1.05,.85,1.89,1.89,1.89h7.55c1.05,0,1.89-.85,1.89-1.89v-1.88s0-.03,0-.05l.03-.62c0-.52,.42-.94,.94-.94h4.71v-.29h-7.51Z"/>
      </g>
      <g>
        <rect x="62.36" y="79.37" width="11.34" height="17.01" rx="1.89" ry="1.89"/>
        <path d="M49.19,90.71h-.05s0,0,0,0h-7.55c-1.05,0-1.89,.85-1.89,1.89v7.55c0,1.05,.85,1.89,1.89,1.89h7.55c1.05,0,1.89-.85,1.89-1.89v-7.55s0-.03,0-.05l.03-.62c0-.52,.42-.94,.94-.94h4.71v-.29h-7.51Z"/>
        <path d="M64.2,79.37h.05s0,0,0,0h7.55c1.05,0,1.89,.85,1.89,1.89v7.55c0,1.05-.85,1.89-1.89,1.89h-7.55c-1.05,0-1.89-.85-1.89-1.89v-7.55s0-.03,0-.05l-.03-.62c0-.52-.42-.94-.94-.94h-4.71v-.29h7.51Z"/>
        <path d="M64.2,102.05h.05s0,0,0,0h7.55c1.05,0,1.89-.85,1.89-1.89v-7.55c0-1.05-.85-1.89-1.89-1.89h-7.55c-1.05,0-1.89,.85-1.89,1.89v7.55s0,.03,0,.05l-.03,.62c0,.52-.42,.94-.94,.94h-4.71v.29h7.51Z"/>
        <path d="M64.13,91h.05s0,0,0,0h7.55c1.05,0,1.89-.85,1.89-1.89v-7.55c0-1.05-.85-1.89-1.89-1.89h-7.55c-1.05,0-1.89,.85-1.89,1.89v7.55s0,.03,0,.05l-.03,.62c0,.52-.42,.94-.94,.94h-4.71v.29h7.51Z"/>
        <path d="M49.19,102.05h-.05s0,0,0,0h-7.55c-1.05,0-1.89-.85-1.89-1.89v-7.55c0-1.05,.85-1.89,1.89-1.89h7.55c1.05,0,1.89,.85,1.89,1.89v7.55s0,.03,0,.05l.03,.62c0,.52,.42,.94,.94,.94h4.71v.29h-7.51Z"/>
        <path d="M49.19,79.37h-.05s0,0,0,0h-7.55c-1.05,0-1.89,.85-1.89,1.89v1.88c0,1.05,.85,1.89,1.89,1.89h7.55c1.05,0,1.89-.85,1.89-1.89v-1.88s0-.03,0-.05l.03-.62c0-.52,.42-.94,.94-.94h4.71v-.29h-7.51Z"/>
      </g>
      <g>
        <rect x="249.45" y="79.37" width="11.34" height="22.68" rx="1.89" ry="1.89"/>
        <rect class="cls-1" x="249.45" y="68.03" width="11.34" height="5.67" rx="1.86" ry="1.86"/>
      </g>
      <rect x="158.74" y="68.03" width="11.34" height="34.02" rx="1.89" ry="1.89"/>
      <g>
        <rect class="cls-1" x="221.1" y="79.37" width="20.29" height=".28"/>
        <path d="M224.93,79.37h-.05s0,0,0,0h-7.55c-1.05,0-1.89,.85-1.89,1.89v7.55c0,1.05,.85,1.89,1.89,1.89h7.55c1.05,0,1.89-.85,1.89-1.89v-7.55s0-.03,0-.05l.03-.62c0-.52,.42-.94,.94-.94h4.71v-.29h-7.51Z"/>
        <path d="M234.28,79.37h.05s0,0,0,0h7.55c1.05,0,1.89,.85,1.89,1.89v1.88c0,1.05-.85,1.89-1.89,1.89h-7.55c-1.05,0-1.89-.85-1.89-1.89v-1.88s0-.03,0-.05l-.03-.62c0-.52-.42-.94-.94-.94h-4.71v-.29h7.51Z"/>
        <rect x="215.43" y="79.37" width="11.34" height="22.68" rx="1.89" ry="1.89"/>
      </g>
      <g>
        <rect x="102.05" y="85.04" width="11.34" height="17.01" rx="1.89" ry="1.89"/>
        <path d="M88.87,102.05h-.05s0,0,0,0h-7.55c-1.05,0-1.89-.85-1.89-1.89v-7.55c0-1.05,.85-1.89,1.89-1.89h7.55c1.05,0,1.89,.85,1.89,1.89v7.55s0,.03,0,.05l.03,.62c0,.52,.42,.94,.94,.94h4.71v.29h-7.51Z"/>
        <path d="M103.88,102.05h.05s0,0,0,0h7.55c1.05,0,1.89-.85,1.89-1.89v-7.55c0-1.05-.85-1.89-1.89-1.89h-7.55c-1.05,0-1.89,.85-1.89,1.89v7.55s0,.03,0,.05l-.03,.62c0,.52-.42,.94-.94,.94h-4.71v.29h7.51Z"/>
        <path d="M103.88,79.37h.05s0,0,0,0h7.55c1.05,0,1.89,.85,1.89,1.89v7.55c0,1.05-.85,1.89-1.89,1.89h-7.55c-1.05,0-1.89-.85-1.89-1.89v-7.55s0-.03,0-.05l-.03-.62c0-.52-.42-.94-.94-.94h-4.71v-.29h7.51Z"/>
        <path d="M88.87,79.37h-.05s0,0,0,0h-7.55c-1.05,0-1.89,.85-1.89,1.89v7.55c0,1.05,.85,1.89,1.89,1.89h7.55c1.05,0,1.89-.85,1.89-1.89v-7.55s0-.03,0-.05l.03-.62c0-.52,.42-.94,.94-.94h4.71v-.29h-7.51Z"/>
        <rect x="79.37" y="85.04" width="11.34" height="28.35" rx="1.89" ry="1.89"/>
      </g>
      <g>
        <rect x="22.68" y="85.04" width="11.34" height="17.01" rx="1.89" ry="1.89"/>
        <path d="M9.5,102.05h-.05s0,0,0,0H1.89C.85,102.05,0,101.2,0,100.15v-7.55C0,91.56,.85,90.71,1.89,90.71h7.55c1.05,0,1.89,.85,1.89,1.89v7.55s0,.03,0,.05l.03,.62c0,.52,.42,.94,.94,.94h4.71v.29h-7.51Z"/>
        <path d="M24.51,102.05h.05s0,0,0,0h7.55c1.05,0,1.89-.85,1.89-1.89v-7.55c0-1.05-.85-1.89-1.89-1.89h-7.55c-1.05,0-1.89,.85-1.89,1.89v7.55s0,.03,0,.05l-.03,.62c0,.52-.42,.94-.94,.94h-4.71v.29h7.51Z"/>
        <path d="M24.51,79.37h.05s0,0,0,0h7.55c1.05,0,1.89,.85,1.89,1.89v7.55c0,1.05-.85,1.89-1.89,1.89h-7.55c-1.05,0-1.89-.85-1.89-1.89v-7.55s0-.03,0-.05l-.03-.62c0-.52-.42-.94-.94-.94h-4.71v-.29h7.51Z"/>
        <path d="M9.5,79.37h-.05s0,0,0,0H1.89c-1.05,0-1.89,.85-1.89,1.89v7.55c0,1.05,.85,1.89,1.89,1.89h7.55c1.05,0,1.89-.85,1.89-1.89v-7.55s0-.03,0-.05l.03-.62c0-.52,.42-.94,.94-.94h4.71v-.29h-7.51Z"/>
        <rect y="85.04" width="11.34" height="28.35" rx="1.89" ry="1.89"/>
      </g>
      <g>
        <rect class="cls-1" x="124.72" y="90.43" width="25.96" height=".28"/>
        <path d="M143.57,90.71h.05s0,0,0,0h7.55c1.05,0,1.89-.85,1.89-1.89v-7.55c0-1.05-.85-1.89-1.89-1.89h-7.55c-1.05,0-1.89,.85-1.89,1.89v7.55s0,.03,0,.05l-.03,.62c0,.52-.42,.94-.94,.94h-4.71v.29h7.51Z"/>
        <path d="M128.56,79.37h-.05s0,0,0,0h-7.55c-1.05,0-1.89,.85-1.89,1.89v7.55c0,1.05,.85,1.89,1.89,1.89h7.55c1.05,0,1.89-.85,1.89-1.89v-7.55s0-.03,0-.05l.03-.62c0-.52,.42-.94,.94-.94h4.71v-.29h-7.51Z"/>
        <path d="M128.56,102.05h-.05s0,0,0,0h-7.55c-1.05,0-1.89-.85-1.89-1.89v-7.55c0-1.05,.85-1.89,1.89-1.89h7.55c1.05,0,1.89,.85,1.89,1.89v7.55s0,.03,0,.05l.03,.62c0,.52,.42,.94,.94,.94h4.71v.29h-7.51Z"/>
        <path d="M143.57,102.05h.05s0,0,0,0h7.55c1.05,0,1.89-.85,1.89-1.89v-1.88c0-1.05-.85-1.89-1.89-1.89h-7.55c-1.05,0-1.89,.85-1.89,1.89v1.88s0,.03,0,.05l-.03,.62c0,.52-.42,.94-.94,.94h-4.71v.29h7.51Z"/>
        <path d="M143.57,79.37h.05s0,0,0,0h7.55c1.05,0,1.89,.85,1.89,1.89v1.88c0,1.05-.85,1.89-1.89,1.89h-7.55c-1.05,0-1.89-.85-1.89-1.89v-1.88s0-.03,0-.05l-.03-.62c0-.52-.42-.94-.94-.94h-4.71v-.29h7.51Z"/>
        <rect x="119.06" y="79.37" width="11.34" height="22.68" rx="1.89" ry="1.89"/>
      </g>
      <g>
        <rect class="cls-1" x="181.42" y="90.43" width="25.96" height=".28"/>
        <path d="M200.26,90.71h.05s0,0,0,0h7.55c1.05,0,1.89-.85,1.89-1.89v-7.55c0-1.05-.85-1.89-1.89-1.89h-7.55c-1.05,0-1.89,.85-1.89,1.89v7.55s0,.03,0,.05l-.03,.62c0,.52-.42,.94-.94,.94h-4.71v.29h7.51Z"/>
        <path d="M185.25,79.37h-.05s0,0,0,0h-7.55c-1.05,0-1.89,.85-1.89,1.89v7.55c0,1.05,.85,1.89,1.89,1.89h7.55c1.05,0,1.89-.85,1.89-1.89v-7.55s0-.03,0-.05l.03-.62c0-.52,.42-.94,.94-.94h4.71v-.29h-7.51Z"/>
        <path d="M185.25,102.05h-.05s0,0,0,0h-7.55c-1.05,0-1.89-.85-1.89-1.89v-7.55c0-1.05,.85-1.89,1.89-1.89h7.55c1.05,0,1.89,.85,1.89,1.89v7.55s0,.03,0,.05l.03,.62c0,.52,.42,.94,.94,.94h4.71v.29h-7.51Z"/>
        <path d="M200.26,102.05h.05s0,0,0,0h7.55c1.05,0,1.89-.85,1.89-1.89v-1.88c0-1.05-.85-1.89-1.89-1.89h-7.55c-1.05,0-1.89,.85-1.89,1.89v1.88s0,.03,0,.05l-.03,.62c0,.52-.42,.94-.94,.94h-4.71v.29h7.51Z"/>
        <path d="M200.26,79.37h.05s0,0,0,0h7.55c1.05,0,1.89,.85,1.89,1.89v1.88c0,1.05-.85,1.89-1.89,1.89h-7.55c-1.05,0-1.89-.85-1.89-1.89v-1.88s0-.03,0-.05l-.03-.62c0-.52-.42-.94-.94-.94h-4.71v-.29h7.51Z"/>
        <rect x="175.75" y="79.37" width="11.34" height="22.68" rx="1.89" ry="1.89"/>
      </g>
    </g>
    <g>
      <rect x="117.16" y="255.12" width="11.34" height="17.01" rx="1.89" ry="1.89"/>
      <rect class="cls-1" x="156.85" y="266.17" width="25.96" height=".28"/>
      <path d="M30.28,255.12h-.05s0,0,0,0h-7.55c-1.05,0-1.89,.85-1.89,1.89v7.55c0,1.05,.85,1.89,1.89,1.89h7.55c1.05,0,1.89-.85,1.89-1.89v-7.55s0-.03,0-.05l.03-.62c0-.52,.42-.94,.94-.94h4.71v-.29h-7.51Z"/>
      <path d="M13.28,255.12h-.05s0,0,0,0H5.67c-1.05,0-1.89,.85-1.89,1.89v7.55c0,1.05,.85,1.89,1.89,1.89h7.55c1.05,0,1.89-.85,1.89-1.89v-7.55s0-.03,0-.05l.03-.62c0-.52,.42-.94,.94-.94h4.71v-.29h-7.51Z"/>
      <path d="M175.69,266.46h.05s0,0,0,0h7.55c1.05,0,1.89-.85,1.89-1.89v-7.55c0-1.05-.85-1.89-1.89-1.89h-7.55c-1.05,0-1.89,.85-1.89,1.89v7.55s0,.03,0,.05l-.03,.62c0,.52-.42,.94-.94,.94h-4.71v.29h7.51Z"/>
      <path d="M39.63,255.12h.05s0,0,0,0h7.55c1.05,0,1.89,.85,1.89,1.89v1.88c0,1.05-.85,1.89-1.89,1.89h-7.55c-1.05,0-1.89-.85-1.89-1.89v-1.88s0-.03,0-.05l-.03-.62c0-.52-.42-.94-.94-.94h-4.71v-.29h7.51Z"/>
      <path d="M22.62,255.12h.05s0,0,0,0h7.55c1.05,0,1.89,.85,1.89,1.89v1.88c0,1.05-.85,1.89-1.89,1.89h-7.55c-1.05,0-1.89-.85-1.89-1.89v-1.88s0-.03,0-.05l-.03-.62c0-.52-.42-.94-.94-.94h-4.71v-.29h7.51Z"/>
      <path d="M103.98,255.12h-.05s0,0,0,0h-7.55c-1.05,0-1.89,.85-1.89,1.89v7.55c0,1.05,.85,1.89,1.89,1.89h7.55c1.05,0,1.89-.85,1.89-1.89v-7.55s0-.03,0-.05l.03-.62c0-.52,.42-.94,.94-.94h4.71v-.29h-7.51Z"/>
      <path d="M119,255.12h.05s0,0,0,0h7.55c1.05,0,1.89,.85,1.89,1.89v7.55c0,1.05-.85,1.89-1.89,1.89h-7.55c-1.05,0-1.89-.85-1.89-1.89v-7.55s0-.03,0-.05l-.03-.62c0-.52-.42-.94-.94-.94h-4.71v-.29h7.51Z"/>
      <path d="M119,277.8h.05s0,0,0,0h7.55c1.05,0,1.89-.85,1.89-1.89v-7.55c0-1.05-.85-1.89-1.89-1.89h-7.55c-1.05,0-1.89,.85-1.89,1.89v7.55s0,.03,0,.05l-.03,.62c0,.52-.42,.94-.94,.94h-4.71v.29h7.51Z"/>
      <path d="M103.98,277.8h-.05s0,0,0,0h-7.55c-1.05,0-1.89-.85-1.89-1.89v-7.55c0-1.05,.85-1.89,1.89-1.89h7.55c1.05,0,1.89,.85,1.89,1.89v7.55s0,.03,0,.05l.03,.62c0,.52,.42,.94,.94,.94h4.71v.29h-7.51Z"/>
      <rect x="94.48" y="243.78" width="11.34" height="28.35" rx="1.89" ry="1.89"/>
      <path d="M160.68,255.12h-.05s0,0,0,0h-7.55c-1.05,0-1.89,.85-1.89,1.89v7.55c0,1.05,.85,1.89,1.89,1.89h7.55c1.05,0,1.89-.85,1.89-1.89v-7.55s0-.03,0-.05l.03-.62c0-.52,.42-.94,.94-.94h4.71v-.29h-7.51Z"/>
      <path d="M160.68,277.8h-.05s0,0,0,0h-7.55c-1.05,0-1.89-.85-1.89-1.89v-7.55c0-1.05,.85-1.89,1.89-1.89h7.55c1.05,0,1.89,.85,1.89,1.89v7.55s0,.03,0,.05l.03,.62c0,.52,.42,.94,.94,.94h4.71v.29h-7.51Z"/>
      <path d="M175.69,277.8h.05s0,0,0,0h7.55c1.05,0,1.89-.85,1.89-1.89v-1.88c0-1.05-.85-1.89-1.89-1.89h-7.55c-1.05,0-1.89,.85-1.89,1.89v1.88s0,.03,0,.05l-.03,.62c0,.52-.42,.94-.94,.94h-4.71v.29h7.51Z"/>
      <path d="M175.69,255.12h.05s0,0,0,0h7.55c1.05,0,1.89,.85,1.89,1.89v1.88c0,1.05-.85,1.89-1.89,1.89h-7.55c-1.05,0-1.89-.85-1.89-1.89v-1.88s0-.03,0-.05l-.03-.62c0-.52-.42-.94-.94-.94h-4.71v-.29h7.51Z"/>
      <rect x="151.18" y="255.12" width="11.34" height="22.68" rx="1.89" ry="1.89"/>
      <rect x="134.17" y="243.78" width="11.34" height="34.02" rx="1.89" ry="1.89"/>
      <rect x="3.77" y="255.12" width="11.34" height="22.68" rx="1.89" ry="1.89"/>
      <rect x="20.78" y="255.12" width="11.34" height="22.68" rx="1.89" ry="1.89"/>
      <rect x="37.79" y="255.12" width="11.34" height="22.68" rx="1.89" ry="1.89"/>
      <path d="M215.38,266.46h.05s0,0,0,0h7.55c1.05,0,1.89,.85,1.89,1.89v7.55c0,1.05-.85,1.89-1.89,1.89h-7.55c-1.05,0-1.89-.85-1.89-1.89v-7.55s0-.03,0-.05l-.03-.62c0-.52-.42-.94-.94-.94h-4.71v-.29h7.51Z"/>
      <path d="M215.38,277.8h.05s0,0,0,0h7.55c1.05,0,1.89-.85,1.89-1.89v-7.55c0-1.05-.85-1.89-1.89-1.89h-7.55c-1.05,0-1.89,.85-1.89,1.89v7.55s0,.03,0,.05l-.03,.62c0,.52-.42,.94-.94,.94h-4.71v.29h7.51Z"/>
      <path d="M200.36,266.74h-.05s0,0,0,0h-7.55c-1.05,0-1.89-.85-1.89-1.89v-7.55c0-1.05,.85-1.89,1.89-1.89h7.55c1.05,0,1.89,.85,1.89,1.89v7.55s0,.03,0,.05l.03,.62c0,.52,.42,.94,.94,.94h4.71v.29h-7.51Z"/>
      <path d="M200.36,277.8h-.05s0,0,0,0h-7.55c-1.05,0-1.89-.85-1.89-1.89v-1.88c0-1.05,.85-1.89,1.89-1.89h7.55c1.05,0,1.89,.85,1.89,1.89v1.88s0,.03,0,.05l.03,.62c0,.52,.42,.94,.94,.94h4.71v.29h-7.51Z"/>
      <path d="M200.36,255.12h-.05s0,0,0,0h-7.55c-1.05,0-1.89,.85-1.89,1.89v7.55c0,1.05,.85,1.89,1.89,1.89h7.55c1.05,0,1.89-.85,1.89-1.89v-7.55s0-.03,0-.05l.03-.62c0-.52,.42-.94,.94-.94h4.71v-.29h-7.51Z"/>
      <path d="M215.38,255.12h.05s0,0,0,0h7.55c1.05,0,1.89,.85,1.89,1.89v1.88c0,1.05-.85,1.89-1.89,1.89h-7.55c-1.05,0-1.89-.85-1.89-1.89v-1.88s0-.03,0-.05l-.03-.62c0-.52-.42-.94-.94-.94h-4.71v-.29h7.51Z"/>
      <rect x="54.8" y="255.12" width="11.34" height="17.01" rx="1.89" ry="1.89" transform="translate(120.93 527.24) rotate(180)"/>
      <path d="M79.31,255.12h.05s0,0,0,0h7.55c1.05,0,1.89,.85,1.89,1.89v7.55c0,1.05-.85,1.89-1.89,1.89h-7.55c-1.05,0-1.89-.85-1.89-1.89v-7.55s0-.03,0-.05l-.03-.62c0-.52-.42-.94-.94-.94h-4.71v-.29h7.51Z"/>
      <path d="M64.3,255.12h-.05s0,0,0,0h-7.55c-1.05,0-1.89,.85-1.89,1.89v7.55c0,1.05,.85,1.89,1.89,1.89h7.55c1.05,0,1.89-.85,1.89-1.89v-7.55s0-.03,0-.05l.03-.62c0-.52,.42-.94,.94-.94h4.71v-.29h-7.51Z"/>
      <path d="M64.3,277.8h-.05s0,0,0,0h-7.55c-1.05,0-1.89-.85-1.89-1.89v-7.55c0-1.05,.85-1.89,1.89-1.89h7.55c1.05,0,1.89,.85,1.89,1.89v7.55s0,.03,0,.05l.03,.62c0,.52,.42,.94,.94,.94h4.71v.29h-7.51Z"/>
      <path d="M79.31,277.8h.05s0,0,0,0h7.55c1.05,0,1.89-.85,1.89-1.89v-7.55c0-1.05-.85-1.89-1.89-1.89h-7.55c-1.05,0-1.89,.85-1.89,1.89v7.55s0,.03,0,.05l-.03,.62c0,.52-.42,.94-.94,.94h-4.71v.29h7.51Z"/>
      <rect x="77.48" y="255.12" width="11.34" height="17.01" rx="1.89" ry="1.89" transform="translate(166.29 527.24) rotate(180)"/>
    </g>
  </g>
</svg>