<?xml version="1.0" encoding="UTF-8"?>
<svg id="Calque_2" data-name="Calque 2" xmlns="http://www.w3.org/2000/svg" viewBox="0 0 322.65 317.48">
  <defs>
    <style>
      .cls-1 {
        fill: #1d1d1b;
      }
    </style>
  </defs>
  <g id="Calque_1-2" data-name="Calque 1">
    <g>
      <g>
        <rect x="223" y="283.46" width="11.34" height="17.01" rx="1.89" ry="1.89"/>
        <path d="M209.82,294.8h-.05s0,0,0,0h-7.55c-1.05,0-1.89,.85-1.89,1.89v7.55c0,1.05,.85,1.89,1.89,1.89h7.55c1.05,0,1.89-.85,1.89-1.89v-7.55s0-.03,0-.05l.03-.62c0-.52,.42-.94,.94-.94h4.71v-.29h-7.51Z"/>
        <path d="M224.83,283.46h.05s0,0,0,0h7.55c1.05,0,1.89,.85,1.89,1.89v7.55c0,1.05-.85,1.89-1.89,1.89h-7.55c-1.05,0-1.89-.85-1.89-1.89v-7.55s0-.03,0-.05l-.03-.62c0-.52-.42-.94-.94-.94h-4.71v-.29h7.51Z"/>
        <path d="M224.83,306.14h.05s0,0,0,0h7.55c1.05,0,1.89-.85,1.89-1.89v-7.55c0-1.05-.85-1.89-1.89-1.89h-7.55c-1.05,0-1.89,.85-1.89,1.89v7.55s0,.03,0,.05l-.03,.62c0,.52-.42,.94-.94,.94h-4.71v.29h7.51Z"/>
        <path d="M224.77,295.09h.05s0,0,0,0h7.55c1.05,0,1.89-.85,1.89-1.89v-7.55c0-1.05-.85-1.89-1.89-1.89h-7.55c-1.05,0-1.89,.85-1.89,1.89v7.55s0,.03,0,.05l-.03,.62c0,.52-.42,.94-.94,.94h-4.71v.29h7.51Z"/>
        <path d="M209.82,306.14h-.05s0,0,0,0h-7.55c-1.05,0-1.89-.85-1.89-1.89v-7.55c0-1.05,.85-1.89,1.89-1.89h7.55c1.05,0,1.89,.85,1.89,1.89v7.55s0,.03,0,.05l.03,.62c0,.52,.42,.94,.94,.94h4.71v.29h-7.51Z"/>
        <path d="M209.82,283.46h-.05s0,0,0,0h-7.55c-1.05,0-1.89,.85-1.89,1.89v1.88c0,1.05,.85,1.89,1.89,1.89h7.55c1.05,0,1.89-.85,1.89-1.89v-1.88s0-.03,0-.05l.03-.62c0-.52,.42-.94,.94-.94h4.71v-.29h-7.51Z"/>
      </g>
      <g>
        <rect x="24.57" y="283.46" width="11.34" height="17.01" rx="1.89" ry="1.89"/>
        <path d="M11.4,283.46h-.05s0,0,0,0H3.79c-1.05,0-1.89,.85-1.89,1.89v7.55c0,1.05,.85,1.89,1.89,1.89h7.55c1.05,0,1.89-.85,1.89-1.89v-7.55s0-.03,0-.05l.03-.62c0-.52,.42-.94,.94-.94h4.71v-.29h-7.51Z"/>
        <path d="M26.41,283.46h.05s0,0,0,0h7.55c1.05,0,1.89,.85,1.89,1.89v7.55c0,1.05-.85,1.89-1.89,1.89h-7.55c-1.05,0-1.89-.85-1.89-1.89v-7.55s0-.03,0-.05l-.03-.62c0-.52-.42-.94-.94-.94h-4.71v-.29h7.51Z"/>
        <path d="M26.41,306.14h.05s0,0,0,0h7.55c1.05,0,1.89-.85,1.89-1.89v-7.55c0-1.05-.85-1.89-1.89-1.89h-7.55c-1.05,0-1.89,.85-1.89,1.89v7.55s0,.03,0,.05l-.03,.62c0,.52-.42,.94-.94,.94h-4.71v.29h7.51Z"/>
        <path d="M11.4,306.14h-.05s0,0,0,0H3.79c-1.05,0-1.89-.85-1.89-1.89v-7.55c0-1.05,.85-1.89,1.89-1.89h7.55c1.05,0,1.89,.85,1.89,1.89v7.55s0,.03,0,.05l.03,.62c0,.52,.42,.94,.94,.94h4.71v.29h-7.51Z"/>
        <rect x="1.89" y="272.13" width="11.34" height="28.35" rx="1.89" ry="1.89"/>
      </g>
      <g>
        <rect class="cls-1" x="126.62" y="294.52" width="25.96" height=".28"/>
        <path d="M145.46,294.8h.05s0,0,0,0h7.55c1.05,0,1.89-.85,1.89-1.89v-7.55c0-1.05-.85-1.89-1.89-1.89h-7.55c-1.05,0-1.89,.85-1.89,1.89v7.55s0,.03,0,.05l-.03,.62c0,.52-.42,.94-.94,.94h-4.71v.29h7.51Z"/>
        <path d="M130.45,283.46h-.05s0,0,0,0h-7.55c-1.05,0-1.89,.85-1.89,1.89v7.55c0,1.05,.85,1.89,1.89,1.89h7.55c1.05,0,1.89-.85,1.89-1.89v-7.55s0-.03,0-.05l.03-.62c0-.52,.42-.94,.94-.94h4.71v-.29h-7.51Z"/>
        <path d="M130.45,306.14h-.05s0,0,0,0h-7.55c-1.05,0-1.89-.85-1.89-1.89v-7.55c0-1.05,.85-1.89,1.89-1.89h7.55c1.05,0,1.89,.85,1.89,1.89v7.55s0,.03,0,.05l.03,.62c0,.52,.42,.94,.94,.94h4.71v.29h-7.51Z"/>
        <path d="M145.46,306.14h.05s0,0,0,0h7.55c1.05,0,1.89-.85,1.89-1.89v-1.88c0-1.05-.85-1.89-1.89-1.89h-7.55c-1.05,0-1.89,.85-1.89,1.89v1.88s0,.03,0,.05l-.03,.62c0,.52-.42,.94-.94,.94h-4.71v.29h7.51Z"/>
        <path d="M145.46,283.46h.05s0,0,0,0h7.55c1.05,0,1.89,.85,1.89,1.89v1.88c0,1.05-.85,1.89-1.89,1.89h-7.55c-1.05,0-1.89-.85-1.89-1.89v-1.88s0-.03,0-.05l-.03-.62c0-.52-.42-.94-.94-.94h-4.71v-.29h7.51Z"/>
        <rect x="120.95" y="283.46" width="11.34" height="22.68" rx="1.89" ry="1.89"/>
      </g>
      <g>
        <path d="M170.14,317.48h-.05s0,0,0,0h-7.55c-1.05,0-1.89-.85-1.89-1.89v-1.88c0-1.05,.85-1.89,1.89-1.89h7.55c1.05,0,1.89,.85,1.89,1.89v1.88s0,.03,0,.05l.03,.62c0,.52,.42,.94,.94,.94h4.71v.29h-7.51Z"/>
        <path d="M185.15,317.48h.05s0,0,0,0h7.55c1.05,0,1.89-.85,1.89-1.89v-1.88c0-1.05-.85-1.89-1.89-1.89h-7.55c-1.05,0-1.89,.85-1.89,1.89v1.88s0,.03,0,.05l-.03,.62c0,.52-.42,.94-.94,.94h-4.71v.29h7.51Z"/>
        <path d="M170.14,283.46h-.05s0,0,0,0h-7.55c-1.05,0-1.89,.85-1.89,1.89v7.55c0,1.05,.85,1.89,1.89,1.89h7.55c1.05,0,1.89-.85,1.89-1.89v-7.55s0-.03,0-.05l.03-.62c0-.52,.42-.94,.94-.94h4.71v-.29h-7.51Z"/>
        <path d="M170.14,306.14h-.05s0,0,0,0h-7.55c-1.05,0-1.89-.85-1.89-1.89v-7.55c0-1.05,.85-1.89,1.89-1.89h7.55c1.05,0,1.89,.85,1.89,1.89v7.55s0,.03,0,.05l.03,.62c0,.52,.42,.94,.94,.94h4.71v.29h-7.51Z"/>
        <path d="M185.15,306.14h.05s0,0,0,0h7.55c1.05,0,1.89-.85,1.89-1.89v-1.88c0-1.05-.85-1.89-1.89-1.89h-7.55c-1.05,0-1.89,.85-1.89,1.89v1.88s0,.03,0,.05l-.03,.62c0,.52-.42,.94-.94,.94h-4.71v.29h7.51Z"/>
        <path d="M185.15,283.46h.05s0,0,0,0h7.55c1.05,0,1.89,.85,1.89,1.89v1.88c0,1.05-.85,1.89-1.89,1.89h-7.55c-1.05,0-1.89-.85-1.89-1.89v-1.88s0-.03,0-.05l-.03-.62c0-.52-.42-.94-.94-.94h-4.71v-.29h7.51Z"/>
        <rect x="160.63" y="283.46" width="11.34" height="22.68" rx="1.89" ry="1.89"/>
        <rect x="183.31" y="283.46" width="11.34" height="22.68" rx="1.89" ry="1.89"/>
        <rect x="183.31" y="283.46" width="11.34" height="34.02" rx="1.89" ry="1.89"/>
      </g>
      <g>
        <rect x="81.26" y="283.46" width="11.34" height="17.01" rx="1.89" ry="1.89" transform="translate(173.87 583.94) rotate(180)"/>
        <path d="M105.78,283.46h.05s0,0,0,0h7.55c1.05,0,1.89,.85,1.89,1.89v7.55c0,1.05-.85,1.89-1.89,1.89h-7.55c-1.05,0-1.89-.85-1.89-1.89v-7.55s0-.03,0-.05l-.03-.62c0-.52-.42-.94-.94-.94h-4.71v-.29h7.51Z"/>
        <path d="M90.77,283.46h-.05s0,0,0,0h-7.55c-1.05,0-1.89,.85-1.89,1.89v7.55c0,1.05,.85,1.89,1.89,1.89h7.55c1.05,0,1.89-.85,1.89-1.89v-7.55s0-.03,0-.05l.03-.62c0-.52,.42-.94,.94-.94h4.71v-.29h-7.51Z"/>
        <path d="M90.77,306.14h-.05s0,0,0,0h-7.55c-1.05,0-1.89-.85-1.89-1.89v-7.55c0-1.05,.85-1.89,1.89-1.89h7.55c1.05,0,1.89,.85,1.89,1.89v7.55s0,.03,0,.05l.03,.62c0,.52,.42,.94,.94,.94h4.71v.29h-7.51Z"/>
        <path d="M105.78,306.14h.05s0,0,0,0h7.55c1.05,0,1.89-.85,1.89-1.89v-7.55c0-1.05-.85-1.89-1.89-1.89h-7.55c-1.05,0-1.89,.85-1.89,1.89v7.55s0,.03,0,.05l-.03,.62c0,.52-.42,.94-.94,.94h-4.71v.29h7.51Z"/>
        <rect x="103.94" y="272.13" width="11.34" height="28.35" rx="1.89" ry="1.89" transform="translate(219.22 572.6) rotate(180)"/>
      </g>
      <g>
        <rect x="41.58" y="283.46" width="11.34" height="17.01" rx="1.89" ry="1.89" transform="translate(94.5 583.94) rotate(180)"/>
        <path d="M66.09,283.46h.05s0,0,0,0h7.55c1.05,0,1.89,.85,1.89,1.89v7.55c0,1.05-.85,1.89-1.89,1.89h-7.55c-1.05,0-1.89-.85-1.89-1.89v-7.55s0-.03,0-.05l-.03-.62c0-.52-.42-.94-.94-.94h-4.71v-.29h7.51Z"/>
        <path d="M51.08,283.46h-.05s0,0,0,0h-7.55c-1.05,0-1.89,.85-1.89,1.89v7.55c0,1.05,.85,1.89,1.89,1.89h7.55c1.05,0,1.89-.85,1.89-1.89v-7.55s0-.03,0-.05l.03-.62c0-.52,.42-.94,.94-.94h4.71v-.29h-7.51Z"/>
        <path d="M51.08,306.14h-.05s0,0,0,0h-7.55c-1.05,0-1.89-.85-1.89-1.89v-7.55c0-1.05,.85-1.89,1.89-1.89h7.55c1.05,0,1.89,.85,1.89,1.89v7.55s0,.03,0,.05l.03,.62c0,.52,.42,.94,.94,.94h4.71v.29h-7.51Z"/>
        <path d="M66.09,306.14h.05s0,0,0,0h7.55c1.05,0,1.89-.85,1.89-1.89v-7.55c0-1.05-.85-1.89-1.89-1.89h-7.55c-1.05,0-1.89,.85-1.89,1.89v7.55s0,.03,0,.05l-.03,.62c0,.52-.42,.94-.94,.94h-4.71v.29h7.51Z"/>
        <rect x="64.26" y="283.46" width="11.34" height="17.01" rx="1.89" ry="1.89" transform="translate(139.85 583.94) rotate(180)"/>
      </g>
    </g>
    <g>
      <g>
        <rect x="311.32" y="11.34" width="11.34" height="17.01" rx="1.89" ry="1.89"/>
        <path d="M298.14,22.68h-.05s0,0,0,0h-7.55c-1.05,0-1.89,.85-1.89,1.89v7.55c0,1.05,.85,1.89,1.89,1.89h7.55c1.05,0,1.89-.85,1.89-1.89v-7.55s0-.03,0-.05l.03-.62c0-.52,.42-.94,.94-.94h4.71v-.29h-7.51Z"/>
        <path d="M313.15,11.34h.05s0,0,0,0h7.55c1.05,0,1.89,.85,1.89,1.89v7.55c0,1.05-.85,1.89-1.89,1.89h-7.55c-1.05,0-1.89-.85-1.89-1.89v-7.55s0-.03,0-.05l-.03-.62c0-.52-.42-.94-.94-.94h-4.71v-.29h7.51Z"/>
        <path d="M313.15,34.02h.05s0,0,0,0h7.55c1.05,0,1.89-.85,1.89-1.89v-7.55c0-1.05-.85-1.89-1.89-1.89h-7.55c-1.05,0-1.89,.85-1.89,1.89v7.55s0,.03,0,.05l-.03,.62c0,.52-.42,.94-.94,.94h-4.71v.29h7.51Z"/>
        <path d="M313.09,22.97h.05s0,0,0,0h7.55c1.05,0,1.89-.85,1.89-1.89v-7.55c0-1.05-.85-1.89-1.89-1.89h-7.55c-1.05,0-1.89,.85-1.89,1.89v7.55s0,.03,0,.05l-.03,.62c0,.52-.42,.94-.94,.94h-4.71v.29h7.51Z"/>
        <path d="M298.14,34.02h-.05s0,0,0,0h-7.55c-1.05,0-1.89-.85-1.89-1.89v-7.55c0-1.05,.85-1.89,1.89-1.89h7.55c1.05,0,1.89,.85,1.89,1.89v7.55s0,.03,0,.05l.03,.62c0,.52,.42,.94,.94,.94h4.71v.29h-7.51Z"/>
        <path d="M298.14,11.34h-.05s0,0,0,0h-7.55c-1.05,0-1.89,.85-1.89,1.89v1.88c0,1.05,.85,1.89,1.89,1.89h7.55c1.05,0,1.89-.85,1.89-1.89v-1.88s0-.03,0-.05l.03-.62c0-.52,.42-.94,.94-.94h4.71v-.29h-7.51Z"/>
      </g>
      <g>
        <rect class="cls-1" x="1.89" y="16.72" width="25.96" height=".28"/>
        <path d="M14.67,0h-.05s0,0,0,0H7.07c-1.05,0-1.89,.85-1.89,1.89v7.55c0,1.05,.85,1.89,1.89,1.89h7.55c1.05,0,1.89-.85,1.89-1.89V1.89s0-.03,0-.05l.03-.62c0-.52,.42-.94,.94-.94h4.71v-.29h-7.51Z"/>
        <path d="M24.02,0h.05s0,0,0,0h7.55c1.05,0,1.89,.85,1.89,1.89v1.88c0,1.05-.85,1.89-1.89,1.89h-7.55c-1.05,0-1.89-.85-1.89-1.89V1.89s0-.03,0-.05l-.03-.62c0-.52-.42-.94-.94-.94h-4.71v-.29h7.51Z"/>
        <rect x="5.17" width="11.34" height="34.02" rx="1.89" ry="1.89"/>
      </g>
      <g>
        <path d="M162.08,11.34h-.05s0,0,0,0h-7.55c-1.05,0-1.89,.85-1.89,1.89v7.55c0,1.05,.85,1.89,1.89,1.89h7.55c1.05,0,1.89-.85,1.89-1.89v-7.55s0-.03,0-.05l.03-.62c0-.52,.42-.94,.94-.94h4.71v-.29h-7.51Z"/>
        <path d="M162.08,34.02h-.05s0,0,0,0h-7.55c-1.05,0-1.89-.85-1.89-1.89v-7.55c0-1.05,.85-1.89,1.89-1.89h7.55c1.05,0,1.89,.85,1.89,1.89v7.55s0,.03,0,.05l.03,.62c0,.52,.42,.94,.94,.94h4.71v.29h-7.51Z"/>
        <path d="M177.09,34.02h.05s0,0,0,0h7.55c1.05,0,1.89-.85,1.89-1.89v-1.88c0-1.05-.85-1.89-1.89-1.89h-7.55c-1.05,0-1.89,.85-1.89,1.89v1.88s0,.03,0,.05l-.03,.62c0,.52-.42,.94-.94,.94h-4.71v.29h7.51Z"/>
        <path d="M177.09,11.34h.05s0,0,0,0h7.55c1.05,0,1.89,.85,1.89,1.89v1.88c0,1.05-.85,1.89-1.89,1.89h-7.55c-1.05,0-1.89-.85-1.89-1.89v-1.88s0-.03,0-.05l-.03-.62c0-.52-.42-.94-.94-.94h-4.71v-.29h7.51Z"/>
        <rect x="152.58" y="11.34" width="11.34" height="22.68" rx="1.89" ry="1.89"/>
      </g>
      <g>
        <rect x="271.63" y="11.34" width="11.34" height="22.68" rx="1.89" ry="1.89"/>
        <rect class="cls-1" x="271.63" width="11.34" height="5.67" rx="1.86" ry="1.86"/>
      </g>
      <g>
        <rect x="254.62" y="17.01" width="11.34" height="17.01" rx="1.89" ry="1.89"/>
        <path d="M241.45,34.02h-.05s0,0,0,0h-7.55c-1.05,0-1.89-.85-1.89-1.89v-7.55c0-1.05,.85-1.89,1.89-1.89h7.55c1.05,0,1.89,.85,1.89,1.89v7.55s0,.03,0,.05l.03,.62c0,.52,.42,.94,.94,.94h4.71v.29h-7.51Z"/>
        <path d="M256.46,34.02h.05s0,0,0,0h7.55c1.05,0,1.89-.85,1.89-1.89v-7.55c0-1.05-.85-1.89-1.89-1.89h-7.55c-1.05,0-1.89,.85-1.89,1.89v7.55s0,.03,0,.05l-.03,.62c0,.52-.42,.94-.94,.94h-4.71v.29h7.51Z"/>
        <path d="M256.46,11.34h.05s0,0,0,0h7.55c1.05,0,1.89,.85,1.89,1.89v7.55c0,1.05-.85,1.89-1.89,1.89h-7.55c-1.05,0-1.89-.85-1.89-1.89v-7.55s0-.03,0-.05l-.03-.62c0-.52-.42-.94-.94-.94h-4.71v-.29h7.51Z"/>
        <path d="M241.45,11.34h-.05s0,0,0,0h-7.55c-1.05,0-1.89,.85-1.89,1.89v7.55c0,1.05,.85,1.89,1.89,1.89h7.55c1.05,0,1.89-.85,1.89-1.89v-7.55s0-.03,0-.05l.03-.62c0-.52,.42-.94,.94-.94h4.71v-.29h-7.51Z"/>
        <rect x="231.95" y="17.01" width="11.34" height="28.35" rx="1.89" ry="1.89"/>
      </g>
      <g>
        <rect x="112.89" y="11.34" width="11.34" height="17.01" rx="1.89" ry="1.89" transform="translate(237.12 39.69) rotate(180)"/>
        <path d="M137.4,11.34h.05s0,0,0,0h7.55c1.05,0,1.89,.85,1.89,1.89v7.55c0,1.05-.85,1.89-1.89,1.89h-7.55c-1.05,0-1.89-.85-1.89-1.89v-7.55s0-.03,0-.05l-.03-.62c0-.52-.42-.94-.94-.94h-4.71v-.29h7.51Z"/>
        <path d="M122.39,11.34h-.05s0,0,0,0h-7.55c-1.05,0-1.89,.85-1.89,1.89v7.55c0,1.05,.85,1.89,1.89,1.89h7.55c1.05,0,1.89-.85,1.89-1.89v-7.55s0-.03,0-.05l.03-.62c0-.52,.42-.94,.94-.94h4.71v-.29h-7.51Z"/>
        <path d="M122.39,34.02h-.05s0,0,0,0h-7.55c-1.05,0-1.89-.85-1.89-1.89v-7.55c0-1.05,.85-1.89,1.89-1.89h7.55c1.05,0,1.89,.85,1.89,1.89v7.55s0,.03,0,.05l.03,.62c0,.52,.42,.94,.94,.94h4.71v.29h-7.51Z"/>
        <path d="M137.4,34.02h.05s0,0,0,0h7.55c1.05,0,1.89-.85,1.89-1.89v-7.55c0-1.05-.85-1.89-1.89-1.89h-7.55c-1.05,0-1.89,.85-1.89,1.89v7.55s0,.03,0,.05l-.03,.62c0,.52-.42,.94-.94,.94h-4.71v.29h7.51Z"/>
        <rect x="135.57" y="11.34" width="11.34" height="17.01" rx="1.89" ry="1.89" transform="translate(282.47 39.69) rotate(180)"/>
      </g>
      <g>
        <rect x="192.26" y="11.34" width="11.34" height="17.01" rx="1.89" ry="1.89" transform="translate(395.86 39.69) rotate(180)"/>
        <path d="M216.77,11.34h.05s0,0,0,0h7.55c1.05,0,1.89,.85,1.89,1.89v7.55c0,1.05-.85,1.89-1.89,1.89h-7.55c-1.05,0-1.89-.85-1.89-1.89v-7.55s0-.03,0-.05l-.03-.62c0-.52-.42-.94-.94-.94h-4.71v-.29h7.51Z"/>
        <path d="M201.76,11.34h-.05s0,0,0,0h-7.55c-1.05,0-1.89,.85-1.89,1.89v7.55c0,1.05,.85,1.89,1.89,1.89h7.55c1.05,0,1.89-.85,1.89-1.89v-7.55s0-.03,0-.05l.03-.62c0-.52,.42-.94,.94-.94h4.71v-.29h-7.51Z"/>
        <path d="M201.76,34.02h-.05s0,0,0,0h-7.55c-1.05,0-1.89-.85-1.89-1.89v-7.55c0-1.05,.85-1.89,1.89-1.89h7.55c1.05,0,1.89,.85,1.89,1.89v7.55s0,.03,0,.05l.03,.62c0,.52,.42,.94,.94,.94h4.71v.29h-7.51Z"/>
        <path d="M216.77,34.02h.05s0,0,0,0h7.55c1.05,0,1.89-.85,1.89-1.89v-7.55c0-1.05-.85-1.89-1.89-1.89h-7.55c-1.05,0-1.89,.85-1.89,1.89v7.55s0,.03,0,.05l-.03,.62c0,.52-.42,.94-.94,.94h-4.71v.29h7.51Z"/>
        <rect x="214.94" y="11.34" width="11.34" height="17.01" rx="1.89" ry="1.89" transform="translate(441.21 39.69) rotate(180)"/>
      </g>
      <g>
        <rect x="33.52" y="11.34" width="11.34" height="17.01" rx="1.89" ry="1.89" transform="translate(78.38 39.69) rotate(180)"/>
        <path d="M58.03,11.34h.05s0,0,0,0h7.55c1.05,0,1.89,.85,1.89,1.89v7.55c0,1.05-.85,1.89-1.89,1.89h-7.55c-1.05,0-1.89-.85-1.89-1.89v-7.55s0-.03,0-.05l-.03-.62c0-.52-.42-.94-.94-.94h-4.71v-.29h7.51Z"/>
        <path d="M43.02,11.34h-.05s0,0,0,0h-7.55c-1.05,0-1.89,.85-1.89,1.89v7.55c0,1.05,.85,1.89,1.89,1.89h7.55c1.05,0,1.89-.85,1.89-1.89v-7.55s0-.03,0-.05l.03-.62c0-.52,.42-.94,.94-.94h4.71v-.29h-7.51Z"/>
        <path d="M43.02,34.02h-.05s0,0,0,0h-7.55c-1.05,0-1.89-.85-1.89-1.89v-7.55c0-1.05,.85-1.89,1.89-1.89h7.55c1.05,0,1.89,.85,1.89,1.89v7.55s0,.03,0,.05l.03,.62c0,.52,.42,.94,.94,.94h4.71v.29h-7.51Z"/>
        <path d="M58.03,34.02h.05s0,0,0,0h7.55c1.05,0,1.89-.85,1.89-1.89v-7.55c0-1.05-.85-1.89-1.89-1.89h-7.55c-1.05,0-1.89,.85-1.89,1.89v7.55s0,.03,0,.05l-.03,.62c0,.52-.42,.94-.94,.94h-4.71v.29h7.51Z"/>
        <rect x="56.2" y="11.34" width="11.34" height="17.01" rx="1.89" ry="1.89" transform="translate(123.73 39.69) rotate(180)"/>
      </g>
      <g>
        <rect class="cls-1" x="73.21" y="11.06" width="25.96" height=".28"/>
        <path d="M95.33,34.02h.05s0,0,0,0h7.55c1.05,0,1.89-.85,1.89-1.89v-1.88c0-1.05-.85-1.89-1.89-1.89h-7.55c-1.05,0-1.89,.85-1.89,1.89v1.88s0,.03,0,.05l-.03,.62c0,.52-.42,.94-.94,.94h-4.71v.29h7.51Z"/>
        <path d="M85.99,34.02h-.05s0,0,0,0h-7.55c-1.05,0-1.89-.85-1.89-1.89v-7.55c0-1.05,.85-1.89,1.89-1.89h7.55c1.05,0,1.89,.85,1.89,1.89v7.55s0,.03,0,.05l.03,.62c0,.52,.42,.94,.94,.94h4.71v.29h-7.51Z"/>
        <rect x="76.48" width="11.34" height="34.02" rx="1.89" ry="1.89"/>
      </g>
    </g>
    <g>
      <g>
        <rect x="24.57" y="215.43" width="11.34" height="17.01" rx="1.89" ry="1.89"/>
        <path d="M11.4,226.77h-.05s0,0,0,0H3.79c-1.05,0-1.89,.85-1.89,1.89v7.55c0,1.05,.85,1.89,1.89,1.89h7.55c1.05,0,1.89-.85,1.89-1.89v-7.55s0-.03,0-.05l.03-.62c0-.52,.42-.94,.94-.94h4.71v-.29h-7.51Z"/>
        <path d="M26.41,215.43h.05s0,0,0,0h7.55c1.05,0,1.89,.85,1.89,1.89v7.55c0,1.05-.85,1.89-1.89,1.89h-7.55c-1.05,0-1.89-.85-1.89-1.89v-7.55s0-.03,0-.05l-.03-.62c0-.52-.42-.94-.94-.94h-4.71v-.29h7.51Z"/>
        <path d="M26.41,238.11h.05s0,0,0,0h7.55c1.05,0,1.89-.85,1.89-1.89v-7.55c0-1.05-.85-1.89-1.89-1.89h-7.55c-1.05,0-1.89,.85-1.89,1.89v7.55s0,.03,0,.05l-.03,.62c0,.52-.42,.94-.94,.94h-4.71v.29h7.51Z"/>
        <path d="M26.34,227.06h.05s0,0,0,0h7.55c1.05,0,1.89-.85,1.89-1.89v-7.55c0-1.05-.85-1.89-1.89-1.89h-7.55c-1.05,0-1.89,.85-1.89,1.89v7.55s0,.03,0,.05l-.03,.62c0,.52-.42,.94-.94,.94h-4.71v.29h7.51Z"/>
        <path d="M11.4,238.11h-.05s0,0,0,0H3.79c-1.05,0-1.89-.85-1.89-1.89v-7.55c0-1.05,.85-1.89,1.89-1.89h7.55c1.05,0,1.89,.85,1.89,1.89v7.55s0,.03,0,.05l.03,.62c0,.52,.42,.94,.94,.94h4.71v.29h-7.51Z"/>
        <path d="M11.4,215.43h-.05s0,0,0,0H3.79c-1.05,0-1.89,.85-1.89,1.89v1.88c0,1.05,.85,1.89,1.89,1.89h7.55c1.05,0,1.89-.85,1.89-1.89v-1.88s0-.03,0-.05l.03-.62c0-.52,.42-.94,.94-.94h4.71v-.29h-7.51Z"/>
      </g>
      <g>
        <rect class="cls-1" x="143.63" y="226.49" width="25.96" height=".28"/>
        <path d="M162.47,226.77h.05s0,0,0,0h7.55c1.05,0,1.89-.85,1.89-1.89v-7.55c0-1.05-.85-1.89-1.89-1.89h-7.55c-1.05,0-1.89,.85-1.89,1.89v7.55s0,.03,0,.05l-.03,.62c0,.52-.42,.94-.94,.94h-4.71v.29h7.51Z"/>
        <path d="M147.46,215.43h-.05s0,0,0,0h-7.55c-1.05,0-1.89,.85-1.89,1.89v7.55c0,1.05,.85,1.89,1.89,1.89h7.55c1.05,0,1.89-.85,1.89-1.89v-7.55s0-.03,0-.05l.03-.62c0-.52,.42-.94,.94-.94h4.71v-.29h-7.51Z"/>
        <path d="M147.46,238.11h-.05s0,0,0,0h-7.55c-1.05,0-1.89-.85-1.89-1.89v-7.55c0-1.05,.85-1.89,1.89-1.89h7.55c1.05,0,1.89,.85,1.89,1.89v7.55s0,.03,0,.05l.03,.62c0,.52,.42,.94,.94,.94h4.71v.29h-7.51Z"/>
        <path d="M162.47,238.11h.05s0,0,0,0h7.55c1.05,0,1.89-.85,1.89-1.89v-1.88c0-1.05-.85-1.89-1.89-1.89h-7.55c-1.05,0-1.89,.85-1.89,1.89v1.88s0,.03,0,.05l-.03,.62c0,.52-.42,.94-.94,.94h-4.71v.29h7.51Z"/>
        <path d="M162.47,215.43h.05s0,0,0,0h7.55c1.05,0,1.89,.85,1.89,1.89v1.88c0,1.05-.85,1.89-1.89,1.89h-7.55c-1.05,0-1.89-.85-1.89-1.89v-1.88s0-.03,0-.05l-.03-.62c0-.52-.42-.94-.94-.94h-4.71v-.29h7.51Z"/>
        <rect x="137.96" y="215.43" width="11.34" height="22.68" rx="1.89" ry="1.89"/>
      </g>
      <g>
        <path d="M90.77,249.45h-.05s0,0,0,0h-7.55c-1.05,0-1.89-.85-1.89-1.89v-1.88c0-1.05,.85-1.89,1.89-1.89h7.55c1.05,0,1.89,.85,1.89,1.89v1.88s0,.03,0,.05l.03,.62c0,.52,.42,.94,.94,.94h4.71v.29h-7.51Z"/>
        <path d="M105.78,249.45h.05s0,0,0,0h7.55c1.05,0,1.89-.85,1.89-1.89v-1.88c0-1.05-.85-1.89-1.89-1.89h-7.55c-1.05,0-1.89,.85-1.89,1.89v1.88s0,.03,0,.05l-.03,.62c0,.52-.42,.94-.94,.94h-4.71v.29h7.51Z"/>
        <path d="M90.77,215.43h-.05s0,0,0,0h-7.55c-1.05,0-1.89,.85-1.89,1.89v7.55c0,1.05,.85,1.89,1.89,1.89h7.55c1.05,0,1.89-.85,1.89-1.89v-7.55s0-.03,0-.05l.03-.62c0-.52,.42-.94,.94-.94h4.71v-.29h-7.51Z"/>
        <path d="M90.77,238.11h-.05s0,0,0,0h-7.55c-1.05,0-1.89-.85-1.89-1.89v-7.55c0-1.05,.85-1.89,1.89-1.89h7.55c1.05,0,1.89,.85,1.89,1.89v7.55s0,.03,0,.05l.03,.62c0,.52,.42,.94,.94,.94h4.71v.29h-7.51Z"/>
        <path d="M105.78,238.11h.05s0,0,0,0h7.55c1.05,0,1.89-.85,1.89-1.89v-1.88c0-1.05-.85-1.89-1.89-1.89h-7.55c-1.05,0-1.89,.85-1.89,1.89v1.88s0,.03,0,.05l-.03,.62c0,.52-.42,.94-.94,.94h-4.71v.29h7.51Z"/>
        <path d="M105.78,215.43h.05s0,0,0,0h7.55c1.05,0,1.89,.85,1.89,1.89v1.88c0,1.05-.85,1.89-1.89,1.89h-7.55c-1.05,0-1.89-.85-1.89-1.89v-1.88s0-.03,0-.05l-.03-.62c0-.52-.42-.94-.94-.94h-4.71v-.29h7.51Z"/>
        <rect x="81.26" y="215.43" width="11.34" height="22.68" rx="1.89" ry="1.89"/>
        <rect x="103.94" y="215.43" width="11.34" height="22.68" rx="1.89" ry="1.89"/>
        <rect x="103.94" y="215.43" width="11.34" height="34.02" rx="1.89" ry="1.89"/>
      </g>
      <rect x="120.95" y="204.09" width="11.34" height="34.02" rx="1.89" ry="1.89"/>
      <g>
        <path d="M202.16,226.77h.05s0,0,0,0h7.55c1.05,0,1.89,.85,1.89,1.89v7.55c0,1.05-.85,1.89-1.89,1.89h-7.55c-1.05,0-1.89-.85-1.89-1.89v-7.55s0-.03,0-.05l-.03-.62c0-.52-.42-.94-.94-.94h-4.71v-.29h7.51Z"/>
        <path d="M202.16,238.11h.05s0,0,0,0h7.55c1.05,0,1.89-.85,1.89-1.89v-7.55c0-1.05-.85-1.89-1.89-1.89h-7.55c-1.05,0-1.89,.85-1.89,1.89v7.55s0,.03,0,.05l-.03,.62c0,.52-.42,.94-.94,.94h-4.71v.29h7.51Z"/>
        <path d="M187.14,227.06h-.05s0,0,0,0h-7.55c-1.05,0-1.89-.85-1.89-1.89v-7.55c0-1.05,.85-1.89,1.89-1.89h7.55c1.05,0,1.89,.85,1.89,1.89v7.55s0,.03,0,.05l.03,.62c0,.52,.42,.94,.94,.94h4.71v.29h-7.51Z"/>
        <path d="M187.14,238.11h-.05s0,0,0,0h-7.55c-1.05,0-1.89-.85-1.89-1.89v-1.88c0-1.05,.85-1.89,1.89-1.89h7.55c1.05,0,1.89,.85,1.89,1.89v1.88s0,.03,0,.05l.03,.62c0,.52,.42,.94,.94,.94h4.71v.29h-7.51Z"/>
        <rect class="cls-1" x="188.98" y="215.43" width="20.29" height=".28"/>
        <path d="M187.14,215.43h-.05s0,0,0,0h-7.55c-1.05,0-1.89,.85-1.89,1.89v7.55c0,1.05,.85,1.89,1.89,1.89h7.55c1.05,0,1.89-.85,1.89-1.89v-7.55s0-.03,0-.05l.03-.62c0-.52,.42-.94,.94-.94h4.71v-.29h-7.51Z"/>
        <path d="M202.16,215.43h.05s0,0,0,0h7.55c1.05,0,1.89,.85,1.89,1.89v1.88c0,1.05-.85,1.89-1.89,1.89h-7.55c-1.05,0-1.89-.85-1.89-1.89v-1.88s0-.03,0-.05l-.03-.62c0-.52-.42-.94-.94-.94h-4.71v-.29h7.51Z"/>
      </g>
      <g>
        <rect x="64.26" y="221.1" width="11.34" height="17.01" rx="1.89" ry="1.89"/>
        <path d="M66.09,215.43h.05s0,0,0,0h7.55c1.05,0,1.89,.85,1.89,1.89v7.55c0,1.05-.85,1.89-1.89,1.89h-7.55c-1.05,0-1.89-.85-1.89-1.89v-7.55s0-.03,0-.05l-.03-.62c0-.52-.42-.94-.94-.94h-4.71v-.29h7.51Z"/>
        <path d="M51.08,215.43h-.05s0,0,0,0h-7.55c-1.05,0-1.89,.85-1.89,1.89v7.55c0,1.05,.85,1.89,1.89,1.89h7.55c1.05,0,1.89-.85,1.89-1.89v-7.55s0-.03,0-.05l.03-.62c0-.52,.42-.94,.94-.94h4.71v-.29h-7.51Z"/>
        <rect x="41.58" y="221.1" width="11.34" height="17.01" rx="1.89" ry="1.89"/>
      </g>
    </g>
    <g>
      <g>
        <rect x="291.03" y="79.37" width="11.34" height="17.01" rx="1.89" ry="1.89"/>
        <path d="M277.85,90.71h-.05s0,0,0,0h-7.55c-1.05,0-1.89,.85-1.89,1.89v7.55c0,1.05,.85,1.89,1.89,1.89h7.55c1.05,0,1.89-.85,1.89-1.89v-7.55s0-.03,0-.05l.03-.62c0-.52,.42-.94,.94-.94h4.71v-.29h-7.51Z"/>
        <path d="M292.87,79.37h.05s0,0,0,0h7.55c1.05,0,1.89,.85,1.89,1.89v7.55c0,1.05-.85,1.89-1.89,1.89h-7.55c-1.05,0-1.89-.85-1.89-1.89v-7.55s0-.03,0-.05l-.03-.62c0-.52-.42-.94-.94-.94h-4.71v-.29h7.51Z"/>
        <path d="M292.87,102.05h.05s0,0,0,0h7.55c1.05,0,1.89-.85,1.89-1.89v-7.55c0-1.05-.85-1.89-1.89-1.89h-7.55c-1.05,0-1.89,.85-1.89,1.89v7.55s0,.03,0,.05l-.03,.62c0,.52-.42,.94-.94,.94h-4.71v.29h7.51Z"/>
        <path d="M292.8,91h.05s0,0,0,0h7.55c1.05,0,1.89-.85,1.89-1.89v-7.55c0-1.05-.85-1.89-1.89-1.89h-7.55c-1.05,0-1.89,.85-1.89,1.89v7.55s0,.03,0,.05l-.03,.62c0,.52-.42,.94-.94,.94h-4.71v.29h7.51Z"/>
        <path d="M277.85,102.05h-.05s0,0,0,0h-7.55c-1.05,0-1.89-.85-1.89-1.89v-7.55c0-1.05,.85-1.89,1.89-1.89h7.55c1.05,0,1.89,.85,1.89,1.89v7.55s0,.03,0,.05l.03,.62c0,.52,.42,.94,.94,.94h4.71v.29h-7.51Z"/>
        <path d="M277.85,79.37h-.05s0,0,0,0h-7.55c-1.05,0-1.89,.85-1.89,1.89v1.88c0,1.05,.85,1.89,1.89,1.89h7.55c1.05,0,1.89-.85,1.89-1.89v-1.88s0-.03,0-.05l.03-.62c0-.52,.42-.94,.94-.94h4.71v-.29h-7.51Z"/>
      </g>
      <g>
        <rect x="64.26" y="79.37" width="11.34" height="17.01" rx="1.89" ry="1.89"/>
        <path d="M51.08,90.71h-.05s0,0,0,0h-7.55c-1.05,0-1.89,.85-1.89,1.89v7.55c0,1.05,.85,1.89,1.89,1.89h7.55c1.05,0,1.89-.85,1.89-1.89v-7.55s0-.03,0-.05l.03-.62c0-.52,.42-.94,.94-.94h4.71v-.29h-7.51Z"/>
        <path d="M66.09,79.37h.05s0,0,0,0h7.55c1.05,0,1.89,.85,1.89,1.89v7.55c0,1.05-.85,1.89-1.89,1.89h-7.55c-1.05,0-1.89-.85-1.89-1.89v-7.55s0-.03,0-.05l-.03-.62c0-.52-.42-.94-.94-.94h-4.71v-.29h7.51Z"/>
        <path d="M66.09,102.05h.05s0,0,0,0h7.55c1.05,0,1.89-.85,1.89-1.89v-7.55c0-1.05-.85-1.89-1.89-1.89h-7.55c-1.05,0-1.89,.85-1.89,1.89v7.55s0,.03,0,.05l-.03,.62c0,.52-.42,.94-.94,.94h-4.71v.29h7.51Z"/>
        <path d="M66.03,91h.05s0,0,0,0h7.55c1.05,0,1.89-.85,1.89-1.89v-7.55c0-1.05-.85-1.89-1.89-1.89h-7.55c-1.05,0-1.89,.85-1.89,1.89v7.55s0,.03,0,.05l-.03,.62c0,.52-.42,.94-.94,.94h-4.71v.29h7.51Z"/>
        <path d="M51.08,102.05h-.05s0,0,0,0h-7.55c-1.05,0-1.89-.85-1.89-1.89v-7.55c0-1.05,.85-1.89,1.89-1.89h7.55c1.05,0,1.89,.85,1.89,1.89v7.55s0,.03,0,.05l.03,.62c0,.52,.42,.94,.94,.94h4.71v.29h-7.51Z"/>
        <path d="M51.08,79.37h-.05s0,0,0,0h-7.55c-1.05,0-1.89,.85-1.89,1.89v1.88c0,1.05,.85,1.89,1.89,1.89h7.55c1.05,0,1.89-.85,1.89-1.89v-1.88s0-.03,0-.05l.03-.62c0-.52,.42-.94,.94-.94h4.71v-.29h-7.51Z"/>
      </g>
      <g>
        <rect x="251.34" y="79.37" width="11.34" height="22.68" rx="1.89" ry="1.89"/>
        <rect class="cls-1" x="251.34" y="68.03" width="11.34" height="5.67" rx="1.86" ry="1.86"/>
      </g>
      <rect x="160.63" y="68.03" width="11.34" height="34.02" rx="1.89" ry="1.89"/>
      <g>
        <rect class="cls-1" x="223" y="79.37" width="20.29" height=".28"/>
        <path d="M226.83,79.37h-.05s0,0,0,0h-7.55c-1.05,0-1.89,.85-1.89,1.89v7.55c0,1.05,.85,1.89,1.89,1.89h7.55c1.05,0,1.89-.85,1.89-1.89v-7.55s0-.03,0-.05l.03-.62c0-.52,.42-.94,.94-.94h4.71v-.29h-7.51Z"/>
        <path d="M236.17,79.37h.05s0,0,0,0h7.55c1.05,0,1.89,.85,1.89,1.89v1.88c0,1.05-.85,1.89-1.89,1.89h-7.55c-1.05,0-1.89-.85-1.89-1.89v-1.88s0-.03,0-.05l-.03-.62c0-.52-.42-.94-.94-.94h-4.71v-.29h7.51Z"/>
        <rect x="217.33" y="79.37" width="11.34" height="22.68" rx="1.89" ry="1.89"/>
      </g>
      <g>
        <rect x="103.94" y="85.04" width="11.34" height="17.01" rx="1.89" ry="1.89"/>
        <path d="M90.77,102.05h-.05s0,0,0,0h-7.55c-1.05,0-1.89-.85-1.89-1.89v-7.55c0-1.05,.85-1.89,1.89-1.89h7.55c1.05,0,1.89,.85,1.89,1.89v7.55s0,.03,0,.05l.03,.62c0,.52,.42,.94,.94,.94h4.71v.29h-7.51Z"/>
        <path d="M105.78,102.05h.05s0,0,0,0h7.55c1.05,0,1.89-.85,1.89-1.89v-7.55c0-1.05-.85-1.89-1.89-1.89h-7.55c-1.05,0-1.89,.85-1.89,1.89v7.55s0,.03,0,.05l-.03,.62c0,.52-.42,.94-.94,.94h-4.71v.29h7.51Z"/>
        <path d="M105.78,79.37h.05s0,0,0,0h7.55c1.05,0,1.89,.85,1.89,1.89v7.55c0,1.05-.85,1.89-1.89,1.89h-7.55c-1.05,0-1.89-.85-1.89-1.89v-7.55s0-.03,0-.05l-.03-.62c0-.52-.42-.94-.94-.94h-4.71v-.29h7.51Z"/>
        <path d="M90.77,79.37h-.05s0,0,0,0h-7.55c-1.05,0-1.89,.85-1.89,1.89v7.55c0,1.05,.85,1.89,1.89,1.89h7.55c1.05,0,1.89-.85,1.89-1.89v-7.55s0-.03,0-.05l.03-.62c0-.52,.42-.94,.94-.94h4.71v-.29h-7.51Z"/>
        <rect x="81.26" y="85.04" width="11.34" height="28.35" rx="1.89" ry="1.89"/>
      </g>
      <g>
        <rect x="24.57" y="85.04" width="11.34" height="17.01" rx="1.89" ry="1.89"/>
        <path d="M11.4,102.05h-.05s0,0,0,0H3.79c-1.05,0-1.89-.85-1.89-1.89v-7.55c0-1.05,.85-1.89,1.89-1.89h7.55c1.05,0,1.89,.85,1.89,1.89v7.55s0,.03,0,.05l.03,.62c0,.52,.42,.94,.94,.94h4.71v.29h-7.51Z"/>
        <path d="M26.41,102.05h.05s0,0,0,0h7.55c1.05,0,1.89-.85,1.89-1.89v-7.55c0-1.05-.85-1.89-1.89-1.89h-7.55c-1.05,0-1.89,.85-1.89,1.89v7.55s0,.03,0,.05l-.03,.62c0,.52-.42,.94-.94,.94h-4.71v.29h7.51Z"/>
        <path d="M26.41,79.37h.05s0,0,0,0h7.55c1.05,0,1.89,.85,1.89,1.89v7.55c0,1.05-.85,1.89-1.89,1.89h-7.55c-1.05,0-1.89-.85-1.89-1.89v-7.55s0-.03,0-.05l-.03-.62c0-.52-.42-.94-.94-.94h-4.71v-.29h7.51Z"/>
        <path d="M11.4,79.37h-.05s0,0,0,0H3.79c-1.05,0-1.89,.85-1.89,1.89v7.55c0,1.05,.85,1.89,1.89,1.89h7.55c1.05,0,1.89-.85,1.89-1.89v-7.55s0-.03,0-.05l.03-.62c0-.52,.42-.94,.94-.94h4.71v-.29h-7.51Z"/>
        <rect x="1.89" y="85.04" width="11.34" height="28.35" rx="1.89" ry="1.89"/>
      </g>
      <g>
        <rect class="cls-1" x="126.62" y="90.43" width="25.96" height=".28"/>
        <path d="M145.46,90.71h.05s0,0,0,0h7.55c1.05,0,1.89-.85,1.89-1.89v-7.55c0-1.05-.85-1.89-1.89-1.89h-7.55c-1.05,0-1.89,.85-1.89,1.89v7.55s0,.03,0,.05l-.03,.62c0,.52-.42,.94-.94,.94h-4.71v.29h7.51Z"/>
        <path d="M130.45,79.37h-.05s0,0,0,0h-7.55c-1.05,0-1.89,.85-1.89,1.89v7.55c0,1.05,.85,1.89,1.89,1.89h7.55c1.05,0,1.89-.85,1.89-1.89v-7.55s0-.03,0-.05l.03-.62c0-.52,.42-.94,.94-.94h4.71v-.29h-7.51Z"/>
        <path d="M130.45,102.05h-.05s0,0,0,0h-7.55c-1.05,0-1.89-.85-1.89-1.89v-7.55c0-1.05,.85-1.89,1.89-1.89h7.55c1.05,0,1.89,.85,1.89,1.89v7.55s0,.03,0,.05l.03,.62c0,.52,.42,.94,.94,.94h4.71v.29h-7.51Z"/>
        <path d="M145.46,102.05h.05s0,0,0,0h7.55c1.05,0,1.89-.85,1.89-1.89v-1.88c0-1.05-.85-1.89-1.89-1.89h-7.55c-1.05,0-1.89,.85-1.89,1.89v1.88s0,.03,0,.05l-.03,.62c0,.52-.42,.94-.94,.94h-4.71v.29h7.51Z"/>
        <path d="M145.46,79.37h.05s0,0,0,0h7.55c1.05,0,1.89,.85,1.89,1.89v1.88c0,1.05-.85,1.89-1.89,1.89h-7.55c-1.05,0-1.89-.85-1.89-1.89v-1.88s0-.03,0-.05l-.03-.62c0-.52-.42-.94-.94-.94h-4.71v-.29h7.51Z"/>
        <rect x="120.95" y="79.37" width="11.34" height="22.68" rx="1.89" ry="1.89"/>
      </g>
      <g>
        <rect class="cls-1" x="183.31" y="90.43" width="25.96" height=".28"/>
        <path d="M202.16,90.71h.05s0,0,0,0h7.55c1.05,0,1.89-.85,1.89-1.89v-7.55c0-1.05-.85-1.89-1.89-1.89h-7.55c-1.05,0-1.89,.85-1.89,1.89v7.55s0,.03,0,.05l-.03,.62c0,.52-.42,.94-.94,.94h-4.71v.29h7.51Z"/>
        <path d="M187.14,79.37h-.05s0,0,0,0h-7.55c-1.05,0-1.89,.85-1.89,1.89v7.55c0,1.05,.85,1.89,1.89,1.89h7.55c1.05,0,1.89-.85,1.89-1.89v-7.55s0-.03,0-.05l.03-.62c0-.52,.42-.94,.94-.94h4.71v-.29h-7.51Z"/>
        <path d="M187.14,102.05h-.05s0,0,0,0h-7.55c-1.05,0-1.89-.85-1.89-1.89v-7.55c0-1.05,.85-1.89,1.89-1.89h7.55c1.05,0,1.89,.85,1.89,1.89v7.55s0,.03,0,.05l.03,.62c0,.52,.42,.94,.94,.94h4.71v.29h-7.51Z"/>
        <path d="M202.16,102.05h.05s0,0,0,0h7.55c1.05,0,1.89-.85,1.89-1.89v-1.88c0-1.05-.85-1.89-1.89-1.89h-7.55c-1.05,0-1.89,.85-1.89,1.89v1.88s0,.03,0,.05l-.03,.62c0,.52-.42,.94-.94,.94h-4.71v.29h7.51Z"/>
        <path d="M202.16,79.37h.05s0,0,0,0h7.55c1.05,0,1.89,.85,1.89,1.89v1.88c0,1.05-.85,1.89-1.89,1.89h-7.55c-1.05,0-1.89-.85-1.89-1.89v-1.88s0-.03,0-.05l-.03-.62c0-.52-.42-.94-.94-.94h-4.71v-.29h7.51Z"/>
        <rect x="177.64" y="79.37" width="11.34" height="22.68" rx="1.89" ry="1.89"/>
      </g>
    </g>
    <g>
      <rect x="113.39" y="147.4" width="11.34" height="17.01" rx="1.89" ry="1.89"/>
      <rect class="cls-1" x="153.07" y="158.46" width="25.96" height=".28"/>
      <path d="M26.51,147.4h-.05s0,0,0,0h-7.55c-1.05,0-1.89,.85-1.89,1.89v7.55c0,1.05,.85,1.89,1.89,1.89h7.55c1.05,0,1.89-.85,1.89-1.89v-7.55s0-.03,0-.05l.03-.62c0-.52,.42-.94,.94-.94h4.71v-.29h-7.51Z"/>
      <path d="M9.5,147.4h-.05s0,0,0,0H1.89C.85,147.4,0,148.25,0,149.3v7.55C0,157.89,.85,158.74,1.89,158.74h7.55c1.05,0,1.89-.85,1.89-1.89v-7.55s0-.03,0-.05l.03-.62c0-.52,.42-.94,.94-.94h4.71v-.29h-7.51Z"/>
      <path d="M171.92,158.74h.05s0,0,0,0h7.55c1.05,0,1.89-.85,1.89-1.89v-7.55c0-1.05-.85-1.89-1.89-1.89h-7.55c-1.05,0-1.89,.85-1.89,1.89v7.55s0,.03,0,.05l-.03,.62c0,.52-.42,.94-.94,.94h-4.71v.29h7.51Z"/>
      <path d="M35.85,147.4h.05s0,0,0,0h7.55c1.05,0,1.89,.85,1.89,1.89v1.88c0,1.05-.85,1.89-1.89,1.89h-7.55c-1.05,0-1.89-.85-1.89-1.89v-1.88s0-.03,0-.05l-.03-.62c0-.52-.42-.94-.94-.94h-4.71v-.29h7.51Z"/>
      <path d="M18.85,147.4h.05s0,0,0,0h7.55c1.05,0,1.89,.85,1.89,1.89v1.88c0,1.05-.85,1.89-1.89,1.89h-7.55c-1.05,0-1.89-.85-1.89-1.89v-1.88s0-.03,0-.05l-.03-.62c0-.52-.42-.94-.94-.94h-4.71v-.29h7.51Z"/>
      <path d="M100.21,147.4h-.05s0,0,0,0h-7.55c-1.05,0-1.89,.85-1.89,1.89v7.55c0,1.05,.85,1.89,1.89,1.89h7.55c1.05,0,1.89-.85,1.89-1.89v-7.55s0-.03,0-.05l.03-.62c0-.52,.42-.94,.94-.94h4.71v-.29h-7.51Z"/>
      <path d="M115.22,147.4h.05s0,0,0,0h7.55c1.05,0,1.89,.85,1.89,1.89v7.55c0,1.05-.85,1.89-1.89,1.89h-7.55c-1.05,0-1.89-.85-1.89-1.89v-7.55s0-.03,0-.05l-.03-.62c0-.52-.42-.94-.94-.94h-4.71v-.29h7.51Z"/>
      <path d="M115.22,170.08h.05s0,0,0,0h7.55c1.05,0,1.89-.85,1.89-1.89v-7.55c0-1.05-.85-1.89-1.89-1.89h-7.55c-1.05,0-1.89,.85-1.89,1.89v7.55s0,.03,0,.05l-.03,.62c0,.52-.42,.94-.94,.94h-4.71v.29h7.51Z"/>
      <path d="M100.21,170.08h-.05s0,0,0,0h-7.55c-1.05,0-1.89-.85-1.89-1.89v-7.55c0-1.05,.85-1.89,1.89-1.89h7.55c1.05,0,1.89,.85,1.89,1.89v7.55s0,.03,0,.05l.03,.62c0,.52,.42,.94,.94,.94h4.71v.29h-7.51Z"/>
      <rect x="90.71" y="136.06" width="11.34" height="28.35" rx="1.89" ry="1.89"/>
      <path d="M156.9,147.4h-.05s0,0,0,0h-7.55c-1.05,0-1.89,.85-1.89,1.89v7.55c0,1.05,.85,1.89,1.89,1.89h7.55c1.05,0,1.89-.85,1.89-1.89v-7.55s0-.03,0-.05l.03-.62c0-.52,.42-.94,.94-.94h4.71v-.29h-7.51Z"/>
      <path d="M156.9,170.08h-.05s0,0,0,0h-7.55c-1.05,0-1.89-.85-1.89-1.89v-7.55c0-1.05,.85-1.89,1.89-1.89h7.55c1.05,0,1.89,.85,1.89,1.89v7.55s0,.03,0,.05l.03,.62c0,.52,.42,.94,.94,.94h4.71v.29h-7.51Z"/>
      <path d="M171.92,170.08h.05s0,0,0,0h7.55c1.05,0,1.89-.85,1.89-1.89v-1.88c0-1.05-.85-1.89-1.89-1.89h-7.55c-1.05,0-1.89,.85-1.89,1.89v1.88s0,.03,0,.05l-.03,.62c0,.52-.42,.94-.94,.94h-4.71v.29h7.51Z"/>
      <path d="M171.92,147.4h.05s0,0,0,0h7.55c1.05,0,1.89,.85,1.89,1.89v1.88c0,1.05-.85,1.89-1.89,1.89h-7.55c-1.05,0-1.89-.85-1.89-1.89v-1.88s0-.03,0-.05l-.03-.62c0-.52-.42-.94-.94-.94h-4.71v-.29h7.51Z"/>
      <rect x="147.4" y="147.4" width="11.34" height="22.68" rx="1.89" ry="1.89"/>
      <rect x="130.39" y="136.06" width="11.34" height="34.02" rx="1.89" ry="1.89"/>
      <rect y="147.4" width="11.34" height="22.68" rx="1.89" ry="1.89"/>
      <rect x="17.01" y="147.4" width="11.34" height="22.68" rx="1.89" ry="1.89"/>
      <rect x="34.02" y="147.4" width="11.34" height="22.68" rx="1.89" ry="1.89"/>
      <path d="M211.6,158.74h.05s0,0,0,0h7.55c1.05,0,1.89,.85,1.89,1.89v7.55c0,1.05-.85,1.89-1.89,1.89h-7.55c-1.05,0-1.89-.85-1.89-1.89v-7.55s0-.03,0-.05l-.03-.62c0-.52-.42-.94-.94-.94h-4.71v-.29h7.51Z"/>
      <path d="M211.6,170.08h.05s0,0,0,0h7.55c1.05,0,1.89-.85,1.89-1.89v-7.55c0-1.05-.85-1.89-1.89-1.89h-7.55c-1.05,0-1.89,.85-1.89,1.89v7.55s0,.03,0,.05l-.03,.62c0,.52-.42,.94-.94,.94h-4.71v.29h7.51Z"/>
      <path d="M196.59,159.02h-.05s0,0,0,0h-7.55c-1.05,0-1.89-.85-1.89-1.89v-7.55c0-1.05,.85-1.89,1.89-1.89h7.55c1.05,0,1.89,.85,1.89,1.89v7.55s0,.03,0,.05l.03,.62c0,.52,.42,.94,.94,.94h4.71v.29h-7.51Z"/>
      <path d="M196.59,170.08h-.05s0,0,0,0h-7.55c-1.05,0-1.89-.85-1.89-1.89v-1.88c0-1.05,.85-1.89,1.89-1.89h7.55c1.05,0,1.89,.85,1.89,1.89v1.88s0,.03,0,.05l.03,.62c0,.52,.42,.94,.94,.94h4.71v.29h-7.51Z"/>
      <path d="M196.59,147.4h-.05s0,0,0,0h-7.55c-1.05,0-1.89,.85-1.89,1.89v7.55c0,1.05,.85,1.89,1.89,1.89h7.55c1.05,0,1.89-.85,1.89-1.89v-7.55s0-.03,0-.05l.03-.62c0-.52,.42-.94,.94-.94h4.71v-.29h-7.51Z"/>
      <path d="M211.6,147.4h.05s0,0,0,0h7.55c1.05,0,1.89,.85,1.89,1.89v1.88c0,1.05-.85,1.89-1.89,1.89h-7.55c-1.05,0-1.89-.85-1.89-1.89v-1.88s0-.03,0-.05l-.03-.62c0-.52-.42-.94-.94-.94h-4.71v-.29h7.51Z"/>
      <rect x="51.02" y="147.4" width="11.34" height="17.01" rx="1.89" ry="1.89" transform="translate(113.39 311.81) rotate(180)"/>
      <path d="M75.54,147.4h.05s0,0,0,0h7.55c1.05,0,1.89,.85,1.89,1.89v7.55c0,1.05-.85,1.89-1.89,1.89h-7.55c-1.05,0-1.89-.85-1.89-1.89v-7.55s0-.03,0-.05l-.03-.62c0-.52-.42-.94-.94-.94h-4.71v-.29h7.51Z"/>
      <path d="M60.52,147.4h-.05s0,0,0,0h-7.55c-1.05,0-1.89,.85-1.89,1.89v7.55c0,1.05,.85,1.89,1.89,1.89h7.55c1.05,0,1.89-.85,1.89-1.89v-7.55s0-.03,0-.05l.03-.62c0-.52,.42-.94,.94-.94h4.71v-.29h-7.51Z"/>
      <path d="M60.52,170.08h-.05s0,0,0,0h-7.55c-1.05,0-1.89-.85-1.89-1.89v-7.55c0-1.05,.85-1.89,1.89-1.89h7.55c1.05,0,1.89,.85,1.89,1.89v7.55s0,.03,0,.05l.03,.62c0,.52,.42,.94,.94,.94h4.71v.29h-7.51Z"/>
      <path d="M75.54,170.08h.05s0,0,0,0h7.55c1.05,0,1.89-.85,1.89-1.89v-7.55c0-1.05-.85-1.89-1.89-1.89h-7.55c-1.05,0-1.89,.85-1.89,1.89v7.55s0,.03,0,.05l-.03,.62c0,.52-.42,.94-.94,.94h-4.71v.29h7.51Z"/>
      <rect x="73.7" y="147.4" width="11.34" height="17.01" rx="1.89" ry="1.89" transform="translate(158.74 311.81) rotate(180)"/>
    </g>
  </g>
</svg>