<?xml version="1.0" encoding="utf-8"?>
<!-- Generator: Adobe Illustrator 26.4.1, SVG Export Plug-In . SVG Version: 6.00 Build 0)  -->
<svg version="1.1" id="Calque_2_00000081641301787380207050000012569864865497752196_"
	 xmlns="http://www.w3.org/2000/svg" xmlns:xlink="http://www.w3.org/1999/xlink" x="0px" y="0px" viewBox="0 0 287 62"
	 style="enable-background:new 0 0 287 62;" xml:space="preserve">
<style type="text/css">
	.st0{fill:#FFFFFF;stroke:#000000;stroke-width:0.25;stroke-miterlimit:10;}
</style>
<g>
	<path class="st0" d="M36,7.3L36,7.3L36,7.3h7.6c1.1,0,1.9,0.8,1.9,1.9v7.6c0,1-0.8,1.9-1.9,1.9H36c-1,0-1.9-0.8-1.9-1.9V9.2l0,0
		V8.6c0-0.5-0.4-0.9-0.9-0.9h-4.7V7.4L36,7.3L36,7.3z"/>
	<path class="st0" d="M21,7.3L21,7.3L21,7.3h-7.6c-1.1,0-1.9,0.8-1.9,1.9v1.9c0,1,0.9,1.9,1.9,1.9H21c1.1,0,1.9-0.9,1.9-1.9V9.2l0,0
		V8.6c0-0.5,0.4-0.9,0.9-0.9h4.7V7.4C28.5,7.3,21,7.3,21,7.3z"/>
</g>
<g>
	<path d="M268.7,7.3h7.6c1,0,1.9,0.8,1.9,1.9v13.2c0,1-0.8,1.9-1.9,1.9h-7.6c-1,0-1.9-0.8-1.9-1.9V9.2
		C266.8,8.1,267.6,7.3,268.7,7.3z"/>
	<path d="M253.6,18.6L253.6,18.6L253.6,18.6H246c-1.1,0-1.9,0.8-1.9,1.9v7.6c0,1,0.9,1.9,1.9,1.9h7.5c1.1,0,1.9-0.8,1.9-1.9v-7.6
		l0,0v-0.6c0-0.5,0.4-0.9,0.9-0.9h4.7v-0.3L253.6,18.6L253.6,18.6z"/>
	<path d="M268.6,7.3L268.6,7.3L268.6,7.3h7.6c1,0,1.9,0.8,1.9,1.9v7.6c0,1-0.9,1.9-1.9,1.9h-7.5c-1,0-1.9-0.8-1.9-1.9V9.2l0,0V8.6
		c0-0.5-0.4-0.9-0.9-0.9h-4.7V7.4L268.6,7.3L268.6,7.3z"/>
	<path d="M268.6,29.9L268.6,29.9L268.6,29.9h7.6c1,0,1.9-0.8,1.9-1.9v-7.5c0-1.1-0.9-1.9-1.9-1.9h-7.5c-1,0-1.9,0.8-1.9,1.9V28
		c0,0,0,0,0,0.1v0.6c0,0.5-0.4,0.9-0.9,0.9h-4.7v0.3H268.6L268.6,29.9z"/>
	<path d="M268.6,18.9L268.6,18.9L268.6,18.9h7.6c1,0,1.9-0.8,1.9-1.9V9.4c0-1-0.9-1.9-1.9-1.9h-7.5c-1,0-1.9,0.8-1.9,1.9V17l0,0v0.6
		c0,0.5-0.4,0.9-0.9,0.9H261v0.3L268.6,18.9L268.6,18.9z"/>
	<path d="M253.6,29.9L253.6,29.9L253.6,29.9H246c-1.1,0-1.9-0.8-1.9-1.9v-7.5c0-1.1,0.9-1.9,1.9-1.9h7.5c1.1,0,1.9,0.8,1.9,1.9V28
		c0,0,0,0,0,0.1v0.6c0,0.5,0.4,0.9,0.9,0.9h4.7v0.3H253.6L253.6,29.9z"/>
	<path d="M253.6,7.3L253.6,7.3L253.6,7.3H246c-1.1,0-1.9,0.8-1.9,1.9v1.9c0,1,0.9,1.9,1.9,1.9h7.5c1.1,0,1.9-0.9,1.9-1.9V9.2l0,0
		V8.6c0-0.5,0.4-0.9,0.9-0.9h4.7V7.4L253.6,7.3L253.6,7.3z"/>
</g>
<g>
	<path d="M82.9,165.1h7.6c1,0,1.9,0.8,1.9,1.9v13.2c0,1-0.8,1.9-1.9,1.9h-7.6c-1,0-1.9-0.8-1.9-1.9V167
		C81,165.9,81.8,165.1,82.9,165.1z"/>
	<path d="M67.8,176.4L67.8,176.4L67.8,176.4h-7.6c-1.1,0-1.9,0.8-1.9,1.9v7.6c0,1,0.9,1.9,1.9,1.9h7.6c1.1,0,1.9-0.8,1.9-1.9v-7.6
		l0,0v-0.6c0-0.5,0.4-0.9,0.9-0.9h4.7v-0.3L67.8,176.4L67.8,176.4z"/>
	<path d="M82.8,165.1L82.8,165.1L82.8,165.1h7.6c1,0,1.9,0.8,1.9,1.9v7.6c0,1-0.8,1.9-1.9,1.9h-7.5c-1,0-1.9-0.9-1.9-1.9V167
		c0,0,0,0,0-0.1v-0.6c0-0.5-0.4-0.9-0.9-0.9h-4.7v-0.3H82.8L82.8,165.1z"/>
	<path d="M82.8,187.7L82.8,187.7L82.8,187.7h7.6c1,0,1.9-0.9,1.9-1.9v-7.5c0-1.1-0.8-1.9-1.9-1.9h-7.5c-1,0-1.9,0.9-1.9,1.9v7.5
		c0,0,0,0,0,0.1v0.6c0,0.5-0.4,0.9-0.9,0.9h-4.7v0.3H82.8L82.8,187.7z"/>
	<path d="M82.8,176.7L82.8,176.7L82.8,176.7h7.6c1,0,1.9-0.8,1.9-1.9v-7.6c0-1-0.8-1.9-1.9-1.9h-7.5c-1,0-1.9,0.9-1.9,1.9v7.6
		c0,0,0,0,0,0.1v0.6c0,0.5-0.4,0.9-0.9,0.9h-4.7v0.3L82.8,176.7L82.8,176.7z"/>
	<path d="M67.8,187.7L67.8,187.7L67.8,187.7h-7.6c-1.1,0-1.9-0.9-1.9-1.9v-7.5c0-1.1,0.9-1.9,1.9-1.9h7.6c1.1,0,1.9,0.9,1.9,1.9v7.5
		c0,0,0,0,0,0.1v0.6c0,0.5,0.4,0.9,0.9,0.9h4.7v0.3H67.8L67.8,187.7z"/>
	<path d="M67.8,165.1L67.8,165.1L67.8,165.1h-7.6c-1.1,0-1.9,0.8-1.9,1.9v1.9c0,1,0.9,1.9,1.9,1.9h7.6c1.1,0,1.9-0.9,1.9-1.9V167
		c0,0,0,0,0-0.1v-0.6c0-0.5,0.4-0.9,0.9-0.9h4.7v-0.3H67.8L67.8,165.1z"/>
</g>
<g>
	<path class="st0" d="M26.4,29.9L26.4,29.9L26.4,29.9h-7.6c-1,0-1.9,0.9-1.9,1.9v7.6c0,1,0.9,1.9,1.9,1.9h7.6c1.1,0,1.9-0.8,1.9-1.9
		v-7.6l0,0v-0.6c0-0.5,0.4-0.9,0.9-0.9h4.7V30L26.4,29.9L26.4,29.9z"/>
	<path class="st0" d="M41.6,30.2L41.6,30.2L41.6,30.2h7.6c1.1,0,1.9-0.8,1.9-1.9v-7.6c0-1-0.8-1.9-1.9-1.9h-7.5
		c-1.1,0-1.9,0.8-1.9,1.9v7.6l0,0v0.6c0,0.5-0.4,0.9-0.9,0.9h-4.7v0.3L41.6,30.2L41.6,30.2z"/>
</g>
<path class="st0" d="M47.4,29.9H55c1,0,1.9,0.8,1.9,1.9v13.3c0,1-0.8,1.9-1.9,1.9h-7.6c-1,0-1.9-0.8-1.9-1.9V31.9
	C45.5,30.8,46.3,29.9,47.4,29.9z"/>
<g>
	<path class="st0" d="M53,52.6L53,52.6L53,52.6h7.6c1,0,1.9-0.8,1.9-1.9v-7.5c0-1.1-0.9-1.9-1.9-1.9H53c-1.1,0-1.9,0.8-1.9,1.9v7.5
		c0,0,0,0,0,0.1v0.6c0,0.5-0.4,0.9-0.9,0.9h-4.7v0.3L53,52.6L53,52.6z"/>
	<path class="st0" d="M38,52.6L38,52.6L38,52.6h-7.6c-1.1,0-1.9-0.8-1.9-1.9v-7.5c0-1.1,0.8-1.9,1.9-1.9h7.5c1.1,0,1.9,0.8,1.9,1.9
		v7.5c0,0,0,0,0,0.1v0.6c0,0.5,0.4,0.9,0.9,0.9h4.7v0.3L38,52.6L38,52.6z"/>
</g>
<g>
	<path class="st0" d="M92.7,7.3L92.7,7.3L92.7,7.3h7.6c1,0,1.9,0.8,1.9,1.9v7.6c0,1-0.8,1.9-1.9,1.9h-7.6c-1,0-1.9-0.8-1.9-1.9V9.2
		l0,0V8.6c0-0.5-0.4-0.9-0.9-0.9h-4.7V7.4L92.7,7.3L92.7,7.3z"/>
	<path class="st0" d="M77.7,7.3L77.7,7.3L77.7,7.3h-7.6c-1,0-1.9,0.8-1.9,1.9v1.9c0,1,0.9,1.9,1.9,1.9h7.6c1.1,0,1.9-0.9,1.9-1.9
		V9.2l0,0V8.6c0-0.5,0.4-0.9,0.9-0.9h4.7V7.4L77.7,7.3L77.7,7.3z"/>
</g>
<g>
	<path class="st0" d="M83.1,24.3L83.1,24.3L83.1,24.3h-7.6c-1.1,0-1.9,0.8-1.9,1.9v7.6c0,1,0.9,1.9,1.9,1.9h7.6
		c1.1,0,1.9-0.8,1.9-1.9v-7.6l0,0v-0.6c0-0.5,0.4-0.9,0.9-0.9h4.7v-0.3L83.1,24.3L83.1,24.3z"/>
	<path class="st0" d="M98.3,24.6L98.3,24.6L98.3,24.6h7.6c1.1,0,1.9-0.9,1.9-1.9v-7.6c0-1.1-0.9-1.9-1.9-1.9h-7.5
		c-1.1,0-1.9,0.8-1.9,1.9v7.6l0,0v0.6c0,0.5-0.4,0.9-0.9,0.9h-4.7v0.3L98.3,24.6L98.3,24.6z"/>
</g>
<path class="st0" d="M104.1,24.3h7.6c1,0,1.9,0.8,1.9,1.9v13.2c0,1-0.8,1.9-1.9,1.9h-7.6c-1,0-1.9-0.8-1.9-1.9V26.2
	C102.2,25.1,103,24.3,104.1,24.3z"/>
<g>
	<path class="st0" d="M109.7,46.9L109.7,46.9L109.7,46.9h7.6c1.1,0,1.9-0.8,1.9-1.9v-7.5c0-1.1-0.9-1.9-1.9-1.9h-7.5
		c-1.1,0-1.9,0.8-1.9,1.9V45c0,0,0,0,0,0.1v0.6c0,0.5-0.4,0.9-0.9,0.9h-4.7v0.3H109.7L109.7,46.9z"/>
	<path class="st0" d="M94.7,46.9L94.7,46.9L94.7,46.9h-7.6c-1.1,0-1.9-0.8-1.9-1.9v-7.5c0-1.1,0.8-1.9,1.9-1.9h7.5
		c1.1,0,1.9,0.8,1.9,1.9V45c0,0,0,0,0,0.1v0.6c0,0.5,0.4,0.9,0.9,0.9h4.7v0.3H94.7L94.7,46.9z"/>
</g>
<g>
	<path class="st0" d="M149.4,7.3L149.4,7.3L149.4,7.3h7.6c1.1,0,1.9,0.8,1.9,1.9v7.6c0,1-0.9,1.9-1.9,1.9h-7.5
		c-1.1,0-1.9-0.8-1.9-1.9V9.2l0,0V8.6c0-0.5-0.4-0.9-0.9-0.9H142V7.4L149.4,7.3L149.4,7.3z"/>
	<path class="st0" d="M134.3,7.3L134.3,7.3L134.3,7.3h-7.6c-1,0-1.9,0.8-1.9,1.9v1.9c0,1,0.8,1.9,1.9,1.9h7.6c1,0,1.9-0.9,1.9-1.9
		V9.2l0,0V8.6c0-0.5,0.4-0.9,0.9-0.9h4.7V7.4L134.3,7.3L134.3,7.3z"/>
</g>
<g>
	<path class="st0" d="M134.3,24L134.3,24L134.3,24h-7.6c-1,0-1.9,0.8-1.9,1.9v7.5c0,1.1,0.8,1.9,1.9,1.9h7.6c1,0,1.9-0.8,1.9-1.9
		v-7.5c0,0,0,0,0-0.1v-0.6c0-0.5,0.4-0.9,0.9-0.9h4.7V24H134.3L134.3,24z"/>
	<path class="st0" d="M149.6,24.3L149.6,24.3L149.6,24.3h7.6c1.1,0,1.9-0.8,1.9-1.9v-7.6c0-1-0.9-1.9-1.9-1.9h-7.5
		c-1.1,0-1.9,0.9-1.9,1.9v7.6c0,0,0,0,0,0.1v0.6c0,0.5-0.4,0.9-0.9,0.9h-4.7v0.3H149.6L149.6,24.3z"/>
</g>
<path class="st0" d="M149.4,24.3h7.6c1,0,1.9,0.8,1.9,1.9v13.2c0,1-0.8,1.9-1.9,1.9h-7.6c-1,0-1.9-0.8-1.9-1.9V26.2
	C147.5,25.1,148.4,24.3,149.4,24.3z"/>
<g>
	<path class="st0" d="M149.4,46.9L149.4,46.9L149.4,46.9h7.6c1.1,0,1.9-0.8,1.9-1.9v-7.5c0-1.1-0.9-1.9-1.9-1.9h-7.5
		c-1.1,0-1.9,0.8-1.9,1.9V45c0,0,0,0,0,0.1v0.6c0,0.5-0.4,0.9-0.9,0.9H142v0.3H149.4L149.4,46.9z"/>
	<path class="st0" d="M134.3,46.9L134.3,46.9L134.3,46.9h-7.6c-1,0-1.9-0.8-1.9-1.9v-7.5c0-1.1,0.8-1.9,1.9-1.9h7.6
		c1,0,1.9,0.8,1.9,1.9V45c0,0,0,0,0,0.1v0.6c0,0.5,0.4,0.9,0.9,0.9h4.7v0.3H134.3L134.3,46.9z"/>
</g>
<g>
	<path class="st0" d="M189,7.3L189,7.3L189,7.3h7.6c1,0,1.9,0.8,1.9,1.9v7.6c0,1-0.9,1.9-1.9,1.9H189c-1,0-1.9-0.8-1.9-1.9V9.2l0,0
		V8.6c0-0.5-0.4-0.9-0.9-0.9h-4.7V7.4L189,7.3L189,7.3z"/>
	<path class="st0" d="M174,7.3L174,7.3L174,7.3h-7.6c-1.1,0-1.9,0.8-1.9,1.9v1.9c0,1,0.9,1.9,1.9,1.9h7.5c1.1,0,1.9-0.9,1.9-1.9V9.2
		l0,0V8.6c0-0.5,0.4-0.9,0.9-0.9h4.7V7.4L174,7.3L174,7.3z"/>
</g>
<g>
	<path class="st0" d="M174,24.3L174,24.3L174,24.3h-7.6c-1.1,0-1.9,0.8-1.9,1.9v7.6c0,1,0.9,1.9,1.9,1.9h7.5c1.1,0,1.9-0.8,1.9-1.9
		v-7.6l0,0v-0.6c0-0.5,0.4-0.9,0.9-0.9h4.7v-0.3L174,24.3L174,24.3z"/>
	<path class="st0" d="M189.3,24.6L189.3,24.6L189.3,24.6h7.6c1.1,0,1.9-0.9,1.9-1.9v-7.6c0-1.1-0.9-1.9-1.9-1.9h-7.5
		c-1.1,0-1.9,0.8-1.9,1.9v7.6l0,0v0.6c0,0.5-0.4,0.9-0.9,0.9h-4.7v0.3L189.3,24.6L189.3,24.6z"/>
</g>
<path class="st0" d="M189.1,12.9h7.6c1,0,1.9,0.8,1.9,1.9V28c0,1-0.8,1.9-1.9,1.9h-7.6c-1,0-1.9-0.8-1.9-1.9V14.8
	C187.2,13.8,188.1,12.9,189.1,12.9z"/>
<g>
	<path class="st0" d="M189,35.6L189,35.6L189,35.6h7.6c1,0,1.9-0.9,1.9-1.9v-7.6c0-1.1-0.9-1.9-1.9-1.9H189c-1,0-1.9,0.8-1.9,1.9
		v7.5c0,0,0,0,0,0.1v0.6c0,0.5-0.4,0.9-0.9,0.9h-4.7v0.3L189,35.6L189,35.6z"/>
	<path class="st0" d="M174,35.6L174,35.6L174,35.6h-7.6c-1.1,0-1.9-0.9-1.9-1.9v-7.6c0-1.1,0.9-1.9,1.9-1.9h7.5
		c1.1,0,1.9,0.8,1.9,1.9v7.5c0,0,0,0,0,0.1v0.6c0,0.5,0.4,0.9,0.9,0.9h4.7v0.3L174,35.6L174,35.6z"/>
</g>
<g>
	<path class="st0" d="M229,7.3L229,7.3L229,7.3h7.6c1.1,0,1.9,0.8,1.9,1.9v7.6c0,1-0.9,1.9-1.9,1.9H229c-1.1,0-1.9-0.8-1.9-1.9V9.2
		l0,0V8.6c0-0.5-0.4-0.9-0.9-0.9h-4.7V7.4L229,7.3L229,7.3z"/>
	<path class="st0" d="M213.9,7.3L213.9,7.3L213.9,7.3h-7.6c-1,0-1.9,0.8-1.9,1.9v1.9c0,1,0.9,1.9,1.9,1.9h7.6c1,0,1.9-0.9,1.9-1.9
		V9.2l0,0V8.6c0-0.5,0.4-0.9,0.9-0.9h4.7V7.4L213.9,7.3L213.9,7.3z"/>
</g>
<g>
	<path class="st0" d="M213.9,18.3L213.9,18.3L213.9,18.3h-7.6c-1,0-1.9,0.9-1.9,1.9v7.6c0,1.1,0.9,1.9,1.9,1.9h7.6
		c1,0,1.9-0.8,1.9-1.9v-7.6l0,0v-0.6c0-0.5,0.4-0.9,0.9-0.9h4.7v-0.3L213.9,18.3L213.9,18.3z"/>
	<path class="st0" d="M229.2,18.6L229.2,18.6L229.2,18.6h7.6c1.1,0,1.9-0.8,1.9-1.9V9.1c0-1-0.9-1.9-1.9-1.9h-7.5
		c-1.1,0-1.9,0.8-1.9,1.9v7.6l0,0v0.6c0,0.5-0.4,0.9-0.9,0.9h-4.7v0.3L229.2,18.6L229.2,18.6z"/>
</g>
<path class="st0" d="M229,7.3h7.6c1,0,1.9,0.8,1.9,1.9v13.2c0,1-0.8,1.9-1.9,1.9H229c-1,0-1.9-0.8-1.9-1.9V9.1
	C227.1,8.1,228,7.3,229,7.3z"/>
<g>
	<path class="st0" d="M229,29.9L229,29.9L229,29.9h7.6c1.1,0,1.9-0.8,1.9-1.9v-7.5c0-1.1-0.9-1.9-1.9-1.9H229
		c-1.1,0-1.9,0.8-1.9,1.9V28c0,0,0,0,0,0.1v0.6c0,0.5-0.4,0.9-0.9,0.9h-4.7v0.3H229L229,29.9z"/>
	<path class="st0" d="M213.9,29.9L213.9,29.9L213.9,29.9h-7.6c-1,0-1.9-0.8-1.9-1.9v-7.5c0-1.1,0.9-1.9,1.9-1.9h7.6
		c1,0,1.9,0.8,1.9,1.9V28c0,0,0,0,0,0.1v0.6c0,0.5,0.4,0.9,0.9,0.9h4.7v0.3H213.9L213.9,29.9z"/>
</g>
<g>
	<path class="st0" d="M47.8,158.4L47.8,158.4L47.8,158.4h7.6c1.1,0,1.9,0.8,1.9,1.9v7.5c0,1.1-0.8,1.9-1.9,1.9h-7.5
		c-1.1,0-1.9-0.8-1.9-1.9v-7.5c0,0,0,0,0-0.1v-0.6c0-0.5-0.4-0.9-0.9-0.9h-4.7v-0.3L47.8,158.4L47.8,158.4z"/>
	<path class="st0" d="M32.8,158.4L32.8,158.4L32.8,158.4h-7.6c-1.1,0-1.9,0.8-1.9,1.9v1.9c0,1.1,0.8,1.9,1.9,1.9h7.5
		c1.1,0,1.9-0.8,1.9-1.9v-1.9c0,0,0,0,0-0.1v-0.6c0-0.5,0.4-0.9,0.9-0.9h4.7v-0.3C40.3,158.4,32.8,158.4,32.8,158.4z"/>
</g>
<g>
	<path class="st0" d="M31.6,176.4L31.6,176.4L31.6,176.4H24c-1.1,0-1.9,0.8-1.9,1.9v7.5c0,1.1,0.8,1.9,1.9,1.9h7.6
		c1,0,1.9-0.9,1.9-1.9v-7.5c0,0,0,0,0-0.1v-0.6c0-0.5,0.4-0.9,0.9-0.9h4.7v-0.3H31.6L31.6,176.4z"/>
	<path class="st0" d="M46.8,176.7L46.8,176.7L46.8,176.7h7.6c1,0,1.9-0.9,1.9-1.9v-7.6c0-1.1-0.9-1.9-1.9-1.9h-7.6
		c-1.1,0-1.9,0.9-1.9,1.9v7.6c0,0,0,0,0,0.1v0.6c0,0.5-0.4,0.9-0.9,0.9h-4.7v0.3L46.8,176.7L46.8,176.7z"/>
</g>
<g>
	<path class="st0" d="M46.8,187.7L46.8,187.7L46.8,187.7h7.6c1,0,1.9-0.9,1.9-1.9v-7.6c0-1-0.9-1.9-1.9-1.9h-7.6
		c-1.1,0-1.9,0.9-1.9,1.9v7.6l0,0v0.6c0,0.5-0.4,0.9-0.9,0.9h-4.7v0.3L46.8,187.7L46.8,187.7z"/>
	<path class="st0" d="M31.8,187.7L31.8,187.7L31.8,187.7h-7.6c-1.1,0-1.9-0.9-1.9-1.9v-7.6c0-1,0.8-1.9,1.9-1.9h7.5
		c1.1,0,1.9,0.9,1.9,1.9v7.6l0,0v0.6c0,0.5,0.4,0.9,0.9,0.9h4.7v0.3L31.8,187.7L31.8,187.7z"/>
</g>
<g>
	<path d="M57.3,88.7L57.3,88.7L57.3,88.7h7.6c1.1,0,1.9,0.9,1.9,1.9v7.6c0,1.1-0.9,1.9-1.9,1.9h-7.6c-1.1,0-1.9-0.8-1.9-1.9v-7.6
		l0,0V90c0-0.5-0.4-0.9-0.9-0.9h-4.7v-0.3L57.3,88.7L57.3,88.7z"/>
	<path d="M42.3,88.7L42.3,88.7L42.3,88.7h-7.6c-1.1,0-1.9,0.8-1.9,1.9v1.9c0,1.1,0.9,1.9,1.9,1.9h7.6c1.1,0,1.9-0.8,1.9-1.9v-1.9
		l0,0V90c0-0.5,0.4-0.9,0.9-0.9h4.7v-0.3C49.8,88.7,42.3,88.7,42.3,88.7z"/>
</g>
<g>
	<path d="M56.9,88.7L56.9,88.7L56.9,88.7h7.6c1.1,0,1.9,0.9,1.9,1.9v7.6c0,1.1-0.9,1.9-1.9,1.9H57c-1.1,0-1.9-0.8-1.9-1.9v-7.6l0,0
		V90c0-0.5-0.4-0.9-0.9-0.9h-4.7v-0.3L56.9,88.7L56.9,88.7z"/>
	<path d="M41.9,88.7L41.9,88.7L41.9,88.7h-7.6c-1,0-1.9,0.9-1.9,1.9v1.9c0,1.1,0.9,1.9,1.9,1.9h7.6c1.1,0,1.9-0.8,1.9-1.9v-1.9l0,0
		V90c0-0.5,0.4-0.9,0.9-0.9h4.7v-0.3L41.9,88.7L41.9,88.7z"/>
</g>
<g>
	<path d="M41.9,103L41.9,103L41.9,103h-7.6c-1.1,0-1.9,0.9-1.9,1.9v7.6c0,1.1,0.8,1.9,1.9,1.9h7.6c1.1,0,1.9-0.9,1.9-1.9v-7.6l0,0
		v-0.6c0-0.5,0.4-0.9,0.9-0.9h4.7v-0.3L41.9,103L41.9,103z"/>
	<path d="M57.1,103.3L57.1,103.3L57.1,103.3h7.6c1.1,0,1.9-0.8,1.9-1.9v-7.6c0-1.1-0.8-1.9-1.9-1.9h-7.6c-1.1,0-1.9,0.9-1.9,1.9v7.6
		c0,0,0,0,0,0.1v0.6c0,0.5-0.4,0.9-0.9,0.9h-4.7v0.3L57.1,103.3L57.1,103.3z"/>
</g>
<path d="M57.1,96h7.6c1,0,1.9,0.8,1.9,1.9v13.2c0,1-0.8,1.9-1.9,1.9h-7.6c-1,0-1.9-0.8-1.9-1.9V97.9C55.2,96.8,56.1,96,57.1,96z"/>
<g>
	<path d="M57.2,114.3L57.2,114.3L57.2,114.3h7.6c1.1,0,1.9-0.8,1.9-1.9v-7.5c0-1.1-0.8-1.9-1.9-1.9h-7.6c-1.1,0-1.9,0.8-1.9,1.9v7.5
		c0,0,0,0,0,0.1v0.6c0,0.5-0.4,0.9-0.9,0.9h-4.7v0.3L57.2,114.3L57.2,114.3z"/>
	<path d="M42.2,114.3L42.2,114.3L42.2,114.3h-7.6c-1.1,0-1.9-0.8-1.9-1.9v-7.5c0-1.1,0.9-1.9,1.9-1.9h7.6c1.1,0,1.9,0.8,1.9,1.9v7.5
		c0,0,0,0,0,0.1v0.6c0,0.5,0.4,0.9,0.9,0.9h4.7v0.3L42.2,114.3L42.2,114.3z"/>
</g>
<g>
	<path d="M211,90.2L211,90.2L211,90.2h7.6c1.1,0,1.9,0.9,1.9,1.9v7.6c0,1.1-0.9,1.9-1.9,1.9H211c-1.1,0-1.9-0.9-1.9-1.9v-7.6
		c0,0,0,0,0-0.1v-0.6c0-0.5-0.4-0.9-0.9-0.9h-4.7v-0.3L211,90.2L211,90.2z"/>
	<path d="M195.9,90.2L195.9,90.2L195.9,90.2h-7.6c-1,0-1.9,0.9-1.9,1.9V94c0,1.1,0.8,1.9,1.9,1.9h7.6c1,0,1.9-0.9,1.9-1.9v-1.9
		c0,0,0,0,0-0.1v-0.6c0-0.5,0.4-0.9,0.9-0.9h4.7v-0.3L195.9,90.2L195.9,90.2z"/>
</g>
<g>
	<path d="M195.9,106.9L195.9,106.9L195.9,106.9h-7.6c-1,0-1.9,0.9-1.9,1.9v7.6c0,1.1,0.8,1.9,1.9,1.9h7.6c1,0,1.9-0.8,1.9-1.9v-7.5
		c0,0,0,0,0-0.1v-0.6c0-0.5,0.4-0.9,0.9-0.9h4.7V107L195.9,106.9L195.9,106.9z"/>
	<path d="M211.2,107.2L211.2,107.2L211.2,107.2h7.6c1.1,0,1.9-0.8,1.9-1.9v-7.6c0-1-0.9-1.9-1.9-1.9h-7.5c-1.1,0-1.9,0.9-1.9,1.9
		v7.6c0,0,0,0,0,0.1v0.6c0,0.5-0.4,0.9-0.9,0.9h-4.7v0.3L211.2,107.2L211.2,107.2z"/>
</g>
<path d="M211,107.2h7.6c1,0,1.9,0.8,1.9,1.9v13.2c0,1-0.8,1.9-1.9,1.9H211c-1,0-1.9-0.8-1.9-1.9v-13.2
	C209.1,108,210,107.2,211,107.2z"/>
<g>
	<path d="M211,129.9L211,129.9L211,129.9h7.6c1.1,0,1.9-0.9,1.9-1.9v-7.6c0-1.1-0.9-1.9-1.9-1.9H211c-1.1,0-1.9,0.9-1.9,1.9v7.6
		c0,0,0,0,0,0.1v0.6c0,0.5-0.4,0.9-0.9,0.9h-4.7v0.3L211,129.9L211,129.9z"/>
	<path d="M195.9,129.9L195.9,129.9L195.9,129.9h-7.6c-1,0-1.9-0.9-1.9-1.9v-7.6c0-1.1,0.8-1.9,1.9-1.9h7.6c1,0,1.9,0.9,1.9,1.9v7.6
		c0,0,0,0,0,0.1v0.6c0,0.5,0.4,0.9,0.9,0.9h4.7v0.3L195.9,129.9L195.9,129.9z"/>
</g>
<g>
	<path d="M151.9,195.8L151.9,195.8L151.9,195.8h7.6c1,0,1.9,0.9,1.9,1.9v7.5c0,1.1-0.9,1.9-1.9,1.9h-7.6c-1,0-1.9-0.9-1.9-1.9v-7.5
		c0,0,0,0,0-0.1V197c0-0.5-0.4-0.9-0.9-0.9h-4.7v-0.3H151.9L151.9,195.8z"/>
	<path d="M136.8,195.8L136.8,195.8L136.8,195.8h-7.6c-1.1,0-1.9,0.9-1.9,1.9v1.9c0,1,0.9,1.9,1.9,1.9h7.5c1.1,0,1.9-0.9,1.9-1.9
		v-1.9c0,0,0,0,0-0.1V197c0-0.5,0.4-0.9,0.9-0.9h4.7v-0.3H136.8L136.8,195.8z"/>
</g>
<g>
	<path d="M136.8,212.8L136.8,212.8L136.8,212.8h-7.6c-1.1,0-1.9,0.9-1.9,1.9v7.5c0,1,0.9,1.9,1.9,1.9h7.5c1.1,0,1.9-0.9,1.9-1.9
		v-7.5c0,0,0,0,0-0.1V214c0-0.5,0.4-0.9,0.9-0.9h4.7v-0.3H136.8L136.8,212.8z"/>
	<path d="M152.1,213.1L152.1,213.1L152.1,213.1h7.6c1.1,0,1.9-0.9,1.9-1.9v-7.6c0-1.1-0.9-1.9-1.9-1.9h-7.5c-1.1,0-1.9,0.9-1.9,1.9
		v7.5l0,0v0.6c0,0.5-0.4,0.9-0.9,0.9h-4.7v0.3h7.4V213.1z"/>
</g>
<path d="M151.9,201.5h7.6c1,0,1.9,0.8,1.9,1.9v13.2c0,1-0.8,1.9-1.9,1.9h-7.6c-1,0-1.9-0.8-1.9-1.9v-13.2
	C150,202.3,150.9,201.5,151.9,201.5z"/>
<g>
	<path d="M151.9,224.2L151.9,224.2L151.9,224.2h7.6c1,0,1.9-0.9,1.9-1.9v-7.6c0-1-0.9-1.9-1.9-1.9h-7.6c-1,0-1.9,0.9-1.9,1.9v7.6
		l0,0v0.6c0,0.5-0.4,0.9-0.9,0.9h-4.7v0.3L151.9,224.2L151.9,224.2z"/>
	<path d="M136.8,224.2L136.8,224.2L136.8,224.2h-7.6c-1.1,0-1.9-0.9-1.9-1.9v-7.6c0-1,0.9-1.9,1.9-1.9h7.5c1.1,0,1.9,0.9,1.9,1.9
		v7.6l0,0v0.6c0,0.5,0.4,0.9,0.9,0.9h4.7v0.3L136.8,224.2L136.8,224.2z"/>
</g>
<g>
	<path d="M191.8,195.8L191.8,195.8L191.8,195.8h7.6c1.1,0,1.9,0.9,1.9,1.9v7.5c0,1.1-0.9,1.9-1.9,1.9h-7.5c-1.1,0-1.9-0.9-1.9-1.9
		v-7.5c0,0,0,0,0-0.1V197c0-0.5-0.4-0.9-0.9-0.9h-4.7v-0.3H191.8L191.8,195.8z"/>
	<path d="M176.7,195.8L176.7,195.8L176.7,195.8h-7.6c-1,0-1.9,0.9-1.9,1.9v1.9c0,1,0.9,1.9,1.9,1.9h7.6c1,0,1.9-0.9,1.9-1.9v-1.9
		c0,0,0,0,0-0.1V197c0-0.5,0.4-0.9,0.9-0.9h4.7v-0.3H176.7L176.7,195.8z"/>
</g>
<g>
	<path d="M176.7,206.8L176.7,206.8L176.7,206.8h-7.6c-1,0-1.9,0.9-1.9,1.9v7.5c0,1.1,0.9,1.9,1.9,1.9h7.6c1,0,1.9-0.9,1.9-1.9v-7.5
		c0,0,0,0,0-0.1V208c0-0.5,0.4-0.9,0.9-0.9h4.7v-0.3H176.7L176.7,206.8z"/>
	<path d="M192,207.1L192,207.1L192,207.1h7.6c1.1,0,1.9-0.9,1.9-1.9v-7.5c0-1.1-0.9-1.9-1.9-1.9H192c-1.1,0-1.9,0.9-1.9,1.9v7.5
		c0,0,0,0,0,0.1v0.6c0,0.5-0.4,0.9-0.9,0.9h-4.7v0.3H192L192,207.1z"/>
</g>
<path d="M191.8,195.8h7.6c1,0,1.9,0.8,1.9,1.9v13.2c0,1-0.8,1.9-1.9,1.9h-7.6c-1,0-1.9-0.8-1.9-1.9v-13.2
	C189.9,196.7,190.8,195.8,191.8,195.8z"/>
<g>
	<path d="M191.8,218.5L191.8,218.5L191.8,218.5h7.6c1.1,0,1.9-0.9,1.9-1.9v-7.5c0-1.1-0.9-1.9-1.9-1.9h-7.5c-1.1,0-1.9,0.9-1.9,1.9
		v7.5c0,0,0,0,0,0.1v0.6c0,0.5-0.4,0.9-0.9,0.9h-4.7v0.3H191.8L191.8,218.5z"/>
	<path d="M176.7,218.5L176.7,218.5L176.7,218.5h-7.6c-1,0-1.9-0.9-1.9-1.9v-7.5c0-1.1,0.9-1.9,1.9-1.9h7.6c1,0,1.9,0.9,1.9,1.9v7.5
		c0,0,0,0,0,0.1v0.6c0,0.5,0.4,0.9,0.9,0.9h4.7v0.3H176.7L176.7,218.5z"/>
</g>
</svg>
